SplineFontDB: 3.2
FontName: RothenburgDecorative
FullName: Rothenburg Decorative
FamilyName: Rothenburg Decorative
Weight: Book
Copyright: Copyright (c) Typographer Mediengestaltung, 2000. All rights reserved. Full character set added by D. Steffmann
Version: 1.60
ItalicAngle: 0
UnderlinePosition: -175
UnderlineWidth: 50
Ascent: 800
Descent: 200
InvalidEm: 0
sfntRevision: 0x0001003c
LayerCount: 2
Layer: 0 1 "Back" 1
Layer: 1 1 "Fore" 0
XUID: [1021 1 1493997063 13418782]
StyleMap: 0x0040
FSType: 0
OS2Version: 2
OS2_WeightWidthSlopeOnly: 0
OS2_UseTypoMetrics: 0
CreationTime: 1062854086
ModificationTime: 1700985542
PfmFamily: 17
TTFWeight: 400
TTFWidth: 5
LineGap: 78
VLineGap: 0
Panose: 2 0 5 7 2 0 0 2 0 2
OS2TypoAscent: 838
OS2TypoAOffset: 0
OS2TypoDescent: -200
OS2TypoDOffset: 0
OS2TypoLinegap: 78
OS2WinAscent: 1397
OS2WinAOffset: 0
OS2WinDescent: 512
OS2WinDOffset: 0
HheadAscent: 838
HheadAOffset: 0
HheadDescent: -200
HheadDOffset: 0
OS2SubXSize: 204
OS2SubYSize: 204
OS2SubXOff: 0
OS2SubYOff: 286
OS2SupXSize: 204
OS2SupYSize: 204
OS2SupXOff: 0
OS2SupYOff: 286
OS2StrikeYSize: 102
OS2StrikeYPos: 512
OS2Vendor: 'DST '
OS2UnicodeRanges: 80000003.00000000.00000000.00000000
Lookup: 258 0 0 "'kern' Horizontal Kerning in Latin lookup 0" { "'kern' Horizontal Kerning in Latin lookup 0 subtable"  } ['kern' ('DFLT' <'dflt' > 'latn' <'dflt' > ) ]
MarkAttachClasses: 1
DEI: 91125
TtTable: prep
PUSHW_4
 0
 2
 2
 0
CALL
CALL
PUSHW_4
 1
 30
 50
 5
CALL
PUSHW_4
 0
 15
 25
 5
CALL
EndTTInstrs
TtTable: fpgm
PUSHW_1
 0
FDEF
MPPEM
PUSHW_1
 9
LT
IF
PUSHB_2
 1
 1
INSTCTRL
EIF
PUSHW_1
 511
SCANCTRL
PUSHW_1
 132
SCVTCI
PUSHW_2
 9
 3
SDS
SDB
ENDF
PUSHW_1
 1
FDEF
DUP
DUP
RCVT
ROUND[Black]
WCVTP
PUSHB_1
 1
ADD
ENDF
PUSHW_1
 2
FDEF
PUSHW_1
 1
LOOPCALL
POP
ENDF
PUSHW_1
 3
FDEF
DUP
GC[cur]
PUSHB_1
 3
CINDEX
GC[cur]
GT
IF
SWAP
EIF
DUP
ROLL
DUP
ROLL
MD[grid]
ABS
ROLL
DUP
GC[cur]
DUP
ROUND[Grey]
SUB
ABS
PUSHB_1
 4
CINDEX
GC[cur]
DUP
ROUND[Grey]
SUB
ABS
GT
IF
SWAP
NEG
ROLL
EIF
MDAP[rnd]
DUP
PUSHB_1
 0

StartChar: .notdef
Encoding: 65536 -1 0
Width: 500
Flags: W
LayerCount: 2
Fore
SplineSet
63 0 m 1,0,-1
 63 838 l 1,1,-1
 438 838 l 1,2,-1
 438 0 l 1,3,-1
 63 0 l 1,0,-1
125 63 m 1,4,-1
 375 63 l 1,5,-1
 375 776 l 1,6,-1
 125 776 l 1,7,-1
 125 63 l 1,4,-1
EndSplineSet
Validated: 1
EndChar

StartChar: fi
Encoding: 26 26 1
Width: 422
Flags: W
LayerCount: 2
Fore
SplineSet
213 356 m 1,0,1
 171 351 171 351 171 179 c 0,2,3
 171 156 171 156 172 133 c 1,4,5
 172 133 172 133 165 134 c 1,6,7
 164 153 164 153 164 173 c 0,8,9
 164 192 164 192 165 213 c 0,10,11
 170 317 170 317 177 349 c 0,12,13
 181 372 181 372 192 377 c 1,14,15
 207 375 207 375 213 356 c 1,0,1
355 535 m 2,16,17
 355 535 355 535 355 114 c 1,18,-1
 363 116 l 1,19,20
 362 142 362 142 362 167 c 0,21,22
 362 193 362 193 362 216 c 0,23,24
 362 376 362 376 407 376 c 0,25,26
 411 374 411 374 413 370 c 0,27,28
 413.8 368 413.8 368 413.8 364.88 c 0,29,30
 413.8 360.2 413.8 360.2 412 353 c 1,31,32
 383 335 383 335 377 288 c 0,33,34
 371 244 371 244 371 117 c 1,35,36
 371 117 371 117 380 119 c 2,37,38
 387 119 387 119 387 110 c 0,39,40
 386 98 386 98 382 96 c 0,41,42
 348 76 348 76 296 3 c 1,43,44
 293 3 293 3 291 3 c 0,45,46
 288.727272727 2.81818181818 288.727272727 2.81818181818 286.661157025 2.81818181818 c 0,47,48
 266 2.81818181818 266 2.81818181818 266 21 c 2,49,50
 266 21 266 21 266 442 c 2,51,52
 264 443 264 443 261 443 c 256,53,54
 258 443 258 443 252 440 c 128,-1,55
 246 437 246 437 241 437 c 0,56,57
 235 437 235 437 235 444 c 0,58,59
 234.833333333 445.166666667 234.833333333 445.166666667 234.833333333 446.388888889 c 0,60,61
 234.833333333 452.5 234.833333333 452.5 239 460 c 1,62,63
 275 480 275 480 325 553 c 1,64,65
 327.230769231 553 327.230769231 553 327.925 553.05 c 0,66,67
 330.330296128 553.223234624 330.330296128 553.223234624 332.521909911 553.223234624 c 0,68,69
 355 553.223234624 355 553.223234624 355 535 c 2,16,17
209 690 m 2,70,71
 189 681 189 681 176 681 c 0,72,73
 135 681 135 681 135 718 c 0,74,75
 135 731 135 731 149 759 c 128,-1,76
 163 787 163 787 163 798 c 0,77,78
 163 822 163 822 118 822 c 0,79,80
 76 822 76 822 50.5 799.5 c 128,-1,81
 25 777 25 777 25 735 c 0,82,83
 25 702 25 702 59 658 c 0,84,85
 68 647 68 647 80 629.5 c 128,-1,86
 92 612 92 612 106 589 c 0,87,88
 110 588 110 588 114 588 c 256,89,90
 118 588 118 588 123 588 c 0,91,92
 148 588 148 588 177 597 c 1,93,94
 175 588 175 588 164 560 c 1,95,96
 195 569 195 569 208 596 c 1,97,98
 212.166666667 592.666666667 212.166666667 592.666666667 212.166666667 583.083333333 c 0,99,100
 212.166666667 581.166666667 212.166666667 581.166666667 212 579 c 0,101,102
 210 572 210 572 208.5 565 c 128,-1,103
 207 558 207 558 205 550 c 2,104,105
 205 550 205 550 195 517 c 2,106,107
 190 497 190 497 190 486 c 0,108,109
 190 479 190 479 193.5 470 c 128,-1,110
 197 461 197 461 200.5 452 c 128,-1,111
 204 443 204 443 207.5 434.5 c 128,-1,112
 211 426 211 426 211 420 c 0,113,114
 211 392 211 392 200 392 c 1,115,116
 189 412 189 412 181 474 c 2,117,118
 181 474 181 474 176 512 c 2,119,120
 174 529 174 529 170 532 c 2,121,122
 170 532 170 532 156 532 c 1,123,-1
 156 530 l 2,124,125
 155 528 155 528 155 526 c 2,126,127
 155 526 155 526 155 63 c 2,128,129
 155 5 155 5 165 -26 c 0,130,131
 167 -33 167 -33 170 -43 c 128,-1,132
 173 -53 173 -53 177 -67 c 1,133,134
 164 -61 164 -61 129 -51 c 1,135,136
 126.671641791 -50.8656716418 126.671641791 -50.8656716418 124.447538427 -50.8656716418 c 0,137,138
 77 -50.8656716418 77 -50.8656716418 77 -112 c 2,139,140
 77 -112 77 -112 77 -228 c 2,141,142
 77 -242 77 -242 68 -254 c 128,-1,143
 59 -266 59 -266 45 -266 c 0,144,145
 34 -266 34 -266 24 -257.5 c 128,-1,146
 14 -249 14 -249 14 -238 c 0,147,148
 14 -224 14 -224 25 -224 c 256,149,150
 36 -224 36 -224 50 -238 c 0,151,152
 52 -240 52 -240 57 -240 c 0,153,154
 66 -240 66 -240 66 -229 c 2,155,156
 66 -229 66 -229 66 -54 c 1,157,-1
 67 -54 l 1,158,-1
 66 31 l 1,159,-1
 66 492 l 2,160,161
 66 502 66 502 66 512 c 256,162,163
 66 522 66 522 65 532 c 1,164,165
 65 532 65 532 30 532 c 1,166,167
 20.6923076923 538.769230769 20.6923076923 538.769230769 20.6923076923 543.390532544 c 0,168,169
 20.6923076923 544.230769231 20.6923076923 544.230769231 21 545 c 0,170,171
 22 555 22 555 47 557 c 0,172,173
 52 557.5 52 557.5 56.25 557.5 c 128,-1,174
 60.5 557.5 60.5 557.5 64 557 c 1,175,176
 63 576 63 576 62 596 c 128,-1,177
 61 616 61 616 53 633 c 2,178,179
 53 633 53 633 26 681 c 2,180,181
 9 713 9 713 9 733 c 0,182,183
 9 755 9 755 18 774.5 c 128,-1,184
 27 794 27 794 43 808 c 128,-1,185
 59 822 59 822 79 830 c 128,-1,186
 99 838 99 838 122 838 c 0,187,188
 213 838 213 838 213 770 c 0,189,190
 213 757 213 757 195 739 c 128,-1,191
 177 721 177 721 177 708 c 0,192,193
 177 697 177 697 187 697 c 0,194,195
 205 697 205 697 216 712 c 1,196,197
 217 711 217 711 218 710.5 c 128,-1,198
 219 710 219 710 220 709 c 1,199,200
 240 732 240 732 279 750 c 0,201,202
 303 761 303 761 321 761 c 0,203,204
 358 761 358 761 358 724 c 0,205,206
 358 716 358 716 350 703 c 128,-1,207
 342 690 342 690 342 682 c 0,208,209
 342 672 342 672 357 672 c 1,210,211
 356.970588235 672 356.970588235 672 356.970588235 672.01384083 c 0,212,213
 356.970588235 672.470588235 356.970588235 672.470588235 389 688 c 0,214,215
 400 693 400 693 408 694 c 0,216,217
 409.6 694.4 409.6 694.4 410.88 694.4 c 0,218,219
 416 694.4 416 694.4 416 688 c 1,220,221
 407 682 407 682 394.5 673.5 c 128,-1,222
 382 665 382 665 365 654 c 0,223,224
 326 630 326 630 302 630 c 0,225,226
 259 630 259 630 259 668 c 0,227,228
 259 675 259 675 266.5 686.5 c 128,-1,229
 274 698 274 698 274 706 c 256,230,231
 274 714 274 714 261 714 c 0,232,233
 252 714 252 714 239 706 c 0,234,235
 231 700 231 700 226 697 c 128,-1,236
 221 694 221 694 219 693 c 2,237,238
 219 693 219 693 209 690 c 2,70,71
EndSplineSet
Validated: 1
EndChar

StartChar: fl
Encoding: 27 27 2
Width: 412
Flags: W
LayerCount: 2
Fore
SplineSet
213 356 m 1,0,1
 171.320754717 350.679245283 171.320754717 350.679245283 171.320754717 179.427910288 c 0,2,3
 171.320754717 157.566037736 171.320754717 157.566037736 172 133 c 1,4,5
 172 133 172 133 165 134 c 1,6,7
 164 153 164 153 164 172.75 c 128,-1,8
 164 192.5 164 192.5 165 213 c 0,9,10
 166 299 166 299 177 349 c 0,11,12
 181 372 181 372 192 377 c 1,13,14
 207 375 207 375 213 356 c 1,0,1
258 19 m 2,15,16
 258 19 258 19 258 629 c 2,17,18
 258 714 258 714 206 751 c 1,19,20
 197 741 197 741 187 730 c 128,-1,21
 177 719 177 719 177 708 c 256,22,23
 177 697 177 697 187 697 c 0,24,25
 205 697 205 697 216 712 c 1,26,27
 222 707 222 707 222 704 c 0,28,29
 222 696 222 696 209 690 c 0,30,31
 189 681 189 681 176 681 c 0,32,33
 135 681 135 681 135 718 c 0,34,35
 135 731 135 731 149 759 c 128,-1,36
 163 787 163 787 163 798 c 0,37,38
 163 822 163 822 118 822 c 0,39,40
 76 822 76 822 50.5 799.5 c 128,-1,41
 25 777 25 777 25 735 c 0,42,43
 25 702 25 702 59 658 c 0,44,45
 68 647 68 647 80 629.5 c 128,-1,46
 92 612 92 612 106 589 c 0,47,48
 110 588 110 588 114 588 c 256,49,50
 118 588 118 588 123 588 c 0,51,52
 148 588 148 588 177 597 c 1,53,54
 175 588 175 588 164 560 c 1,55,56
 195 569 195 569 208 596 c 1,57,58
 213 592 213 592 212 579 c 0,59,60
 210 572 210 572 208.5 565 c 128,-1,61
 207 558 207 558 205 550 c 2,62,63
 205 550 205 550 195 517 c 2,64,65
 190 497 190 497 190 486 c 0,66,67
 190 479 190 479 193.5 470 c 128,-1,68
 197 461 197 461 200.5 452 c 128,-1,69
 204 443 204 443 207.5 434.5 c 128,-1,70
 211 426 211 426 211 420 c 0,71,72
 211 392 211 392 200 392 c 1,73,74
 189 412 189 412 181 474 c 2,75,76
 181 474 181 474 176 512 c 2,77,78
 174 529 174 529 170 532 c 2,79,80
 170 532 170 532 156 532 c 1,81,-1
 156 530 l 2,82,83
 155 528 155 528 155 526 c 2,84,85
 155 526 155 526 155 63 c 2,86,87
 155 5 155 5 165 -26 c 0,88,89
 167 -33 167 -33 170 -43 c 128,-1,90
 173 -53 173 -53 177 -67 c 1,91,92
 164 -61 164 -61 129 -51 c 1,93,94
 126.671641791 -50.8656716418 126.671641791 -50.8656716418 124.447538427 -50.8656716418 c 0,95,96
 77 -50.8656716418 77 -50.8656716418 77 -112 c 2,97,98
 77 -112 77 -112 77 -228 c 2,99,100
 77 -242 77 -242 68 -254 c 128,-1,101
 59 -266 59 -266 45 -266 c 0,102,103
 34 -266 34 -266 24 -257.5 c 128,-1,104
 14 -249 14 -249 14 -238 c 0,105,106
 14 -224 14 -224 25 -224 c 256,107,108
 36 -224 36 -224 50 -238 c 0,109,110
 52 -240 52 -240 57 -240 c 0,111,112
 66 -240 66 -240 66 -229 c 2,113,114
 66 -229 66 -229 66 -54 c 1,115,-1
 67 -54 l 1,116,-1
 66 31 l 1,117,-1
 66 492 l 2,118,119
 66 502 66 502 66 512 c 256,120,121
 66 522 66 522 65 532 c 1,122,123
 65 532 65 532 30 532 c 1,124,125
 19 540 19 540 21 545 c 0,126,127
 22 555 22 555 47 557 c 0,128,129
 57 558 57 558 64 557 c 1,130,131
 63 576 63 576 62 596 c 128,-1,132
 61 616 61 616 53 633 c 2,133,134
 53 633 53 633 26 681 c 2,135,136
 9 713 9 713 9 733 c 0,137,138
 9 755 9 755 18 774.5 c 128,-1,139
 27 794 27 794 43 808 c 128,-1,140
 59 822 59 822 79 830 c 128,-1,141
 99 838 99 838 122 838 c 0,142,143
 213 838 213 838 213 770 c 0,144,145
 213 768 213 768 211 762 c 1,146,147
 241 756 241 756 269 725 c 0,148,149
 292 700 292 700 305 667 c 1,150,151
 318 780 318 780 403 827 c 1,152,153
 403 827 403 827 399 808 c 1,154,155
 347 750 347 750 347 656 c 2,156,157
 347 656 347 656 347 112 c 1,158,-1
 355 114 l 1,159,160
 354 140 354 140 354 165 c 0,161,162
 354 191 354 191 354 214 c 0,163,164
 354 374 354 374 399 374 c 0,165,166
 403 372 403 372 405 368 c 0,167,168
 407 363 407 363 404 351 c 1,169,170
 376 333 376 333 368 286 c 0,171,172
 366 264 366 264 364.5 221.5 c 128,-1,173
 363 179 363 179 363 115 c 1,174,175
 363 115 363 115 372 117 c 2,176,177
 376 117 376 117 378 115 c 128,-1,178
 380 113 380 113 378 108 c 0,179,180
 377 98 377 98 374 94 c 0,181,182
 340 74 340 74 288 1 c 1,183,184
 285.272727273 0.818181818182 285.272727273 0.818181818182 282.79338843 0.818181818182 c 0,185,186
 258 0.818181818182 258 0.818181818182 258 19 c 2,15,16
EndSplineSet
Validated: 1
EndChar

StartChar: exclam
Encoding: 33 33 4
Width: 219
Flags: W
LayerCount: 2
Fore
SplineSet
64 154 m 2,0,1
 64 154 64 154 64 629 c 2,2,3
 64 715 64 715 10 753 c 1,4,5
 10 753 10 753 14 761 c 1,6,7
 46 756 46 756 74 727 c 0,8,9
 97 702 97 702 111 667 c 1,10,11
 126 780 126 780 209 827 c 1,12,13
 209 827 209 827 205 808 c 1,14,15
 153 750 153 750 153 656 c 2,16,17
 153 656 153 656 153 247 c 1,18,-1
 178 252 l 1,19,20
 185 248 185 248 185 242 c 0,21,22
 185 237 185 237 180 229 c 1,23,24
 146 209 146 209 94 136 c 1,25,26
 91.2727272727 135.818181818 91.2727272727 135.818181818 88.7933884298 135.818181818 c 0,27,28
 64 135.818181818 64 135.818181818 64 154 c 2,0,1
75 104 m 1,29,30
 115 130 115 130 145 130 c 0,31,32
 182 130 182 130 182 93 c 0,33,34
 182 90 182 90 179.5 84.5 c 128,-1,35
 177 79 177 79 174 73 c 128,-1,36
 171 67 171 67 168.5 61 c 128,-1,37
 166 55 166 55 166 51 c 0,38,39
 166 41 166 41 181 41 c 1,40,-1
 189 24 l 1,41,42
 151 0 151 0 126 0 c 0,43,44
 83 0 83 0 83 37 c 0,45,46
 83 44 83 44 90.5 56.5 c 128,-1,47
 98 69 98 69 98 75 c 0,48,49
 98 87 98 87 83 87 c 1,50,-1
 75 104 l 1,29,30
EndSplineSet
Validated: 1
EndChar

StartChar: quotedbl
Encoding: 34 34 5
Width: 212
Flags: W
LayerCount: 2
Fore
SplineSet
10 834 m 1,0,1
 38 848 38 848 70 848 c 0,2,3
 75 848 75 848 80.5 847.5 c 128,-1,4
 86 847 86 847 92 846 c 1,5,6
 93 838 93 838 93.5 831 c 128,-1,7
 94 824 94 824 94 817 c 0,8,9
 94 742 94 742 51 665 c 1,10,11
 44 669 44 669 35 669 c 0,12,13
 23 669 23 669 10 663 c 1,14,15
 18 707 18 707 19 749 c 0,16,17
 19.0909090909 752.818181818 19.0909090909 752.818181818 19.0909090909 756.644628099 c 0,18,19
 19.0909090909 794.909090909 19.0909090909 794.909090909 10 834 c 1,0,1
118 836 m 1,20,21
 146 850 146 850 178 850 c 0,22,23
 183 850 183 850 188.5 849.5 c 128,-1,24
 194 849 194 849 200 848 c 1,25,26
 201 840 201 840 201.5 833 c 128,-1,27
 202 826 202 826 202 819 c 0,28,29
 202 744 202 744 159 667 c 1,30,31
 152 671 152 671 143 671 c 0,32,33
 131 671 131 671 118 665 c 1,34,35
 126 709 126 709 127 751 c 0,36,37
 127.090909091 754.818181818 127.090909091 754.818181818 127.090909091 758.644628099 c 0,38,39
 127.090909091 796.909090909 127.090909091 796.909090909 118 836 c 1,20,21
EndSplineSet
Validated: 1
EndChar

StartChar: numbersign
Encoding: 35 35 6
Width: 563
Flags: W
LayerCount: 2
Fore
SplineSet
328 391 m 1,0,1
 345 392 345 392 378 394 c 128,-1,2
 411 396 411 396 460 401 c 0,3,4
 463 401 463 401 463 400 c 0,5,6
 463 388 463 388 431 364 c 0,7,8
 396 336 396 336 371 336 c 0,9,10
 361 336 361 336 347 334.5 c 128,-1,11
 333 333 333 333 314 331 c 1,12,13
 314 331 314 331 294 239 c 1,14,15
 284 213 284 213 243 178 c 1,16,17
 243 178 243 178 278 331 c 1,18,-1
 175 331 l 1,19,20
 169 309 169 309 157 239 c 1,21,22
 145 211 145 211 105 178 c 1,23,24
 105 178 105 178 139 331 c 1,25,26
 116 331 116 331 83 328 c 128,-1,27
 50 325 50 325 6 320 c 1,28,29
 8 323 8 323 10 327 c 128,-1,30
 12 331 12 331 14 336 c 0,31,32
 61 386 61 386 95 386 c 0,33,34
 104 386 104 386 118 387.5 c 128,-1,35
 132 389 132 389 152 391 c 1,36,37
 152 391 152 391 175 494 c 1,38,39
 110 492 110 492 43 485 c 1,40,41
 46 491 46 491 52 500 c 0,42,43
 97 550 97 550 132 550 c 0,44,45
 141 550 141 550 155 551 c 128,-1,46
 169 552 169 552 189 554 c 1,47,48
 189 554 189 554 211 650 c 1,49,50
 222 676 222 676 258 708 c 1,51,52
 258 708 258 708 225 554 c 1,53,-1
 328 554 l 1,54,-1
 349 650 l 1,55,56
 362 677 362 677 397 708 c 1,57,58
 397 708 397 708 364 554 c 1,59,60
 381 555 381 555 414 557.5 c 128,-1,61
 447 560 447 560 496 564 c 0,62,63
 499 564 499 564 499 563 c 0,64,65
 499 547 499 547 462 523 c 0,66,67
 424 499 424 499 406 499 c 0,68,69
 396 499 396 499 382.5 497.5 c 128,-1,70
 369 496 369 496 350 494 c 1,71,72
 350 494 350 494 328 391 c 1,0,1
314 494 m 1,73,-1
 211 494 l 1,74,-1
 189 391 l 1,75,-1
 292 391 l 1,76,-1
 314 494 l 1,73,-1
EndSplineSet
Validated: 1
EndChar

StartChar: dollar
Encoding: 36 36 7
Width: 326
Flags: W
LayerCount: 2
Fore
SplineSet
112 145 m 1,0,1
 112 145 112 145 131 379 c 1,2,3
 86 322 86 322 69 322 c 0,4,5
 34 322 34 322 15 370 c 0,6,7
 0 407 0 407 0 448 c 2,8,9
 0 448 0 448 0 570 c 2,10,11
 0 635 0 635 89 688 c 0,12,13
 128 711 128 711 161 743 c 1,14,15
 161 743 161 743 168 833 c 1,16,-1
 202 863 l 1,17,-1
 191 730 l 1,18,19
 200 719 200 719 231 698 c 1,20,21
 256 695 256 695 278 686 c 0,22,23
 278.375 685.5 278.375 685.5 278.375 684.78125 c 0,24,25
 278.375 679.75 278.375 679.75 260 664 c 0,26,27
 245 650 245 650 236 642 c 128,-1,28
 227 634 227 634 225 630 c 0,29,30
 223 627 223 627 214 612.5 c 128,-1,31
 205 598 205 598 190 572 c 1,32,33
 190 572 190 572 181 611 c 1,34,-1
 166 422 l 1,35,36
 208 469 208 469 217 469 c 0,37,38
 302 469 302 469 302 326 c 0,39,40
 302 179 302 179 131 16 c 1,41,42
 131 16 131 16 122 -95 c 1,43,-1
 89 -125 l 1,44,-1
 100 5 l 1,45,46
 38 70 38 70 9 70 c 2,47,48
 9 70 9 70 2 70 c 1,49,50
 2 93 2 93 15 123 c 0,51,52
 30 160 30 160 49 160 c 0,53,54
 54 160 54 160 58 176 c 0,55,56
 64 193 64 193 69 193 c 0,57,58
 70 193 70 193 75 175 c 0,59,60
 80 158 80 158 84 158 c 0,61,62
 92 154 92 154 98.5 151 c 128,-1,63
 105 148 105 148 112 145 c 1,0,1
140 126 m 1,64,65
 170 106 170 106 170 86 c 1,66,67
 223 110 223 110 223 221 c 0,68,69
 223 328 223 328 162 380 c 1,70,71
 162 380 162 380 140 126 c 1,64,65
133 407 m 1,72,73
 133 407 133 407 152 637 c 1,74,75
 117 666 117 666 107 666 c 256,76,77
 97 666 97 666 97 653 c 2,78,79
 97 653 97 653 97 458 c 2,80,81
 97 444 97 444 103 419 c 1,82,83
 112.1 404.3 112.1 404.3 123.16 404.3 c 0,84,85
 127.9 404.3 127.9 404.3 133 407 c 1,72,73
EndSplineSet
Validated: 1
EndChar

StartChar: percent
Encoding: 37 37 8
Width: 632
Flags: W
LayerCount: 2
Fore
SplineSet
439 115 m 2,0,1
 439 115 439 115 439 276 c 2,2,3
 439 317 439 317 493 358 c 0,4,5
 536 389 536 389 549 389 c 1,6,7
 549 389 549 389 549.5 386 c 128,-1,8
 550 383 550 383 551 376 c 0,9,10
 553 374 553 374 553 374 c 1,11,12
 563 374 563 374 585 340 c 0,13,14
 611 299 611 299 611 260 c 2,15,16
 611 260 611 260 611 190 c 2,17,18
 611 136 611 136 564 65 c 0,19,20
 522 1 522 1 506 1 c 0,21,22
 501 1 501 1 501 12 c 0,23,24
 501 14 501 14 500 14 c 0,25,26
 490 14 490 14 468 41 c 0,27,28
 439 76 439 76 439 115 c 2,0,1
492 331 m 2,29,30
 492 331 492 331 492 127 c 2,31,32
 492 110 492 110 508 85 c 0,33,34
 525 56 525 56 540 56 c 0,35,36
 547 56 547 56 553 78 c 128,-1,37
 559 100 559 100 559 130 c 2,38,39
 559 130 559 130 559 260 c 2,40,41
 559 279 559 279 539 311 c 0,42,43
 519 344 519 344 502 344 c 0,44,45
 492 344 492 344 492 331 c 2,29,30
0 -4 m 1,46,47
 61 90 61 90 180.5 275.5 c 128,-1,48
 300 461 300 461 479 736 c 1,49,50
 504 755 504 755 538 755 c 0,51,52
 556 755 556 755 569 750 c 1,53,54
 569 750 569 750 86 7 c 1,55,56
 60 -10 60 -10 30 -10 c 0,57,58
 13 -10 13 -10 0 -4 c 1,46,47
55 521 m 2,59,60
 55 521 55 521 55 680 c 2,61,62
 55 722 55 722 109 763 c 0,63,64
 150 794 150 794 165 794 c 0,65,66
 167 792 167 792 167 782 c 0,67,68
 167 780 167 780 169 780 c 0,69,70
 178 780 178 780 201 745 c 0,71,72
 227 704 227 704 227 666 c 2,73,74
 227 666 227 666 227 595 c 2,75,76
 227 542 227 542 180 469 c 0,77,78
 138 406 138 406 122 406 c 0,79,80
 117 406 117 406 117 413 c 256,81,82
 117 420 117 420 116 420 c 0,83,84
 107 420 107 420 84 446 c 0,85,86
 55 481 55 481 55 521 c 2,59,60
108 737 m 2,87,88
 108 737 108 737 108 533 c 2,89,90
 108 515 108 515 124 489 c 0,91,92
 140 462 140 462 156 462 c 0,93,94
 162 462 162 462 168.5 484 c 128,-1,95
 175 506 175 506 175 534 c 2,96,97
 175 534 175 534 175 666 c 2,98,99
 175 685 175 685 155 717 c 0,100,101
 135 750 135 750 118 750 c 0,102,103
 108 750 108 750 108 737 c 2,87,88
EndSplineSet
Validated: 1
EndChar

StartChar: ampersand
Encoding: 38 38 9
Width: 605
Flags: W
LayerCount: 2
Fore
SplineSet
366 234 m 1,0,1
 399 265 399 265 399 418 c 1,2,3
 379 422 379 422 364 422 c 0,4,5
 350 422 350 422 346 418 c 2,6,7
 346 418 346 418 343 415 c 1,8,9
 341 417 341 417 341 421 c 0,10,11
 341 437 341 437 355 479 c 0,12,13
 372 523 372 523 383 523 c 1,14,15
 382.808510638 523 382.808510638 523 382.808510638 522.963331824 c 0,16,17
 382.808510638 522.425531915 382.808510638 522.425531915 424 514 c 0,18,19
 452 508 452 508 478 508 c 0,20,21
 500 508 500 508 513 517 c 0,22,23
 524.266666667 524.8 524.266666667 524.8 524.266666667 525.84 c 0,24,25
 524.266666667 526 524.266666667 526 524 526 c 1,26,27
 525.894736842 526 525.894736842 526 525.894736842 521.811634349 c 0,28,29
 525.894736842 512.736842105 525.894736842 512.736842105 517 484 c 0,30,31
 503 441 503 441 490 428 c 0,32,33
 477.75 415.75 477.75 415.75 454.78125 415.75 c 0,34,35
 451.5 415.75 451.5 415.75 448 416 c 1,36,37
 448 301 448 301 373 223 c 1,38,39
 525 -34 525 -34 541 -34 c 0,40,41
 550 -34 550 -34 583 -23 c 1,42,43
 593.666666667 -23 593.666666667 -23 593.666666667 -28.6666666667 c 0,44,45
 593.666666667 -40 593.666666667 -40 551 -74 c 0,46,47
 486 -125 486 -125 471 -125 c 0,48,49
 451 -125 451 -125 300 145 c 1,50,51
 159 -5 159 -5 132 -5 c 0,52,53
 94 -5 94 -5 49 74 c 0,54,55
 0 162 0 162 0 258 c 0,56,57
 0 395 0 395 134 452 c 1,58,59
 80 551 80 551 80 612 c 0,60,61
 80 672 80 672 149 719 c 0,62,63
 205 756 205 756 253 756 c 0,64,65
 265 756 265 756 291 715 c 0,66,67
 323 663 323 663 323 610 c 0,68,69
 323 562 323 562 238 456 c 1,70,71
 238 456 238 456 366 234 c 1,0,1
141 439 m 1,72,73
 75 418 75 418 75 341 c 0,74,75
 75 206 75 206 123 143 c 0,76,77
 151 104 151 104 177 104 c 0,78,79
 221 104 221 104 292 157 c 1,80,81
 292 157 292 157 141 439 c 1,72,73
253 556 m 0,82,83
 253 589 253 589 230 649 c 0,84,85
 203 718 203 718 175 718 c 0,86,87
 166 718 166 718 157.5 701 c 128,-1,88
 149 684 149 684 149 662 c 0,89,90
 149 595 149 595 232 467 c 1,91,92
 253 498 253 498 253 556 c 0,82,83
EndSplineSet
Validated: 1
EndChar

StartChar: quotesingle
Encoding: 39 39 10
Width: 216
Flags: W
LayerCount: 2
Fore
SplineSet
131 630 m 0,0,1
 131 620 131 620 115 534 c 2,2,3
 115 534 115 534 99 445 c 1,4,-1
 67 630 l 2,5,6
 67 638 67 638 79 656 c 0,7,8
 91 675 91 675 99 675 c 0,9,10
 104 675 104 675 118 655 c 0,11,12
 131 636 131 636 131 630 c 0,0,1
EndSplineSet
Validated: 1
EndChar

StartChar: parenleft
Encoding: 40 40 11
Width: 243
Flags: W
LayerCount: 2
Fore
SplineSet
163 1 m 1,0,1
 163 1 163 1 85 -38 c 1,2,3
 9 84 9 84 9 268 c 0,4,5
 9 448 9 448 97 587 c 0,6,7
 116 616 116 616 137.5 643 c 128,-1,8
 159 670 159 670 185 694 c 1,9,10
 76 522 76 522 76 280 c 0,11,12
 76 137 76 137 163 1 c 1,0,1
EndSplineSet
Validated: 1
EndChar

StartChar: parenright
Encoding: 41 41 12
Width: 243
Flags: W
LayerCount: 2
Fore
SplineSet
85 652 m 1,0,1
 85 652 85 652 164 694 c 1,2,3
 239 568 239 568 239 385 c 0,4,5
 239 206 239 206 151 67 c 0,6,7
 132 37 132 37 110 11 c 128,-1,8
 88 -15 88 -15 63 -38 c 1,9,10
 172 132 172 132 172 373 c 0,11,12
 172 515 172 515 85 652 c 1,0,1
EndSplineSet
Validated: 1
EndChar

StartChar: asterisk
Encoding: 42 42 13
Width: 320
Flags: W
LayerCount: 2
Fore
SplineSet
302 292 m 1,0,1
 273 283 273 283 261 283 c 1,2,3
 261 283 261 283 179 346 c 1,4,-1
 193 238 l 2,5,6
 193 233 193 233 176 222 c 128,-1,7
 159 211 159 211 154 211 c 0,8,9
 151 211 151 211 151 213 c 2,10,11
 151 213 151 213 166 346 c 1,12,-1
 84 283 l 1,13,14
 76 283 76 283 60 286 c 0,15,16
 41 289 41 289 41 292 c 2,17,18
 41 292 41 292 164 358 c 1,19,-1
 44 424 l 2,20,21
 44 425 44 425 71 431 c 0,22,23
 76 432 76 432 79.5 432.5 c 128,-1,24
 83 433 83 433 85 433 c 2,25,26
 85 433 85 433 167 371 c 1,27,-1
 154 478 l 2,28,29
 154 484 154 484 170 494 c 0,30,31
 186 506 186 506 192 506 c 0,32,33
 195 506 195 506 195 503 c 2,34,35
 195 503 195 503 180 371 c 1,36,-1
 263 433 l 1,37,38
 271 433 271 433 288 430 c 128,-1,39
 305 427 305 427 305 424 c 2,40,41
 305 424 305 424 183 358 c 1,42,-1
 302 292 l 1,0,1
EndSplineSet
Validated: 1
EndChar

StartChar: plus
Encoding: 43 43 14
Width: 490
Flags: W
LayerCount: 2
Fore
SplineSet
451 366 m 1,0,1
 451 352 451 352 413 311 c 128,-1,2
 375 270 375 270 362 270 c 2,3,4
 362 270 362 270 290 270 c 1,5,-1
 290 199 l 2,6,7
 290 183 290 183 247 146 c 0,8,9
 205 110 205 110 194 110 c 1,10,11
 200 120 200 120 200 177 c 2,12,13
 200 177 200 177 200 270 c 1,14,-1
 107 270 l 2,15,16
 50 270 50 270 40 264 c 1,17,18
 40 277 40 277 77 318 c 0,19,20
 114 360 114 360 129 360 c 2,21,22
 129 360 129 360 200 360 c 1,23,-1
 200 432 l 2,24,25
 200 445 200 445 241 483 c 0,26,27
 284 521 284 521 296 521 c 1,28,29
 290 510 290 510 290 454 c 2,30,31
 290 454 290 454 290 360 c 1,32,-1
 384 360 l 2,33,34
 440 360 440 360 451 366 c 1,0,1
EndSplineSet
Validated: 1
EndChar

StartChar: comma
Encoding: 44 44 15
Width: 132
Flags: W
LayerCount: 2
Fore
SplineSet
18 88 m 1,0,1
 18 88 18 88 10 105 c 1,2,3
 45 131 45 131 80 131 c 0,4,5
 121.023255814 131 121.023255814 131 121.023255814 65.1719848567 c 0,6,7
 121.023255814 63.6046511628 121.023255814 63.6046511628 121 62 c 0,8,9
 119 14 119 14 100 -46 c 1,10,11
 100 -46 100 -46 64 -48 c 1,12,13
 73.6 16 73.6 16 73.6 30.08 c 0,14,15
 73.6 33.6 73.6 33.6 73 34 c 0,16,17
 71.1666666667 33.6666666667 71.1666666667 33.6666666667 68.9722222222 33.6666666667 c 0,18,19
 58 33.6666666667 58 33.6666666667 38 42 c 0,20,21
 25 50 25 50 18 88 c 1,0,1
EndSplineSet
Validated: 1
EndChar

StartChar: hyphen
Encoding: 45 45 16
Width: 475
Flags: W
LayerCount: 2
Fore
SplineSet
440 331 m 2,0,1
 440 331 440 331 225 331 c 2,2,3
 205 330 205 330 193 330 c 256,4,5
 181 330 181 330 176 330 c 0,6,7
 136 329 136 329 130 323 c 0,8,9
 126.8 319.8 126.8 319.8 126.8 315.32 c 0,10,11
 126.8 314.2 126.8 314.2 127 313 c 0,12,13
 123 306 123 306 117 306 c 0,14,15
 112 306 112 306 104 311 c 1,16,17
 84 347 84 347 11 397 c 1,18,19
 10.875 399.1875 10.875 399.1875 10.875 401.2421875 c 0,20,21
 10.875 432.0625 10.875 432.0625 39 433 c 0,22,23
 45 433 45 433 53 432.5 c 128,-1,24
 61 432 61 432 69 430.5 c 128,-1,25
 77 429 77 429 84 428 c 128,-1,26
 91 427 91 427 94 427 c 0,27,28
 128 425 128 425 159.5 424 c 128,-1,29
 191 423 191 423 221 422 c 0,30,31
 235.615384615 421.692307692 235.615384615 421.692307692 248.763313609 421.692307692 c 0,32,33
 321.076923077 421.692307692 321.076923077 421.692307692 349 431 c 0,34,35
 364 436 364 436 369 443 c 128,-1,36
 374 450 374 450 382 450 c 1,37,38
 382 450 382 450 390 440 c 1,39,40
 429 383 429 383 458 361 c 0,41,42
 465.347826087 355.347826087 465.347826087 355.347826087 465.347826087 349.695652174 c 0,43,44
 465.347826087 345.347826087 465.347826087 345.347826087 461 341 c 0,45,46
 451 331 451 331 440 331 c 2,0,1
EndSplineSet
Validated: 1
EndChar

StartChar: period
Encoding: 46 46 17
Width: 134
Flags: W
LayerCount: 2
Fore
SplineSet
10 105 m 1,0,1
 45 131 45 131 80 131 c 0,2,3
 117 131 117 131 117 94 c 0,4,5
 117 91 117 91 114.5 85.5 c 128,-1,6
 112 80 112 80 109 74 c 128,-1,7
 106 68 106 68 103.5 62 c 128,-1,8
 101 56 101 56 101 52 c 0,9,10
 101 47 101 47 107.5 45.5 c 128,-1,11
 114 44 114 44 116 42 c 2,12,-1
 124 25 l 1,13,14
 87 0 87 0 61 0 c 0,15,16
 18 0 18 0 18 38 c 0,17,18
 18 45 18 45 25.5 57 c 128,-1,19
 33 69 33 69 33 76 c 0,20,21
 33 88 33 88 18 88 c 1,22,-1
 10 105 l 1,0,1
EndSplineSet
Validated: 1
EndChar

StartChar: slash
Encoding: 47 47 18
Width: 592
Flags: W
LayerCount: 2
Fore
SplineSet
0 0 m 1,0,1
 34 53 34 53 154.5 238.5 c 128,-1,2
 275 424 275 424 481 742 c 1,3,4
 506 761 506 761 540 761 c 0,5,6
 558 761 558 761 571 756 c 1,7,8
 571 756 571 756 88 13 c 1,9,10
 62 -4 62 -4 32 -4 c 0,11,12
 11 -4 11 -4 0 0 c 1,0,1
EndSplineSet
Validated: 1
EndChar

StartChar: zero
Encoding: 48 48 19
Width: 478
Flags: W
LayerCount: 2
Fore
SplineSet
239 789 m 0,0,1
 346 789 346 789 411 666 c 0,2,3
 468 553 468 553 468 395 c 0,4,5
 468 231 468 231 401 116 c 128,-1,6
 334 1 334 1 239 1 c 256,7,8
 144 1 144 1 77 116 c 128,-1,9
 10 231 10 231 10 395 c 0,10,11
 10 554 10 554 73 670 c 0,12,13
 139 789 139 789 239 789 c 0,0,1
241 780 m 0,14,15
 184 780 184 780 154 705 c 0,16,17
 118 613 118 613 118 398 c 0,18,19
 118 159 118 159 154 77 c 0,20,21
 181 16 181 16 241 16 c 0,22,23
 300 16 300 16 329 90 c 0,24,25
 365 184 365 184 365 398 c 0,26,27
 365 609 365 609 329 704 c 0,28,29
 299 780 299 780 241 780 c 0,14,15
EndSplineSet
Validated: 1
EndChar

StartChar: one
Encoding: 49 49 20
Width: 172
Flags: W
LayerCount: 2
Fore
SplineSet
136 604 m 2,0,1
 136 604 136 604 136 103 c 2,2,3
 136 23 136 23 162 12 c 1,4,5
 158 2 158 2 149 2 c 0,6,7
 143 2 143 2 137 7 c 128,-1,8
 131 12 131 12 126 12 c 0,9,10
 85 12 85 12 60 -45 c 0,11,12
 49 -80 49 -80 18 -154 c 0,13,14
 -10 -212 -10 -212 -64 -212 c 0,15,16
 -85 -212 -85 -212 -102.5 -199 c 128,-1,17
 -120 -186 -120 -186 -120 -166 c 0,18,19
 -120 -133 -120 -133 -97 -133 c 0,20,21
 -86 -133 -86 -133 -73.5 -142.5 c 128,-1,22
 -61 -152 -61 -152 -62 -163 c 0,23,24
 -63 -172 -63 -172 -73 -178.5 c 128,-1,25
 -83 -185 -83 -185 -83 -190 c 0,26,27
 -83 -196 -83 -196 -62 -196 c 0,28,29
 -7 -196 -7 -196 22 -101 c 0,30,31
 47 -23 47 -23 47 84 c 2,32,33
 47 84 47 84 47 590 c 2,34,35
 47 604 47 604 36.5 611 c 128,-1,36
 26 618 26 618 15 625 c 0,37,38
 9 628 9 628 10 635 c 1,39,40
 108 685 108 685 130 792 c 1,41,42
 130 792 130 792 146 792 c 1,43,44
 141 766 141 766 138.5 719 c 128,-1,45
 136 672 136 672 136 604 c 2,0,1
EndSplineSet
Validated: 1
EndChar

StartChar: two
Encoding: 50 50 21
Width: 502
Flags: W
LayerCount: 2
Fore
SplineSet
26 10 m 1,0,1
 16 11 16 11 14 20 c 2,2,3
 14 20 14 20 10 30 c 1,4,5
 11 127 11 127 108 228 c 0,6,7
 136 258 136 258 198 312 c 0,8,9
 259 366 259 366 286 394 c 0,10,11
 382 491 382 491 382 576 c 0,12,13
 382 664 382 664 343 717 c 0,14,15
 300 775 300 775 216 775 c 0,16,17
 141 775 141 775 92 721 c 0,18,19
 47 671 47 671 47 609 c 0,20,21
 47 560 47 560 72 520 c 128,-1,22
 97 480 97 480 142 462 c 0,23,24
 170 450 170 450 200 450 c 0,25,26
 225 450 225 450 254 467 c 0,27,28
 282 483 282 483 282 508 c 0,29,30
 282 529 282 529 255 540 c 2,31,32
 255 540 255 540 210 554 c 0,33,34
 138 576 138 576 136 629 c 0,35,36
 135.96969697 629.96969697 135.96969697 629.96969697 135.96969697 630.928374656 c 0,37,38
 135.96969697 661.606060606 135.96969697 661.606060606 167 681 c 1,39,40
 170 681.2 170 681.2 172.44 681.2 c 0,41,42
 182.2 681.2 182.2 681.2 183 678 c 0,43,44
 183.0625 677.625 183.0625 677.625 183.0625 677.20703125 c 0,45,46
 183.0625 670.9375 183.0625 670.9375 169 655 c 0,47,48
 162 648 162 648 162 644 c 0,49,50
 162 632 162 632 193 625 c 0,51,52
 204 623 204 623 214.5 621 c 128,-1,53
 225 619 225 619 236 617 c 0,54,55
 309 598 309 598 309 537 c 0,56,57
 309 501 309 501 274 468 c 128,-1,58
 239 435 239 435 200 435 c 0,59,60
 127 435 127 435 81 486 c 0,61,62
 36 537 36 537 36 610 c 0,63,64
 36 667 36 667 68.5 710.5 c 128,-1,65
 101 754 101 754 155 776 c 0,66,67
 192 791 192 791 241 791 c 0,68,69
 374 791 374 791 439 717 c 0,70,71
 492 655 492 655 492 554 c 0,72,73
 492 469 492 469 380 390 c 0,74,75
 363 379 363 379 337 362.5 c 128,-1,76
 311 346 311 346 276 324 c 0,77,78
 241 303 241 303 214 286.5 c 128,-1,79
 187 270 187 270 170 257 c 0,80,81
 56 175 56 175 53 85 c 1,82,83
 115 147 115 147 184 147 c 0,84,85
 228 147 228 147 309 107 c 0,86,87
 393 68 393 68 414 68 c 0,88,89
 460 68 460 68 460 120 c 0,90,91
 460 137 460 137 432 147 c 0,92,93
 421 151 421 151 410.5 154.5 c 128,-1,94
 400 158 400 158 389 162 c 0,95,96
 319 187 319 187 319 244 c 0,97,98
 319 286 319 286 345 298 c 1,99,100
 356 293 356 293 357 291 c 0,101,102
 357.25 290.625 357.25 290.625 357.25 290.125 c 0,103,104
 357.25 286.625 357.25 286.625 345 277 c 0,105,106
 340 272 340 272 340 266 c 0,107,108
 340 238 340 238 403 225 c 0,109,110
 436 218 436 218 458.5 189.5 c 128,-1,111
 481 161 481 161 481 128 c 0,112,113
 481 81 481 81 431 40 c 0,114,115
 382 0 382 0 330 0 c 0,116,117
 295 0 295 0 247 23 c 0,118,119
 228 34 228 34 209.5 45 c 128,-1,120
 191 56 191 56 172 67 c 0,121,122
 148 79 148 79 120 79 c 0,123,124
 50 79 50 79 26 10 c 1,0,1
EndSplineSet
Validated: 1
EndChar

StartChar: three
Encoding: 51 51 22
Width: 476
Flags: W
LayerCount: 2
Fore
SplineSet
209 16 m 0,0,1
 289 16 289 16 327 87 c 0,2,3
 356 143 356 143 356 221 c 0,4,5
 356 410 356 410 239 430 c 0,6,7
 235 431 235 431 230 431 c 0,8,9
 227 430 227 430 222 430 c 0,10,11
 196 430 196 430 196 441 c 0,12,13
 196 451 196 451 204 451 c 0,14,15
 209 451 209 451 211 448 c 128,-1,16
 213 445 213 445 216 445 c 0,17,18
 286 445 286 445 321 505 c 0,19,20
 345 548 345 548 345 618 c 0,21,22
 345 687 345 687 300 731 c 0,23,24
 259 770 259 770 204 770 c 0,25,26
 148 770 148 770 107 729 c 0,27,28
 68 688 68 688 68 631 c 0,29,30
 68 601 68 601 98 573 c 0,31,32
 125 545 125 545 155 545 c 0,33,34
 199 545 199 545 199 574 c 0,35,36
 199 587 199 587 172 610 c 0,37,38
 146 633 146 633 146 660 c 0,39,40
 146 672 146 672 152 684 c 128,-1,41
 158 696 158 696 167.5 705.5 c 128,-1,42
 177 715 177 715 189.5 721 c 128,-1,43
 202 727 202 727 214 728 c 1,44,45
 226 722 226 722 226 719 c 0,46,47
 224 713 224 713 206 705 c 0,48,49
 199 701 199 701 199 694 c 0,50,51
 199 678 199 678 212.5 662.5 c 128,-1,52
 226 647 226 647 239 633 c 0,53,54
 246 623 246 623 246 601 c 0,55,56
 246 574 246 574 219 549 c 0,57,58
 193 524 193 524 162 524 c 0,59,60
 118 524 118 524 87 558 c 0,61,62
 57 592 57 592 57 636 c 0,63,64
 57 685 57 685 102 738 c 0,65,66
 149 791 149 791 202 791 c 0,67,68
 434 791 434 791 434 609 c 0,69,70
 434 551 434 551 388 502 c 0,71,72
 347 458 347 458 287 440 c 1,73,74
 381 424 381 424 423.5 372.5 c 128,-1,75
 466 321 466 321 466 224 c 0,76,77
 466 131 466 131 402 70 c 0,78,79
 332 0 332 0 207 0 c 0,80,81
 148 0 148 0 100 27 c 0,82,83
 49 56 49 56 25 106 c 0,84,85
 10 137 10 137 10 174 c 0,86,87
 10 239 10 239 52 287 c 0,88,89
 95 335 95 335 158 335 c 0,90,91
 204 335 204 335 241 306 c 0,92,93
 277 277 277 277 277 232 c 0,94,95
 277 185 277 185 217 158 c 0,96,97
 208 154 208 154 199 150 c 128,-1,98
 190 146 190 146 181 142 c 0,99,100
 157 130 157 130 157 117 c 0,101,102
 157 101 157 101 178 94 c 1,103,104
 173 86 173 86 167 86 c 0,105,106
 158 86 158 86 145 104 c 0,107,108
 125 133 125 133 125 149 c 0,109,110
 125 186 125 186 183 214 c 0,111,112
 199 222 199 222 208.5 227 c 128,-1,113
 218 232 218 232 220 234 c 0,114,115
 241 247 241 247 241 267 c 0,116,117
 241 291 241 291 203 308 c 0,118,119
 171 320 171 320 137 320 c 0,120,121
 100 320 100 320 60 271 c 0,122,123
 21 223 21 223 21 178 c 0,124,125
 21 101 21 101 85 55 c 0,126,127
 140 16 140 16 209 16 c 0,0,1
EndSplineSet
Validated: 1
EndChar

StartChar: four
Encoding: 52 52 23
Width: 468
Flags: W
LayerCount: 2
Fore
SplineSet
11 262 m 1,0,1
 11 262 11 262 17 267 c 2,2,3
 119 352 119 352 168 421 c 0,4,5
 237 518 237 518 237 615 c 0,6,7
 237 703 237 703 204 744 c 0,8,9
 179 775 179 775 126 775 c 0,10,11
 83 775 83 775 55 747 c 128,-1,12
 27 719 27 719 27 676 c 0,13,14
 27 661 27 661 36.5 647.5 c 128,-1,15
 46 634 46 634 60 634 c 0,16,17
 80 634 80 634 105 647 c 128,-1,18
 130 660 130 660 150 660 c 0,19,20
 199 660 199 660 221 608 c 1,21,22
 221.333333333 602.666666667 221.333333333 602.666666667 221.333333333 599 c 0,23,24
 221.333333333 591.666666667 221.333333333 591.666666667 220 591 c 0,25,26
 219.777777778 590.944444444 219.777777778 590.944444444 219.509259259 590.944444444 c 0,27,28
 214.944444444 590.944444444 214.944444444 590.944444444 197 607 c 0,29,30
 189 613 189 613 186 613 c 0,31,32
 169 613 169 613 141 597 c 128,-1,33
 113 581 113 581 96 581 c 0,34,35
 63 581 63 581 37 613 c 128,-1,36
 11 645 11 645 11 679 c 256,37,38
 11 713 11 713 30 741.5 c 128,-1,39
 49 770 49 770 81 783 c 0,40,41
 102 791 102 791 119 791 c 0,42,43
 201 791 201 791 236 744 c 0,44,45
 268 703 268 703 268 618 c 0,46,47
 268 542 268 542 214 457 c 0,48,49
 180 403 180 403 99 308 c 1,50,51
 125 309 125 309 153 309.5 c 128,-1,52
 181 310 181 310 210 310 c 256,53,54
 239 310 239 310 265 310 c 0,55,56
 292 310 292 310 316 309 c 1,57,58
 316 309 316 309 316 581 c 1,59,60
 355 584 355 584 378 647 c 0,61,62
 393 690 393 690 396 744 c 1,63,64
 403 744 403 744 408 739 c 1,65,66
 408 739 408 739 408 306 c 1,67,68
 415 306 415 306 425 305.5 c 128,-1,69
 435 305 435 305 449 304 c 1,70,71
 458 280 458 280 458 269 c 0,72,73
 458 242 458 242 442 241 c 0,74,75
 438 240 438 240 434 240 c 0,76,77
 434 240 434 240 426 241 c 0,78,79
 421 242 421 242 417 242 c 256,80,81
 413 242 413 242 408 243 c 1,82,83
 408 243 408 243 408 112 c 1,84,-1
 433 117 l 1,85,86
 440 113 440 113 440 107 c 0,87,88
 440 102 440 102 435 94 c 1,89,90
 399 74 399 74 349 1 c 1,91,92
 347.35 0.95 347.35 0.95 345.7825 0.95 c 0,93,94
 316 0.95 316 0.95 316 19 c 2,95,96
 316 19 316 19 317 246 c 1,97,98
 281 247 281 247 245 247.5 c 128,-1,99
 209 248 209 248 172 248 c 0,100,101
 135 247 135 247 98 247 c 256,102,103
 61 247 61 247 24 246 c 1,104,105
 10.7647058824 253.058823529 10.7647058824 253.058823529 10.7647058824 260.117647059 c 0,106,107
 10.7647058824 261.058823529 10.7647058824 261.058823529 11 262 c 1,0,1
EndSplineSet
Validated: 1
EndChar

StartChar: five
Encoding: 53 53 24
Width: 481
Flags: W
LayerCount: 2
Fore
SplineSet
333 576 m 1,0,1
 319 584 319 584 319 598 c 0,2,3
 318.84 599.52 318.84 599.52 318.84 600.9888 c 0,4,5
 318.84 617.88 318.84 617.88 340 628 c 0,6,7
 343 630 343 630 352.5 633 c 128,-1,8
 362 636 362 636 379 641 c 0,9,10
 439 660 439 660 439 699 c 0,11,12
 439 754 439 754 393 754 c 0,13,14
 365 754 365 754 337 736 c 0,15,16
 325 729 325 729 289 699 c 0,17,18
 222 644 222 644 149 644 c 0,19,20
 143 644 143 644 133 646 c 128,-1,21
 123 648 123 648 113 650 c 128,-1,22
 103 652 103 652 93.5 654.5 c 128,-1,23
 84 657 84 657 78 657 c 1,24,25
 78 657 78 657 79 467 c 1,26,27
 96 476 96 476 114 485 c 128,-1,28
 132 494 132 494 149 504 c 0,29,30
 183 519 183 519 227 519 c 0,31,32
 318 519 318 519 392 454 c 0,33,34
 471 382 471 382 471 272 c 0,35,36
 471 157 471 157 406 80 c 0,37,38
 337 0 337 0 225 0 c 0,39,40
 147 0 147 0 83 49 c 0,41,42
 10 104 10 104 10 188 c 0,43,44
 10 258 10 258 50 304 c 0,45,46
 91 351 91 351 157 351 c 0,47,48
 196 351 196 351 231 322 c 0,49,50
 267 293 267 293 267 254 c 0,51,52
 267 191 267 191 204 172 c 0,53,54
 194 170 194 170 185 167 c 128,-1,55
 176 164 176 164 166 162 c 0,56,57
 141 153 141 153 141 140 c 0,58,59
 141 124 141 124 157 120 c 1,60,61
 153 113.6 153 113.6 147.08 113.6 c 0,62,63
 145.6 113.6 145.6 113.6 144 114 c 0,64,65
 126 118 126 118 111 141 c 0,66,67
 104 149 104 149 104 157 c 0,68,69
 104 215 104 215 170 235 c 0,70,71
 180 238 180 238 190 241 c 128,-1,72
 200 244 200 244 211 247 c 0,73,74
 235 257 235 257 235 277 c 0,75,76
 235 302 235 302 209 317 c 0,77,78
 187 330 187 330 160 330 c 0,79,80
 88 330 88 330 54 284 c 0,81,82
 26 247 26 247 26 189 c 0,83,84
 26 135 26 135 55.5 95 c 128,-1,85
 85 55 85 55 136 37 c 0,86,87
 167 26 167 26 195 26 c 0,88,89
 295 26 295 26 335 108 c 0,90,91
 361 162 361 162 361 261 c 0,92,93
 361 374 361 374 333 427 c 0,94,95
 295 498 295 498 199 498 c 0,96,97
 167 498 167 498 130 475 c 0,98,99
 114 465 114 465 99 455 c 128,-1,100
 84 445 84 445 68 435 c 1,101,102
 68 435 68 435 63 460 c 1,103,104
 63 460 63 460 63 782 c 2,105,106
 63 784.25 63 784.25 66.375 784.25 c 0,107,108
 67.5 784.25 67.5 784.25 69 784 c 2,109,110
 69 784 69 784 78 781 c 1,111,112
 116.35483871 753.870967742 116.35483871 753.870967742 163.460978148 753.870967742 c 0,113,114
 166.709677419 753.870967742 166.709677419 753.870967742 170 754 c 0,115,116
 205 755 205 755 264 772 c 0,117,118
 321 789 321 789 358 791 c 0,119,120
 359.48 791.04 359.48 791.04 360.952 791.04 c 0,121,122
 396.28 791.04 396.28 791.04 427 768 c 0,123,124
 460 744 460 744 460 699 c 0,125,126
 460 651 460 651 395 630 c 0,127,128
 385 627 385 627 375.5 624 c 128,-1,129
 366 621 366 621 356 619 c 0,130,131
 329 608 329 608 329 595 c 0,132,133
 329 587 329 587 340 587 c 1,134,135
 340.111111111 586.333333333 340.111111111 586.333333333 340.111111111 585.679012346 c 0,136,137
 340.111111111 580.444444444 340.111111111 580.444444444 333 576 c 1,0,1
EndSplineSet
Validated: 1
EndChar

StartChar: six
Encoding: 54 54 25
Width: 480
Flags: W
LayerCount: 2
Fore
SplineSet
195 659 m 0,0,1
 200 677 200 677 217.5 689 c 128,-1,2
 235 701 235 701 254 701 c 0,3,4
 298 701 298 701 324 651 c 0,5,6
 338 621 338 621 341 618 c 0,7,8
 355 601 355 601 372 601 c 0,9,10
 417 601 417 601 417 666 c 0,11,12
 417 707 417 707 377 741 c 0,13,14
 339 775 339 775 280 775 c 0,15,16
 217 775 217 775 174 700 c 0,17,18
 118 599 118 599 118 397 c 0,19,20
 118 157 118 157 154 75 c 0,21,22
 179 15 179 15 241 15 c 0,23,24
 296 15 296 15 326 53 c 0,25,26
 346 81 346 81 360 143 c 0,27,28
 370 193 370 193 370 284 c 256,29,30
 370 375 370 375 356 420 c 0,31,32
 333 491 333 491 269 491 c 0,33,34
 255 491 255 491 242.5 484.5 c 128,-1,35
 230 478 230 478 219.5 468 c 128,-1,36
 209 458 209 458 203 444.5 c 128,-1,37
 197 431 197 431 197 418 c 0,38,39
 197 390 197 390 216 365 c 0,40,41
 223 354 223 354 255 322 c 0,42,43
 313 263 313 263 313 211 c 0,44,45
 313 186 313 186 299 167 c 128,-1,46
 285 148 285 148 261 146 c 0,47,48
 249 149 249 149 249 156 c 1,49,50
 292 160 292 160 292 186 c 0,51,52
 292 210 292 210 269 231 c 0,53,54
 258 239 258 239 248 247 c 128,-1,55
 238 255 238 255 227 263 c 0,56,57
 161 312 161 312 161 383 c 0,58,59
 161 437 161 437 190 472 c 128,-1,60
 219 507 219 507 270 507 c 0,61,62
 333 507 333 507 383 469 c 0,63,64
 431 431 431 431 454 372 c 0,65,66
 470 333 470 333 470 283 c 0,67,68
 470 146 470 146 402 69 c 0,69,70
 339 0 339 0 239 0 c 0,71,72
 140 0 140 0 77 101 c 0,73,74
 10 207 10 207 10 394 c 0,75,76
 10 504 10 504 50 597 c 0,77,78
 94 704 94 704 177 757 c 0,79,80
 228 790 228 790 287 790 c 0,81,82
 384 790 384 790 419 713 c 0,83,84
 428 690 428 690 428 667 c 0,85,86
 428 622 428 622 404.5 593.5 c 128,-1,87
 381 565 381 565 339 565 c 0,88,89
 290 565 290 565 245 654 c 0,90,91
 236 670 236 670 227 670 c 0,92,93
 220 670 220 670 216 663 c 2,94,95
 216 663 216 663 208 649 c 1,96,97
 195 650 195 650 195 659 c 0,0,1
EndSplineSet
Validated: 1
EndChar

StartChar: seven
Encoding: 55 55 26
Width: 476
Flags: W
LayerCount: 2
Fore
SplineSet
466 786 m 1,0,1
 440 738 440 738 393 668 c 0,2,3
 364 623 364 623 344.5 594.5 c 128,-1,4
 325 566 325 566 317 552 c 0,5,6
 230 409 230 409 230 304 c 0,7,8
 230 230 230 230 257 169 c 0,9,10
 287.563380282 99.985915493 287.563380282 99.985915493 321.042848641 99.985915493 c 0,11,12
 321.521126761 99.985915493 321.521126761 99.985915493 322 100 c 0,13,14
 323 100 323 100 361 115 c 1,15,16
 362.641025641 113.358974359 362.641025641 113.358974359 362.641025641 109.866535174 c 0,17,18
 362.641025641 96.3333333333 362.641025641 96.3333333333 338 55 c 0,19,20
 307 0 307 0 286 0 c 0,21,22
 228 0 228 0 190 68 c 0,23,24
 152 133 152 133 152 221 c 0,25,26
 152 346 152 346 233 474 c 0,27,28
 261 517 261 517 317 591 c 0,29,30
 348 631 348 631 369 660 c 128,-1,31
 390 689 390 689 402 708 c 1,32,33
 389 707 389 707 376 700 c 2,34,35
 376 700 376 700 351 688 c 2,36,37
 317 671 317 671 279 671 c 0,38,39
 247 671 247 671 187 694 c 0,40,41
 128 718 128 718 96 718 c 0,42,43
 68 718 68 718 43 697 c 0,44,45
 18.8571428571 677.5 18.8571428571 677.5 18.8571428571 652.826530612 c 0,46,47
 18.8571428571 650.928571429 18.8571428571 650.928571429 19 649 c 0,48,49
 21 629 21 629 32 610 c 0,50,51
 46 587 46 587 63 587 c 0,52,53
 76 587 76 587 96 598 c 0,54,55
 110 607 110 607 127 617 c 0,56,57
 137 623 137 623 157 623 c 0,58,59
 159.352941176 623.078431373 159.352941176 623.078431373 161.636678201 623.078431373 c 0,60,61
 217.588235294 623.078431373 217.588235294 623.078431373 232 576 c 1,62,63
 230 567 230 567 224 567 c 0,64,65
 222 567 222 567 213.5 571.5 c 128,-1,66
 205 576 205 576 199 576 c 0,67,68
 179 576 179 576 148 555 c 0,69,70
 116 534 116 534 101 534 c 0,71,72
 58 534 58 534 33 573 c 0,73,74
 10 608 10 608 10 651 c 0,75,76
 10 696 10 696 36.5 730 c 128,-1,77
 63 764 63 764 106 780 c 0,78,79
 137 791 137 791 174 791 c 0,80,81
 205 791 205 791 277 767 c 0,82,83
 351 744 351 744 386 744 c 0,84,85
 413 744 413 744 443 774 c 1,86,87
 444 789 444 789 459 789 c 0,88,89
 463 789 463 789 466 786 c 1,0,1
EndSplineSet
Validated: 1
EndChar

StartChar: eight
Encoding: 56 56 27
Width: 487
Flags: W
LayerCount: 2
Fore
SplineSet
450 603 m 0,0,1
 450 503 450 503 358 444 c 1,2,3
 476 375 476 375 476 239 c 0,4,5
 476 166 476 166 440.5 108.5 c 128,-1,6
 405 51 405 51 341 22 c 0,7,8
 294 1 294 1 229 1 c 0,9,10
 178 1 178 1 137.5 16 c 128,-1,11
 97 31 97 31 68.5 59.5 c 128,-1,12
 40 88 40 88 25 127.5 c 128,-1,13
 10 167 10 167 10 217 c 0,14,15
 10 355 10 355 141 420 c 1,16,17
 36 481 36 481 36 584 c 0,18,19
 36 678 36 678 95 735 c 0,20,21
 153 792 153 792 246 792 c 0,22,23
 324 792 324 792 384 744 c 0,24,25
 450 690 450 690 450 603 c 0,0,1
408 176 m 0,26,27
 408 267 408 267 327 324 c 0,28,29
 296 346 296 346 247 368 c 0,30,31
 210 385 210 385 189.5 395 c 128,-1,32
 169 405 169 405 164 407 c 0,33,34
 71 377 71 377 48 273 c 0,35,36
 42 244 42 244 42 217 c 0,37,38
 42 129 42 129 104 70 c 0,39,40
 162 17 162 17 235 17 c 0,41,42
 299 17 299 17 353 65 c 0,43,44
 408 113 408 113 408 176 c 0,26,27
99 635 m 0,45,46
 99 566 99 566 178 524 c 0,47,48
 191 516 191 516 211 507 c 128,-1,49
 231 498 231 498 258 487 c 128,-1,50
 285 476 285 476 305 468 c 128,-1,51
 325 460 325 460 338 453 c 1,52,53
 375 478 375 478 399 518 c 128,-1,54
 423 558 423 558 423 601 c 0,55,56
 423 655 423 655 392.5 699.5 c 128,-1,57
 362 744 362 744 311 765 c 0,58,59
 281 778 281 778 248 778 c 0,60,61
 174 778 174 778 134 733 c 0,62,63
 99 693 99 693 99 635 c 0,45,46
EndSplineSet
Validated: 1
EndChar

StartChar: nine
Encoding: 57 57 28
Width: 480
Flags: W
LayerCount: 2
Fore
SplineSet
285 131 m 0,0,1
 280 113 280 113 262.5 101 c 128,-1,2
 245 89 245 89 226 89 c 0,3,4
 181 89 181 89 157 139 c 0,5,6
 143 167 143 167 139 172 c 0,7,8
 125 189 125 189 108 189 c 0,9,10
 63 189 63 189 63 124 c 0,11,12
 63 83 63 83 102 49 c 0,13,14
 142 15 142 15 200 15 c 0,15,16
 263 15 263 15 306 91 c 0,17,18
 362 191 362 191 362 393 c 0,19,20
 362 632 362 632 326 715 c 0,21,22
 300 775 300 775 239 775 c 0,23,24
 184 775 184 775 154 737 c 0,25,26
 133 708 133 708 121 647 c 0,27,28
 110 592 110 592 110 506 c 0,29,30
 110 415 110 415 124 370 c 0,31,32
 147 299 147 299 211 299 c 0,33,34
 224 299 224 299 237 305.5 c 128,-1,35
 250 312 250 312 260.5 322 c 128,-1,36
 271 332 271 332 277 345 c 128,-1,37
 283 358 283 358 283 372 c 0,38,39
 283 400 283 400 264 425 c 0,40,41
 260 431 260 431 250.5 441.5 c 128,-1,42
 241 452 241 452 226 468 c 0,43,44
 167 529 167 529 167 579 c 0,45,46
 167 604 167 604 181 623 c 128,-1,47
 195 642 195 642 219 644 c 0,48,49
 231 641 231 641 231 634 c 1,50,51
 188 630 188 630 188 604 c 0,52,53
 188 580 188 580 211 559 c 0,54,55
 231 544 231 544 254 528 c 0,56,57
 319 478 319 478 319 407 c 0,58,59
 319 354 319 354 291 320 c 0,60,61
 261 283 261 283 210 283 c 0,62,63
 147 283 147 283 98.5 320.5 c 128,-1,64
 50 358 50 358 26 418 c 0,65,66
 10 457 10 457 10 507 c 0,67,68
 10 644 10 644 79 721 c 0,69,70
 140 790 140 790 241 790 c 0,71,72
 340 790 340 790 403 690 c 0,73,74
 470 584 470 584 470 396 c 0,75,76
 470 286 470 286 430 193 c 0,77,78
 386 86 386 86 303 33 c 0,79,80
 252 0 252 0 193 0 c 0,81,82
 95 0 95 0 62 77 c 0,83,84
 52 98 52 98 52 123 c 0,85,86
 52 168 52 168 75.5 196.5 c 128,-1,87
 99 225 99 225 141 225 c 0,88,89
 190 225 190 225 236 137 c 0,90,91
 244 120 244 120 253 120 c 0,92,93
 260 120 260 120 264 127 c 2,94,95
 264 127 264 127 272 141 c 1,96,97
 285 140 285 140 285 131 c 0,0,1
EndSplineSet
Validated: 1
EndChar

StartChar: colon
Encoding: 58 58 29
Width: 135
Flags: W
LayerCount: 2
Fore
SplineSet
10 105 m 1,0,1
 45 131 45 131 80 131 c 0,2,3
 117 131 117 131 117 94 c 0,4,5
 117 91 117 91 114.5 85.5 c 128,-1,6
 112 80 112 80 109 74 c 128,-1,7
 106 68 106 68 103.5 62 c 128,-1,8
 101 56 101 56 101 52 c 0,9,10
 101 47 101 47 107.5 45.5 c 128,-1,11
 114 44 114 44 116 42 c 2,12,-1
 124 25 l 1,13,14
 87 0 87 0 61 0 c 0,15,16
 18 0 18 0 18 38 c 0,17,18
 18 45 18 45 25.5 57 c 128,-1,19
 33 69 33 69 33 76 c 0,20,21
 33 88 33 88 18 88 c 1,22,-1
 10 105 l 1,0,1
11 533 m 1,23,24
 46 559 46 559 81 559 c 0,25,26
 118 559 118 559 118 522 c 0,27,28
 118 519 118 519 115.5 513.5 c 128,-1,29
 113 508 113 508 110 502 c 128,-1,30
 107 496 107 496 104.5 490 c 128,-1,31
 102 484 102 484 102 480 c 0,32,33
 102 470 102 470 117 470 c 1,34,-1
 125 453 l 1,35,36
 88 428 88 428 62 428 c 0,37,38
 19 428 19 428 19 466 c 0,39,40
 19 473 19 473 26.5 485 c 128,-1,41
 34 497 34 497 34 504 c 0,42,43
 34 516 34 516 19 516 c 1,44,-1
 11 533 l 1,23,24
EndSplineSet
Validated: 1
EndChar

StartChar: semicolon
Encoding: 59 59 30
Width: 135
Flags: W
LayerCount: 2
Fore
SplineSet
18 88 m 1,0,1
 18 88 18 88 10 105 c 1,2,3
 45 131 45 131 80 131 c 0,4,5
 121.023255814 131 121.023255814 131 121.023255814 65.1719848567 c 0,6,7
 121.023255814 63.6046511628 121.023255814 63.6046511628 121 62 c 0,8,9
 119 14 119 14 100 -46 c 1,10,11
 100 -46 100 -46 64 -48 c 1,12,13
 73.6 16 73.6 16 73.6 30.08 c 0,14,15
 73.6 33.6 73.6 33.6 73 34 c 0,16,17
 71.1666666667 33.6666666667 71.1666666667 33.6666666667 68.9722222222 33.6666666667 c 0,18,19
 58 33.6666666667 58 33.6666666667 38 42 c 0,20,21
 25 50 25 50 18 88 c 1,0,1
11 533 m 1,22,23
 46 559 46 559 81 559 c 0,24,25
 118 559 118 559 118 522 c 0,26,27
 118 519 118 519 115.5 513.5 c 128,-1,28
 113 508 113 508 110 502 c 128,-1,29
 107 496 107 496 104.5 490 c 128,-1,30
 102 484 102 484 102 480 c 0,31,32
 102 470 102 470 117 470 c 1,33,-1
 125 453 l 1,34,35
 88 428 88 428 62 428 c 0,36,37
 19 428 19 428 19 466 c 0,38,39
 19 473 19 473 26.5 485 c 128,-1,40
 34 497 34 497 34 504 c 0,41,42
 34 516 34 516 19 516 c 1,43,-1
 11 533 l 1,22,23
EndSplineSet
Validated: 1
EndChar

StartChar: less
Encoding: 60 60 31
Width: 298
Flags: W
LayerCount: 2
Fore
SplineSet
0 270 m 0,0,1
 0 362 0 362 72 449 c 0,2,3
 145 540 145 540 232 540 c 0,4,5
 249.779220779 540 249.779220779 540 249.779220779 527.9932535 c 0,6,7
 249.779220779 515.012987013 249.779220779 515.012987013 229 488 c 0,8,9
 215 470 215 470 191.5 446 c 128,-1,10
 168 422 168 422 135 392 c 0,11,12
 78.0344827586 337.931034483 78.0344827586 337.931034483 76.0701545779 337.931034483 c 0,13,14
 76 337.931034483 76 337.931034483 76 338 c 1,15,16
 76 245 76 245 232 65 c 1,17,18
 218 54 218 54 196 38 c 128,-1,19
 174 22 174 22 144 0 c 0,20,21
 143.926470588 -0.0294117647059 143.926470588 -0.0294117647059 143.838884083 -0.0294117647059 c 0,22,23
 137.970588235 -0.0294117647059 137.970588235 -0.0294117647059 69 132 c 0,24,25
 0 265 0 265 0 270 c 0,0,1
EndSplineSet
Validated: 1
EndChar

StartChar: equal
Encoding: 61 61 32
Width: 490
Flags: W
LayerCount: 2
Fore
SplineSet
450 454 m 1,0,1
 450 439 450 439 413 398 c 0,2,3
 375 357 375 357 361 357 c 2,4,5
 361 357 361 357 107 357 c 2,6,7
 50 357 50 357 40 351 c 1,8,9
 40 364 40 364 77 405 c 0,10,11
 114 447 114 447 129 447 c 2,12,13
 129 447 129 447 383 447 c 2,14,15
 443 447 443 447 450 454 c 1,0,1
450 283 m 1,16,17
 450 268 450 268 413 227 c 0,18,19
 375 186 375 186 361 186 c 2,20,21
 361 186 361 186 107 186 c 2,22,23
 50 186 50 186 40 180 c 1,24,25
 40 193 40 193 77 234 c 0,26,27
 114 276 114 276 129 276 c 2,28,29
 129 276 129 276 383 276 c 2,30,31
 443 276 443 276 450 283 c 1,16,17
EndSplineSet
Validated: 1
EndChar

StartChar: greater
Encoding: 62 62 33
Width: 294
Flags: W
LayerCount: 2
Fore
SplineSet
232 270 m 0,0,1
 232 178 232 178 160 91 c 0,2,3
 87 0 87 0 0 0 c 0,4,5
 -17.7792207792 0 -17.7792207792 0 -17.7792207792 12.0067465003 c 0,6,7
 -17.7792207792 24.987012987 -17.7792207792 24.987012987 3 52 c 0,8,9
 33 90 33 90 97 148 c 0,10,11
 155.928571429 202.017857143 155.928571429 202.017857143 156.980867347 202.017857143 c 0,12,13
 157 202.017857143 157 202.017857143 157 202 c 1,14,15
 157 204 157 204 78 340 c 2,16,17
 78 340 78 340 0 475 c 1,18,19
 14 486 14 486 36.5 502 c 128,-1,20
 59 518 59 518 88 540 c 0,21,22
 88.0735294118 540.029411765 88.0735294118 540.029411765 88.160899654 540.029411765 c 0,23,24
 94.0147058824 540.029411765 94.0147058824 540.029411765 162 408 c 0,25,26
 232 275 232 275 232 270 c 0,0,1
EndSplineSet
Validated: 1
EndChar

StartChar: question
Encoding: 63 63 34
Width: 474
Flags: W
LayerCount: 2
Fore
SplineSet
356 610 m 0,0,1
 356 740 356 740 272 790 c 0,2,3
 241 809 241 809 190 809 c 0,4,5
 115 809 115 809 66 755 c 0,6,7
 21 705 21 705 21 643 c 0,8,9
 21 594 21 594 46 554 c 128,-1,10
 71 514 71 514 116 496 c 0,11,12
 144 484 144 484 174 484 c 0,13,14
 199 484 199 484 228 501 c 0,15,16
 256 517 256 517 256 542 c 0,17,18
 256 563 256 563 229 574 c 2,19,20
 229 574 229 574 184 588 c 0,21,22
 112 610 112 610 110 663 c 0,23,24
 109.96969697 663.96969697 109.96969697 663.96969697 109.96969697 664.928374656 c 0,25,26
 109.96969697 695.606060606 109.96969697 695.606060606 141 715 c 1,27,28
 144 715.2 144 715.2 146.44 715.2 c 0,29,30
 156.2 715.2 156.2 715.2 157 712 c 0,31,32
 157.0625 711.625 157.0625 711.625 157.0625 711.20703125 c 0,33,34
 157.0625 704.9375 157.0625 704.9375 143 689 c 0,35,36
 136 682 136 682 136 678 c 0,37,38
 136 666 136 666 167 659 c 0,39,40
 178 657 178 657 188.5 655 c 128,-1,41
 199 653 199 653 210 651 c 0,42,43
 283 632 283 632 283 571 c 0,44,45
 283 535 283 535 248 502 c 128,-1,46
 213 469 213 469 174 469 c 0,47,48
 101 469 101 469 55 520 c 0,49,50
 10 571 10 571 10 644 c 0,51,52
 10 701 10 701 42.5 744.5 c 128,-1,53
 75 788 75 788 129 810 c 0,54,55
 166 825 166 825 215 825 c 0,56,57
 350 825 350 825 412 762 c 0,58,59
 464 707 464 707 464 610 c 0,60,61
 464 567 464 567 432 527 c 0,62,63
 419 510 419 510 368 465 c 0,64,65
 319 422 319 422 297 389 c 0,66,67
 269 346 269 346 269 291 c 2,68,69
 269 291 269 291 269 247 c 1,70,-1
 294 252 l 1,71,72
 301 248 301 248 301 242 c 0,73,74
 301 237 301 237 296 229 c 1,75,76
 262 209 262 209 210 136 c 1,77,78
 207.272727273 135.818181818 207.272727273 135.818181818 204.79338843 135.818181818 c 0,79,80
 180 135.818181818 180 135.818181818 180 154 c 2,81,82
 180 154 180 154 180 307 c 2,83,84
 180 335 180 335 214 378 c 0,85,86
 215 380 215 380 268 442 c 0,87,88
 356 543 356 543 356 610 c 0,0,1
199 87 m 1,89,90
 199 87 199 87 191 104 c 1,91,92
 231 130 231 130 261 130 c 0,93,94
 298 130 298 130 298 93 c 0,95,96
 298 90 298 90 295.5 84.5 c 128,-1,97
 293 79 293 79 290 73 c 128,-1,98
 287 67 287 67 284.5 61 c 128,-1,99
 282 55 282 55 282 51 c 0,100,101
 282 41 282 41 297 41 c 1,102,103
 297 41 297 41 305 24 c 1,104,105
 267 0 267 0 242 0 c 0,106,107
 199 0 199 0 199 37 c 0,108,109
 199 44 199 44 206.5 56.5 c 128,-1,110
 214 69 214 69 214 75 c 0,111,112
 214 87 214 87 199 87 c 1,89,90
EndSplineSet
Validated: 1
EndChar

StartChar: at
Encoding: 64 64 35
Width: 602
Flags: W
LayerCount: 2
Fore
SplineSet
319 214 m 2,0,1
 316 214 316 214 309 195 c 0,2,3
 302 178 302 178 298 174 c 0,4,5
 253 126 253 126 242 126 c 0,6,7
 230 126 230 126 209 163 c 128,-1,8
 188 200 188 200 188 220 c 2,9,10
 188 220 188 220 188 303 c 2,11,12
 188 368 188 368 195 386 c 0,13,14
 206 418 206 418 252 439 c 0,15,16
 266 445 266 445 277 449.5 c 128,-1,17
 288 454 288 454 296 458 c 0,18,19
 329 482 329 482 336 482 c 0,20,21
 339 482 339 482 344 472 c 128,-1,22
 349 462 349 462 353 455 c 0,23,24
 358 447 358 447 388 434 c 1,25,26
 372 409 372 409 372 393 c 2,27,28
 372 393 372 393 372 263 c 2,29,30
 372 235 372 235 401 203 c 0,31,32
 431 171 431 171 458 171 c 0,33,34
 463 170 463 170 467 169.5 c 128,-1,35
 471 169 471 169 473 169 c 0,36,37
 544 169 544 169 544 292 c 0,38,39
 544 402 544 402 473 473 c 128,-1,40
 402 544 402 544 292 544 c 0,41,42
 177 544 177 544 108 475 c 0,43,44
 40 407 40 407 40 292 c 0,45,46
 40 152 40 152 142 79 c 0,47,48
 221 22 221 22 320 22 c 0,49,50
 406 22 406 22 509 80 c 1,51,52
 509 67 509 67 445 36 c 0,53,54
 371 0 371 0 320 0 c 0,55,56
 182 0 182 0 94 76 c 0,57,58
 2 157 2 157 0 292 c 0,59,60
 0 414 0 414 84 500 c 0,61,62
 169 585 169 585 292 585 c 0,63,64
 424 585 424 585 502 504 c 0,65,66
 577 425 577 425 581 292 c 0,67,68
 581.28125 284.40625 581.28125 284.40625 581.28125 277.172851562 c 0,69,70
 581.28125 207.25 581.28125 207.25 555 171 c 0,71,72
 524 128 524 128 446 128 c 0,73,74
 397 128 397 128 339 192 c 2,75,76
 339 192 339 192 319 214 c 2,0,1
312 283 m 2,77,78
 312 283 312 283 312 382 c 2,79,80
 312 411 312 411 306 419 c 0,81,82
 292 436 292 436 284 436 c 0,83,84
 247 430 247 430 247 376 c 2,85,86
 247 376 247 376 247 266 c 2,87,88
 247 223 247 223 259 202 c 0,89,90
 270 185 270 185 280 185 c 0,91,92
 292 185 292 185 303 229 c 0,93,94
 312 265 312 265 312 283 c 2,77,78
EndSplineSet
Validated: 1
EndChar

StartChar: A
Encoding: 65 65 36
Width: 1009
Flags: WO
LayerCount: 2
Fore
SplineSet
432 -183 m 0,0,1
 433 -197 433 -197 448 -199 c 1,2,3
 458 -224 458 -224 481.5 -240.5 c 128,-1,4
 505 -257 505 -257 531 -257 c 128,-1,5
 557 -257 557 -257 568 -246 c 0,6,7
 577 -231 577 -231 588 -214.5 c 128,-1,8
 599 -198 599 -198 613 -198 c 0,9,10
 621 -198 621 -198 626 -199 c 1,11,12
 626 -173 626 -173 597 -173 c 0,13,14
 579 -173 579 -173 554 -207 c 0,15,16
 528.722222222 -241.027777778 528.722222222 -241.027777778 513.841820988 -241.027777778 c 0,17,18
 513.416666667 -241.027777778 513.416666667 -241.027777778 513 -241.027777778 c 0,19,20
 480 -239.013888889 480 -239.013888889 461 -198 c 1,21,22
 477 -193 477 -193 487 -156 c 0,23,24
 495 -124 495 -124 495 -104 c 0,25,26
 495 -83 495 -83 516 -69 c 0,27,28
 535 -58 535 -58 558 -58 c 0,29,30
 611 -58 611 -58 652 -90 c 0,31,32
 694 -125 694 -125 694 -178 c 0,33,34
 694 -239 694 -239 647 -295 c 128,-1,35
 600 -351 600 -351 545 -351 c 0,36,37
 480 -351 480 -351 424 -292 c 0,38,39
 369 -234 369 -234 369 -170 c 0,40,41
 369 -118 369 -118 391 -75 c 1,42,43
 445 -94 445 -94 456 -119 c 1,44,45
 432 -175 432 -175 432 -183 c 0,0,1
820 2 m 1,46,47
 797 -39 797 -39 794 -78 c 1,48,49
 789 -49 789 -49 784.5 -9.5 c 128,-1,50
 780 30 780 30 775 79 c 1,51,52
 782 131 782 131 820 211 c 1,53,-1
 820 2 l 1,46,47
683 0 m 1,54,55
 747 -48 747 -48 791 -135 c 1,56,57
 744 -93 744 -93 683 0 c 1,54,55
804 356 m 0,58,59
 804 381 804 381 792 381 c 0,60,61
 783 381 783 381 782 368 c 128,-1,62
 781 355 781 355 774 355 c 0,63,64
 773 355 773 355 770.5 355.5 c 128,-1,65
 768 356 768 356 763 357 c 1,66,67
 768 574 768 574 803 753 c 1,68,69
 820 685 820 685 820 596 c 2,70,-1
 820 251 l 1,71,72
 786 183 786 183 771 119 c 1,73,74
 763 206 763 206 762 296 c 1,75,76
 804 321 804 321 804 356 c 0,58,59
749 291 m 1,77,78
 754 123 754 123 764 5 c 1,79,80
 747 99 747 99 737 287 c 1,81,-1
 749 291 l 1,77,78
495 794 m 0,82,83
 507 794 507 794 531 788 c 1,84,85
 443 691 443 691 443 538 c 2,86,-1
 443 472 l 1,87,88
 438 471 438 471 432.5 470.5 c 128,-1,89
 427 470 427 470 422 470 c 0,90,91
 348 470 348 470 293 534 c 1,92,93
 358 565 358 565 384 632 c 1,94,95
 401 646 401 646 415 677 c 2,96,-1
 435 730 l 2,97,98
 459 794 459 794 495 794 c 0,82,83
328 664 m 0,99,100
 326 653 326 653 314 653 c 0,101,102
 310 653 310 653 307.5 656 c 128,-1,103
 305 659 305 659 303.5 663 c 128,-1,104
 302 667 302 667 300.5 670 c 128,-1,105
 299 673 299 673 296 673 c 0,106,107
 287.666666667 673 287.666666667 673 287.666666667 666.75 c 0,108,109
 287.666666667 665.5 287.666666667 665.5 288 664 c 0,110,111
 289 656 289 656 297 645 c 0,112,113
 317 616 317 616 337 616 c 0,114,115
 352 616 352 616 360 620 c 1,116,117
 334 566 334 566 284 545 c 1,118,119
 238.989361702 606.659574468 238.989361702 606.659574468 239 677.898143957 c 0,120,121
 239 679.446808511 239 679.446808511 239 681 c 0,122,123
 241 776 241 776 307 838 c 1,124,125
 343 813 343 813 362 768 c 1,126,127
 333 730 333 730 328 664 c 0,99,100
547 805 m 1,128,129
 517 816 517 816 484 816 c 0,130,131
 416 816 416 816 378 785 c 1,132,133
 357 825 357 825 323 852 c 1,134,135
 409 920 409 920 538 924 c 1,136,137
 573 895 573 895 603 850 c 1,138,139
 573 831 573 831 547 805 c 1,128,129
657 857 m 0,140,141
 670.235294118 863.176470588 670.235294118 863.176470588 670.235294118 872.467128028 c 0,142,143
 670.235294118 873.705882353 670.235294118 873.705882353 670 875 c 0,144,145
 668 881 668 881 663 881 c 0,146,147
 633 870 633 870 618 860 c 1,148,149
 593 900 593 900 565 925 c 1,150,151
 734 920 734 920 786 802 c 1,152,153
 769 688 769 688 760 578.5 c 128,-1,154
 751 469 751 469 749 361 c 1,155,-1
 741 365 l 2,156,157
 738 366 738 366 732 370 c 1,158,159
 730 443 730 443 726 487 c 0,160,161
 717 589 717 589 696 673 c 1,162,163
 721 688 721 688 726 742 c 1,164,165
 708.9 733.9 708.9 733.9 703.14 733.9 c 0,166,167
 702.5 733.9 702.5 733.9 702 734 c 0,168,169
 695.875 734.875 695.875 734.875 695.875 739.578125 c 0,170,171
 695.875 740.25 695.875 740.25 696 741 c 0,172,173
 704 760 704 760 711 770 c 0,174,175
 714 774 714 774 724 780 c 0,176,177
 748 795 748 795 748 801 c 0,178,179
 748 805 748 805 731 805 c 0,180,181
 690 805 690 805 679 728 c 1,182,183
 669 757 669 757 657.5 784 c 128,-1,184
 646 811 646 811 632 836 c 1,185,186
 640 843 640 843 646 848 c 128,-1,187
 652 853 652 853 657 857 c 0,140,141
633 83 m 2,188,189
 627.181818182 99 627.181818182 99 627.181818182 108.652892562 c 0,190,191
 627.181818182 112.272727273 627.181818182 112.272727273 628 115 c 0,192,193
 629 122 629 122 634 126.5 c 128,-1,194
 639 131 639 131 644 135 c 128,-1,195
 649 139 649 139 653 142.5 c 128,-1,196
 657 146 657 146 657 151 c 0,197,198
 657 191 657 191 643 203 c 1,199,200
 642 199 642 199 632 186 c 0,201,202
 626.176470588 178.882352941 626.176470588 178.882352941 624.121107266 178.882352941 c 0,203,204
 623 178.882352941 623 178.882352941 623 181 c 2,205,-1
 623 204 l 1,206,-1
 626.5 207 l 2,207,208
 630 210 630 210 638 217 c 0,209,210
 647 224 647 224 647 232 c 0,211,212
 647 236 647 236 644 241.5 c 128,-1,213
 641 247 641 247 640 250 c 1,214,215
 635 242 635 242 626 241 c 1,216,217
 627 257 627 257 641 257 c 2,218,-1
 649 257 l 2,219,220
 652 257 652 257 652 261 c 0,221,222
 652 267 652 267 646.5 274 c 128,-1,223
 641 281 641 281 635 281 c 0,224,225
 605 281 605 281 605 184 c 2,226,-1
 605 157 l 2,227,228
 605 150 605 150 605.5 143.5 c 128,-1,229
 606 137 606 137 607 130 c 1,230,-1
 581 175 l 2,231,232
 574 186 574 186 567 197.5 c 128,-1,233
 560 209 560 209 553 220 c 1,234,235
 558 245 558 245 558 280 c 2,236,-1
 558 501 l 1,237,238
 637 556 637 556 637 646 c 0,239,240
 637 726 637 726 588 776 c 1,241,242
 599 796 599 796 619 822 c 1,243,244
 698 679 698 679 707 474 c 1,245,246
 669 533 669 533 633 533 c 0,247,248
 616 533 616 533 616 510 c 0,249,250
 616 501 616 501 624 501 c 0,251,252
 629 501 629 501 634.5 506.5 c 128,-1,253
 640 512 640 512 645 512 c 0,254,255
 653 512 653 512 679 493 c 0,256,257
 708 470 708 470 708 452 c 2,258,-1
 708 445 l 1,259,260
 701 445 701 445 694.5 449.5 c 128,-1,261
 688 454 688 454 682 454 c 0,262,263
 668 454 668 454 668 444 c 0,264,265
 668 440 668 440 674 434 c 128,-1,266
 680 428 680 428 680 424 c 0,267,268
 680 413 680 413 695 412 c 0,269,270
 710 410 710 410 710 386 c 1,271,272
 657 428 657 428 629 428 c 128,-1,273
 601 428 601 428 584.5 409.5 c 128,-1,274
 568 391 568 391 568 363 c 0,275,276
 568 349 568 349 579 349 c 0,277,278
 586 349 586 349 590.5 357 c 128,-1,279
 595 365 595 365 604 365 c 0,280,281
 612 365 612 365 623 355 c 128,-1,282
 634 345 634 345 644.5 336 c 128,-1,283
 655 327 655 327 666 317 c 0,284,285
 692 295 692 295 715 289 c 1,286,287
 731 26 731 26 769 -74 c 1,288,289
 725 -4 725 -4 664 31 c 1,290,291
 660 38 660 38 656.5 44 c 128,-1,292
 653 50 653 50 649 57 c 2,293,-1
 633 83 l 2,188,189
134 114 m 0,294,295
 134 69 134 69 166 31 c 0,296,297
 193 -2 193 -2 239 -21 c 0,298,299
 268 -32 268 -32 290.5 -40 c 128,-1,300
 313 -48 313 -48 327 -53 c 1,301,302
 301 -63 301 -63 263 -63 c 0,303,304
 173 -63 173 -63 114 -16 c 128,-1,305
 55 31 55 31 55 98 c 0,306,307
 55 157 55 157 86 198 c 0,308,309
 121 245 121 245 177 245 c 0,310,311
 211 245 211 245 240 224 c 1,312,313
 200 219 200 219 167 186 c 128,-1,314
 134 153 134 153 134 114 c 0,294,295
199 964 m 1,315,316
 160 936 160 936 120 888 c 0,317,318
 112 878 112 878 95.5 856.5 c 128,-1,319
 79 835 79 835 53 801 c 1,320,321
 87 913 87 913 199 964 c 1,315,316
283 873 m 1,322,323
 263 878 263 878 254 878 c 0,324,325
 196 878 196 878 153 843 c 0,326,327
 108 805 108 805 108 747 c 0,328,329
 108 702 108 702 132 671 c 0,330,331
 158.25 636.986111111 158.25 636.986111111 199.62345679 637 c 0,332,333
 200.805555556 637 200.805555556 637 202 637 c 1,334,-1
 190 658 l 2,335,336
 187.363636364 657.727272727 187.363636364 657.727272727 184.818181818 657.727272727 c 0,337,338
 159.363636364 657.727272727 159.363636364 657.727272727 143 685 c 0,339,340
 129 711 129 711 129 742 c 0,341,342
 129 763 129 763 138 784 c 0,343,344
 151 817 151 817 182.5 837 c 128,-1,345
 214 857 214 857 251 857 c 0,346,347
 255 857 255 857 259 856.5 c 128,-1,348
 263 856 263 856 268 855 c 1,349,350
 214 781 214 781 212 702 c 0,351,352
 211.93442623 699.180327869 211.93442623 699.180327869 211.93442623 696.371405536 c 0,353,354
 211.93442623 613.508196721 211.93442623 613.508196721 269 540 c 1,355,356
 249 533 249 533 221 533 c 0,357,358
 156 533 156 533 97 592 c 0,359,360
 40 650 40 650 40 716 c 0,361,362
 40 726 40 726 41.5 739.5 c 128,-1,363
 43 753 43 753 45 770 c 1,364,365
 55 784 55 784 65 798.5 c 128,-1,366
 75 813 75 813 86 829 c 0,367,368
 165 943 165 943 244 980 c 0,369,370
 263 988 263 988 298 988 c 0,371,372
 362 988 362 988 416 972 c 1,373,374
 337 935 337 935 283 873 c 1,322,323
558 -367 m 1,375,376
 600.011363636 -380.681818182 600.011363636 -380.681818182 600 -404.869318182 c 0,377,378
 600 -405.431818182 600 -405.431818182 600 -406 c 0,379,380
 600 -413 600 -413 594 -416.5 c 128,-1,381
 588 -420 588 -420 579 -422 c 0,382,383
 558 -427 558 -427 558 -430 c 0,384,385
 558 -440 558 -440 586 -440 c 0,386,387
 597 -440 597 -440 605 -426 c 0,388,389
 611 -417 611 -417 613 -403 c 0,390,391
 613 -399 613 -399 610.5 -393 c 128,-1,392
 608 -387 608 -387 604 -381 c 128,-1,393
 600 -375 600 -375 596.5 -370 c 128,-1,394
 593 -365 593 -365 592 -362 c 1,395,396
 649 -352 649 -352 729 -299 c 0,397,398
 800 -252 800 -252 820 -252 c 0,399,400
 836 -252 836 -252 862 -272 c 1,401,402
 861 -256 861 -256 848.5 -243.5 c 128,-1,403
 836 -231 836 -231 820 -231 c 0,404,405
 805 -231 805 -231 744 -274 c 0,406,407
 675 -321 675 -321 620 -340 c 1,408,409
 659 -311 659 -311 683 -269 c 0,410,411
 710 -223 710 -223 710 -178 c 0,412,413
 710 -152 710 -152 700 -131 c 0,414,415
 662 -47 662 -47 566 -47 c 0,416,417
 527 -47 527 -47 492 -73 c 1,418,419
 483 -34 483 -34 450 -2 c 1,420,421
 505 41 505 41 571 41 c 0,422,423
 606 41 606 41 649 21 c 1,424,425
 680 -30 680 -30 705 -65.5 c 128,-1,426
 730 -101 730 -101 750 -123 c 0,427,428
 807 -183 807 -183 860 -183 c 1,429,-1
 846 -173 l 2,430,431
 839 -169 839 -169 835.5 -167.5 c 2,432,-1
 832 -166 l 1,433,-1
 830 -163 l 2,434,435
 804 -131 804 -131 804 -91 c 0,436,437
 804 -58 804 -58 820 -26 c 1,438,-1
 820 -47 l 2,439,440
 820 -104 820 -104 844 -146 c 0,441,442
 871 -194 871 -194 912 -194 c 0,443,444
 934 -194 934 -194 960 -173 c 0,445,446
 987 -152 987 -152 987 -136 c 0,447,448
 987 -121 987 -121 977 -121 c 0,449,450
 972 -121 972 -121 966.5 -131.5 c 128,-1,451
 961 -142 961 -142 954 -142 c 0,452,453
 943 -142 943 -142 935 -98 c 0,454,455
 933 -82 933 -82 931.5 -60.5 c 128,-1,456
 930 -39 930 -39 930 -11 c 2,457,-1
 930 38 l 1,458,459
 976 23 976 23 977 -23 c 1,460,-1
 987 -32 l 1,461,462
 987 34 987 34 930 54 c 1,463,-1
 930 391 l 1,464,465
 998 495 998 495 998 539 c 0,466,467
 998 587 998 587 966 622 c 1,468,-1
 951 616 l 1,469,470
 982 588 982 588 982 543 c 0,471,472
 982 520 982 520 930 441 c 1,473,-1
 930 604 l 2,474,475
 930 853 930 853 781 957 c 1,476,477
 777 1017 777 1017 718 1079 c 0,478,479
 660 1140 660 1140 598 1140 c 0,480,481
 418 1140 418 1140 417 1064 c 0,482,483
 417 1048 417 1048 428.5 1039 c 0,484,485
 438.85 1030.9 438.85 1030.9 453.655 1030.9 c 0,486,487
 455.3 1030.9 455.3 1030.9 457 1031 c 0,488,489
 485 1032 485 1032 485 1047 c 0,490,491
 485 1061 485 1061 454 1061 c 0,492,493
 438 1061 438 1061 438 1070 c 0,494,495
 438 1070.675 438 1070.675 438 1071.3415625 c 0,496,497
 437.9875 1124 437.9875 1124 594 1124 c 0,498,499
 644 1124 644 1124 699 1072 c 0,500,501
 750 1021 750 1021 760 970 c 1,502,503
 687 1013 687 1013 593 1014 c 0,504,505
 588.777777778 1014.11111111 588.777777778 1014.11111111 584.549382716 1014.11111111 c 0,506,507
 550.722222222 1014.11111111 550.722222222 1014.11111111 516.5 1007 c 0,508,509
 478 999 478 999 438 982 c 1,510,511
 379 1001 379 1001 321 1003 c 1,512,513
 276 1020 276 1020 254 1051 c 0,514,515
 251 1050 251 1050 247 1044 c 0,516,517
 235.666666667 1027.94444444 235.666666667 1027.94444444 231.469135802 1027.94444444 c 0,518,519
 231.222222222 1027.94444444 231.222222222 1027.94444444 231 1028 c 0,520,521
 228 1029 228 1029 228 1043 c 0,522,523
 228 1046 228 1046 231.5 1049 c 128,-1,524
 235 1052 235 1052 238.5 1054.5 c 128,-1,525
 242 1057 242 1057 245.5 1060.5 c 128,-1,526
 249 1064 249 1064 249 1069 c 0,527,528
 249 1077 249 1077 232 1077 c 0,529,530
 207 1077 207 1077 207 1037 c 0,531,532
 207 1013 207 1013 247 1000 c 1,533,534
 162 989 162 989 47 925 c 2,535,-1
 -16 889 l 2,536,537
 -65 863 -65 863 -80 863 c 0,538,539
 -137 863 -137 863 -137 916 c 0,540,541
 -137 935 -137 935 -125.5 951 c 128,-1,542
 -114 967 -114 967 -96 967 c 0,543,544
 -72 967 -72 967 -72 938 c 0,545,546
 -72 910 -72 910 -48 910 c 0,547,548
 -27 910 -27 910 -27 931 c 1,549,550
 -38 920 -38 920 -48 920 c 0,551,552
 -55.1111111111 920 -55.1111111111 920 -55.1111111111 927.901234568 c 0,553,554
 -55.1111111111 928.888888889 -55.1111111111 928.888888889 -55 930 c 0,555,556
 -54 935 -54 935 -53.5 940.5 c 128,-1,557
 -53 946 -53 946 -53 952 c 0,558,559
 -53 983 -53 983 -96 983 c 0,560,561
 -122 983 -122 983 -137.5 962.5 c 128,-1,562
 -153 942 -153 942 -153 915 c 0,563,564
 -153 885 -153 885 -131 866 c 128,-1,565
 -109 847 -109 847 -79 847 c 0,566,567
 -52 847 -52 847 13 886 c 0,568,569
 53 909 53 909 84.5 926.5 c 128,-1,570
 116 944 116 944 141 955 c 1,571,572
 29 880 29 880 16 754 c 1,573,574
 5 740 5 740 -8.5 725.5 c 128,-1,575
 -22 711 -22 711 -38 696 c 1,576,577
 -68 711 -68 711 -71 711 c 0,578,579
 -81 711 -81 711 -81 707 c 0,580,581
 -81 702 -81 702 -77 698 c 0,582,583
 -63.6666666667 678.952380952 -63.6666666667 678.952380952 -63.0317460317 678.952380952 c 1,584,585
 -67 678 -67 678 -70 677.5 c 128,-1,586
 -73 677 -73 677 -76 677 c 0,587,588
 -104 677 -104 677 -119 711 c 1,589,590
 -129.083333333 705.5 -129.083333333 705.5 -129.083333333 699.159722222 c 0,591,592
 -129.083333333 698.583333333 -129.083333333 698.583333333 -129 698 c 0,593,594
 -128 690 -128 690 -120 683 c 0,595,596
 -103 667 -103 667 -85 667 c 1,597,598
 -119 653 -119 653 -150 653 c 0,599,600
 -260 653 -260 653 -263 763 c 0,601,602
 -263.054054054 764.459459459 -263.054054054 764.459459459 -263.054054054 765.907231556 c 0,603,604
 -263.054054054 791.243243243 -263.054054054 791.243243243 -246.5 813 c 0,605,606
 -229 836 -229 836 -202 836 c 0,607,608
 -181 836 -181 836 -167 816.5 c 128,-1,609
 -153 797 -153 797 -153 775 c 0,610,611
 -153 737 -153 737 -187 737 c 0,612,613
 -194 737 -194 737 -201.5 744.5 c 128,-1,614
 -209 752 -209 752 -216 758 c 1,615,616
 -216.108108108 756.27027027 -216.108108108 756.27027027 -216.108108108 754.634039445 c 0,617,618
 -216.108108108 726 -216.108108108 726 -183 726 c 0,619,620
 -165 726 -165 726 -151 743 c 128,-1,621
 -137 760 -137 760 -137 779 c 0,622,623
 -137 792 -137 792 -142.5 805.5 c 128,-1,624
 -148 819 -148 819 -157 829 c 128,-1,625
 -166 839 -166 839 -178 845.5 c 128,-1,626
 -190 852 -190 852 -203 852 c 0,627,628
 -235 852 -235 852 -257 824 c 0,629,630
 -279.041666667 795.25 -279.041666667 795.25 -279.041666667 767.418402778 c 0,631,632
 -279.041666667 766.208333333 -279.041666667 766.208333333 -279 765 c 0,633,634
 -278 707 -278 707 -240 672 c 128,-1,635
 -202 637 -202 637 -142 637 c 0,636,637
 -60 637 -60 637 14 729 c 1,638,-1
 14 726 l 2,639,640
 14 647 14 647 70 585 c 0,641,642
 132 517 132 517 225 517 c 0,643,644
 256 517 256 517 279 527 c 1,645,646
 340 454 340 454 417 454 c 0,647,648
 423 454 423 454 429.5 454.5 c 128,-1,649
 436 455 436 455 443 456 c 1,650,-1
 443 367 l 1,651,652
 348 465 348 465 244 465 c 0,653,654
 183 465 183 465 146 443 c 0,655,656
 102 417 102 417 102 357 c 0,657,658
 102 330 102 330 120.5 308.5 c 128,-1,659
 139 287 139 287 165 287 c 0,660,661
 190 287 190 287 202 310 c 0,662,663
 215 334 215 334 219 334 c 0,664,665
 236 326 236 326 247 317 c 1,666,667
 247.347826087 319.086956522 247.347826087 319.086956522 247.347826087 321.20415879 c 0,668,669
 247.347826087 331.260869565 247.347826087 331.260869565 239.5 342 c 0,670,671
 230 355 230 355 218 355 c 0,672,673
 199 355 199 355 186 328 c 0,674,675
 172 302 172 302 160 302 c 0,676,677
 123 302 123 302 123 357 c 0,678,679
 123 396 123 396 167 425 c 0,680,681
 204 449 204 449 244 449 c 0,682,683
 276 449 276 449 306 439 c 1,684,685
 260 429 260 429 260 404 c 0,686,687
 260 389.777777778 260 389.777777778 263.950617284 389.777777778 c 0,688,689
 264.444444444 389.777777778 264.444444444 389.777777778 265 390 c 0,690,691
 270 390 270 390 287 406 c 128,-1,692
 304 422 304 422 320 422 c 1,693,694
 312 416 312 416 304 410.5 c 128,-1,695
 296 405 296 405 296 394 c 0,696,697
 296 382 296 382 321 381 c 0,698,699
 322.28 380.92 322.28 380.92 323.5056 380.92 c 0,700,701
 337.6 380.92 337.6 380.92 344.5 391.5 c 0,702,703
 352 403 352 403 359 415 c 1,704,705
 374 404 374 404 385.5 396 c 128,-1,706
 397 388 397 388 405 383 c 0,707,708
 443 354 443 354 443 341 c 2,709,-1
 443 338 l 1,710,711
 418 354 418 354 396 354 c 0,712,713
 378 354 378 354 363.5 342.5 c 128,-1,714
 349 331 349 331 349 313 c 0,715,716
 349 280.888888889 349 280.888888889 374.867283951 280.888888889 c 0,717,718
 376.388888889 280.888888889 376.388888889 280.888888889 378 281 c 0,719,720
 390 282 390 282 390 294 c 0,721,722
 390 299 390 299 385 304.5 c 128,-1,723
 380 310 380 310 380 315 c 0,724,725
 380 339 380 339 401 339 c 0,726,727
 420 339 420 339 443 325 c 1,728,-1
 443 198 l 2,729,730
 443 115 443 115 386 103 c 0,731,732
 376.4 101.4 376.4 101.4 376.4 98.52 c 0,733,734
 376.4 97.8 376.4 97.8 377 97 c 0,735,736
 378 93 378 93 388 88 c 0,737,738
 410 77 410 77 427 77 c 0,739,740
 471 77 471 77 506 115 c 0,741,742
 533 145 533 145 547 196 c 1,743,744
 577 145 577 145 599.5 107.5 c 128,-1,745
 622 70 622 70 636 44 c 1,746,747
 606 56 606 56 572 56 c 0,748,749
 497 56 497 56 436 9 c 1,750,751
 379 52 379 52 257 80 c 0,752,753
 175.896551724 97.3793103448 175.896551724 97.3793103448 175.896551724 147.386444709 c 0,754,755
 175.896551724 149.172413793 175.896551724 149.172413793 176 151 c 0,756,757
 177 166 177 166 188 179 c 128,-1,758
 199 192 199 192 214 192 c 0,759,760
 240 192 240 192 255 174 c 128,-1,761
 270 156 270 156 270 130 c 0,762,763
 270 121 270 121 249 118 c 128,-1,764
 228 115 228 115 228 114 c 0,765,766
 228 103 228 103 244 103 c 0,767,768
 254 103 254 103 263 107 c 128,-1,769
 272 111 272 111 280.5 116 c 128,-1,770
 289 121 289 121 296 125.5 c 128,-1,771
 303 130 303 130 311 130 c 0,772,773
 330 131 330 131 347 148 c 128,-1,774
 364 165 364 165 364 184 c 0,775,776
 364 188 364 188 358.5 193 c 128,-1,777
 353 198 353 198 348 198 c 0,778,779
 344 198 344 198 341 194.5 c 128,-1,780
 338 191 338 191 335 187.5 c 128,-1,781
 332 184 332 184 329 180.5 c 128,-1,782
 326 177 326 177 323 177 c 0,783,784
 311 177 311 177 296 196 c 0,785,786
 281 216 281 216 271 220 c 1,787,788
 228 266 228 266 173 266 c 0,789,790
 107 266 107 266 68 214 c 0,791,792
 34 168 34 168 34 98 c 0,793,794
 34 7 34 7 115 -39 c 0,795,796
 182 -79 182 -79 279 -79 c 0,797,798
 319 -79 319 -79 350 -60 c 1,799,-1
 359 -63 l 1,800,-1
 315 -119 l 2,801,802
 303 -133 303 -133 290.5 -146.5 c 128,-1,803
 278 -160 278 -160 265 -173 c 0,804,805
 206 -231 206 -231 142 -231 c 0,806,807
 88 -231 88 -231 87 -194 c 0,808,809
 87 -175 87 -175 118 -163 c 1,810,811
 114 -162 114 -162 106 -162 c 0,812,813
 93 -162 93 -162 82 -172 c 128,-1,814
 71 -182 71 -182 71 -196 c 0,815,816
 71 -246 71 -246 148 -246 c 0,817,818
 216 -246 216 -246 284 -181 c 1,819,820
 346 -106 346 -106 373 -68 c 1,821,822
 349 -118 349 -118 349 -172 c 0,823,824
 349 -242 349 -242 410 -304 c 0,825,826
 471 -367 471 -367 545 -367 c 2,827,-1
 550 -367 l 1,828,-1
 554 -366 l 1,829,-1
 554 -367 l 1,830,-1
 558 -367 l 1,375,376
558 629 m 2,831,832
 558 704 558 704 580 758 c 1,833,834
 620 717 620 717 621 648 c 0,835,836
 621.059701493 646.149253731 621.059701493 646.149253731 621.059701493 644.303853865 c 0,837,838
 621.059701493 584.328358209 621.059701493 584.328358209 558 530 c 1,839,-1
 558 629 l 2,831,832
EndSplineSet
EndChar

StartChar: B
Encoding: 66 66 37
Width: 1421
Flags: W
LayerCount: 2
Fore
SplineSet
597 673 m 1,0,1
 554 707 554 707 502 728 c 0,2,3
 500 729 500 729 474.5 737.5 c 128,-1,4
 449 746 449 746 398 763 c 1,5,6
 526 753 526 753 597 673 c 1,0,1
376 654 m 0,7,8
 377.533333333 654 377.533333333 654 379.050555556 654.033333333 c 0,9,10
 423.05 654.033333333 423.05 654.033333333 453.5 626 c 0,11,12
 485 597 485 597 491 551 c 1,13,14
 448 573 448 573 399.5 584.5 c 128,-1,15
 351 596 351 596 295 597 c 1,16,17
 306 619 306 619 329.5 636.5 c 128,-1,18
 353 654 353 654 376 654 c 0,7,8
334 492 m 0,19,20
 338 492 338 492 342 492 c 128,-1,21
 346 492 346 492 351 493 c 0,22,23
 361 493 361 493 361 487 c 0,24,25
 361 471 361 471 356 466 c 1,26,27
 376 466 376 466 376 490 c 0,28,29
 376 504 376 504 357 511 c 0,30,31
 344 518 344 518 328 518 c 0,32,33
 321 518 321 518 313.5 522.5 c 128,-1,34
 306 527 306 527 300 534 c 128,-1,35
 294 541 294 541 290.5 549.5 c 128,-1,36
 287 558 287 558 287 565 c 0,37,38
 287 567 287 567 287.5 571 c 128,-1,39
 288 575 288 575 289 580 c 1,40,41
 308 580 308 580 335 577.5 c 128,-1,42
 362 575 362 575 397 570 c 0,43,44
 492 555 492 555 492 535 c 2,45,-1
 492 534 l 2,46,47
 492 469 492 469 449 432 c 1,48,49
 455 451 455 451 455 471 c 0,50,51
 455 502 455 502 436 502 c 0,52,53
 424 502 424 502 424 490 c 0,54,55
 424 484 424 484 427.5 481 c 128,-1,56
 431 478 431 478 434.5 476 c 128,-1,57
 438 474 438 474 441.5 471.5 c 128,-1,58
 445 469 445 469 445 465 c 0,59,60
 445 437 445 437 434 437 c 0,61,62
 433.421052632 436.894736842 433.421052632 436.894736842 432.800554017 436.894736842 c 0,63,64
 421.631578947 436.894736842 421.631578947 436.894736842 397 471 c 1,65,66
 382 426 382 426 382 421 c 0,67,68
 382 410 382 410 392 400 c 1,69,70
 363 392 363 392 345 392 c 0,71,72
 275 392 275 392 226 447 c 0,73,74
 179 498 179 498 175 570 c 1,75,76
 198 574 198 574 222 576.5 c 128,-1,77
 246 579 246 579 272 580 c 1,78,-1
 272 576 l 2,79,80
 272 548 272 548 289 522 c 0,81,82
 308 492 308 492 334 492 c 0,19,20
-80 863 m 0,83,84
 -44 863 -44 863 -6 833 c 0,85,86
 31 805 31 805 31 775 c 2,87,-1
 31 770 l 1,88,89
 -75 799 -75 799 -136 848 c 1,90,91
 -111 863 -111 863 -80 863 c 0,83,84
141 583 m 1,92,93
 114 579 114 579 90.5 577.5 c 128,-1,94
 67 576 67 576 47 576 c 0,95,96
 -44 576 -44 576 -112 614 c 0,97,98
 -193 660 -193 660 -193 746 c 0,99,100
 -193 802 -193 802 -152 837 c 1,101,102
 -89 780 -89 780 25 751 c 1,103,104
 19 739 19 739 2 731 c 0,105,106
 -1 729 -1 729 -8 726.5 c 128,-1,107
 -15 724 -15 724 -26 720 c 0,108,109
 -62 706 -62 706 -62 693 c 0,110,111
 -62 671 -62 671 -26 670 c 1,112,113
 -31 676 -31 676 -36.5 682.5 c 0,114,115
 -41.1538461538 688 -41.1538461538 688 -41.1538461538 693.142011834 c 0,116,117
 -41.1538461538 694.076923077 -41.1538461538 694.076923077 -41 695 c 2,118,-1
 -32 698.5 l 2,119,120
 -23 702 -23 702 -4 709 c 0,121,122
 37 724 37 724 47 746 c 1,123,124
 155 730 155 730 213 725 c 1,125,126
 141 666 141 666 141 586 c 2,127,-1
 141 583 l 1,92,93
617 344 m 0,128,129
 617 469 617 469 516 537 c 1,130,131
 512 591 512 591 482 624 c 0,132,133
 443 665 443 665 371 665 c 0,134,135
 289 665 289 665 274 597 c 1,136,137
 249 597 249 597 224 595 c 128,-1,138
 199 593 199 593 174 589 c 1,139,140
 179 667 179 667 251 722 c 1,141,142
 412 702 412 702 507 634 c 0,143,144
 628.004065041 546.715447154 628.004065041 546.715447154 628 389.58067288 c 0,145,146
 628 388.292682927 628 388.292682927 628 387 c 0,147,148
 628 380 628 380 628 372 c 0,149,150
 628 365 628 365 627 357 c 2,151,-1
 625 316 l 2,152,153
 624.662275796 299.113789804 624.662275796 299.113789804 623.982378569 287.474230999 c 1,154,155
 643.003086469 330.87023895 643.003086469 330.87023895 643 389.0096875 c 0,156,157
 643 390.5 643 390.5 643 392 c 0,158,159
 642 483 642 483 609 544 c 0,160,161
 522 701 522 701 273 736 c 1,162,163
 321 763 321 763 361 764 c 1,164,165
 383 748 383 748 423 733 c 0,166,167
 440 728 440 728 456.5 722 c 128,-1,168
 473 716 473 716 490 711 c 0,169,170
 587 674 587 674 637 613 c 1,171,172
 675.0125 535 675.0125 535 675 444.641875 c 0,173,174
 675 442.325 675 442.325 675 440 c 0,175,176
 673.629738742 339.970928199 673.629738742 339.970928199 622.502655704 270.922519024 c 0,177,178
 621.447854314 263.447854206 621.447854314 263.447854206 620 262 c 0,179,180
 619.836956522 261.72826087 619.836956522 261.72826087 619.682774102 261.72826087 c 0,181,182
 619.084804791 261.72826087 619.084804791 261.72826087 618.620118158 265.815596096 c 1,183,184
 597.54918252 238.814867323 597.54918252 238.814867323 568.608640638 216.714083377 c 1,185,186
 599.840785993 240.77558461 599.840785993 240.77558461 617.960561537 274.99917347 c 1,187,188
 617.000000004 294.77097655 617.000000004 294.77097655 617 344 c 0,128,129
795 -281 m 0,189,190
 820 -281 820 -281 820 -311 c 128,-1,191
 820 -341 820 -341 795 -341 c 0,192,193
 783 -341 783 -341 773.5 -333 c 128,-1,194
 764 -325 764 -325 764 -313 c 128,-1,195
 764 -301 764 -301 773.5 -291 c 128,-1,196
 783 -281 783 -281 795 -281 c 0,189,190
875 -184 m 1,197,198
 865 -183.333333333 865 -183.333333333 857.555555556 -183.333333333 c 0,199,200
 842.666666667 -183.333333333 842.666666667 -183.333333333 838 -186 c 0,201,202
 824 -194 824 -194 824 -217 c 0,203,204
 824 -221 824 -221 824 -225 c 128,-1,205
 824 -229 824 -229 825 -234 c 1,206,207
 810 -240 810 -240 802 -240 c 0,208,209
 788 -240 788 -240 788 -227 c 0,210,211
 787.875 -225.375 787.875 -225.375 787.875 -223.71875 c 0,212,213
 787.875 -212.125 787.875 -212.125 794 -199 c 0,214,215
 809.288888889 -157.911111111 809.288888889 -157.911111111 831.882469136 -157.911111111 c 0,216,217
 832.933333333 -157.911111111 832.933333333 -157.911111111 834 -158 c 0,218,219
 863 -167 863 -167 878 -175 c 1,220,-1
 875 -184 l 1,197,198
660 -25 m 1,221,222
 732 -35 732 -35 785 -58 c 1,223,224
 777 -66 777 -66 770 -75 c 128,-1,225
 763 -84 763 -84 756 -92 c 0,226,227
 738 -113 738 -113 738 -130 c 0,228,229
 738 -162 738 -162 772 -162 c 0,230,231
 782 -162 782 -162 792 -156 c 0,232,233
 801.090909091 -150.545454545 801.090909091 -150.545454545 801.090909091 -142.611570248 c 0,234,235
 801.090909091 -141.818181818 801.090909091 -141.818181818 801 -141 c 0,236,237
 799.153846154 -140.846153846 799.153846154 -140.846153846 797.485207101 -140.846153846 c 0,238,239
 788.307692308 -140.846153846 788.307692308 -140.846153846 784.5 -145.5 c 0,240,241
 780 -151 780 -151 774 -151 c 128,-1,242
 768 -151 768 -151 760.5 -146 c 128,-1,243
 753 -141 753 -141 753 -135 c 0,244,245
 753 -127 753 -127 759 -121 c 2,246,-1
 786 -97 l 2,247,248
 802 -84 802 -84 810 -70 c 1,249,250
 880 -107 880 -107 880 -161 c 1,251,252
 838 -147 838 -147 834 -147 c 0,253,254
 812 -148 812 -148 793 -172 c 0,255,256
 774 -195 774 -195 774 -219 c 0,257,258
 774 -233 774 -233 775 -235 c 1,259,260
 737 -221 737 -221 696 -170 c 0,261,262
 640 -101 640 -101 625 -89 c 1,263,264
 634 -50 634 -50 660 -25 c 1,221,222
763 -256 m 2,265,266
 710 -256 710 -256 667 -211 c 0,267,268
 623 -167 623 -167 623 -116 c 2,269,-1
 623 -104 l 1,270,271
 646 -130 646 -130 663 -150.5 c 128,-1,272
 680 -171 680 -171 691 -186 c 0,273,274
 733 -237 733 -237 778 -248 c 0,275,276
 780 -250 780 -250 780.5 -252 c 128,-1,277
 781 -254 781 -254 782 -255 c 1,278,279
 779 -256 779 -256 773 -256 c 2,280,-1
 763 -256 l 2,265,266
898 -217 m 1,281,282
 887 -271 887 -271 846 -271 c 0,283,284
 818 -271 818 -271 808 -262 c 1,285,286
 860 -253 860 -253 898 -217 c 1,281,282
951 -10 m 1,287,288
 956 -16 956 -16 959.5 -20.5 c 128,-1,289
 963 -25 963 -25 965 -28 c 2,290,-1
 956 -37 l 1,291,292
 954 -28 954 -28 953 -21.5 c 128,-1,293
 952 -15 952 -15 951 -10 c 1,287,288
908 -178 m 1,294,295
 908 -160 908 -160 929 -137 c 1,296,297
 921 -159 921 -159 908 -178 c 1,294,295
790 628 m 0,298,299
 790 604 790 604 789 579.5 c 128,-1,300
 788 555 788 555 786 530 c 1,301,302
 759 572 759 572 759 630 c 0,303,304
 759 662 759 662 777 698 c 1,305,306
 790 662 790 662 790 628 c 0,298,299
909 832 m 1,307,-1
 900 844 l 2,308,309
 892 853 892 853 890 853 c 2,310,-1
 884 853 l 1,311,312
 892 840 892 840 892 836 c 0,313,314
 892 830 892 830 887 828 c 0,315,316
 864 822 864 822 854 819 c 1,317,318
 829 871 829 871 796 908 c 1,319,320
 861 961 861 961 989 963 c 0,321,322
 990.410714286 963 990.410714286 963 991.817602041 963 c 0,323,324
 1069.19642857 963.008928571 1069.19642857 963.008928571 1135 909 c 1,325,326
 1124 895 1124 895 1117 885 c 128,-1,327
 1110 875 1110 875 1105 868 c 1,328,329
 1064 900 1064 900 1018 900 c 0,330,331
 979 900 979 900 979 884 c 0,332,333
 979 874 979 874 999 874 c 0,334,335
 1005 874 1005 874 1012 878.5 c 128,-1,336
 1019 883 1019 883 1023 883 c 0,337,338
 1061 883 1061 883 1096 853 c 1,339,340
 1068 808 1068 808 1047 747 c 1,341,342
 1031 784 1031 784 994.5 808 c 128,-1,343
 958 832 958 832 918 832 c 2,344,-1
 909 832 l 1,307,-1
1020 565 m 1,345,346
 1058 565 1058 565 1083 602 c 0,347,348
 1083.16666667 602.833333333 1083.16666667 602.833333333 1083.16666667 603.666666667 c 0,349,350
 1083.16666667 607.833333333 1083.16666667 607.833333333 1079 612 c 0,351,352
 1069 618 1069 618 1059.5 625.5 c 128,-1,353
 1050 633 1050 633 1050 646 c 0,354,355
 1050 655 1050 655 1053.5 673.5 c 128,-1,356
 1057 692 1057 692 1057 701 c 2,357,-1
 1056 708 l 2,358,359
 1055 715 1055 715 1053 729 c 1,360,361
 1071 778 1071 778 1113 836 c 1,362,363
 1162 781 1162 781 1170 714 c 1,364,365
 1144 759 1144 759 1108 759 c 0,366,367
 1099 759 1099 759 1099 749 c 0,368,369
 1099 746 1099 746 1108 742 c 0,370,371
 1158 719 1158 719 1168 686 c 1,372,373
 1145.67857143 708.321428571 1145.67857143 708.321428571 1124.15433673 708.321428571 c 0,374,375
 1121.57142857 708.321428571 1121.57142857 708.321428571 1119 708 c 0,376,377
 1118 703 1118 703 1117.5 698.5 c 128,-1,378
 1117 694 1117 694 1117 689 c 0,379,380
 1117 671 1117 671 1140 640 c 1,381,382
 1123 622 1123 622 1106 602.5 c 128,-1,383
 1089 583 1089 583 1072 561 c 1,384,385
 1064 561 1064 561 1052 556 c 0,386,387
 1031 547 1031 547 1023 547 c 0,388,389
 1016 547 1016 547 1016 552 c 0,390,391
 1016 558 1016 558 1020 565 c 1,345,346
964 431 m 1,392,393
 969 442 969 442 975 453.5 c 128,-1,394
 981 465 981 465 987 476 c 0,395,396
 998 494 998 494 1028 502 c 1,397,398
 1018 486 1018 486 1011.5 475 c 128,-1,399
 1005 464 1005 464 1000 456 c 0,400,401
 981.032258065 430.709677419 981.032258065 430.709677419 966.959417274 430.709677419 c 0,402,403
 965.451612903 430.709677419 965.451612903 430.709677419 964 431 c 1,392,393
1124 851 m 1,404,405
 1135 865 1135 865 1143 874.5 c 128,-1,406
 1151 884 1151 884 1156 891 c 1,407,408
 1221 823 1221 823 1233 727 c 1,409,410
 1218 713 1218 713 1207 703.5 c 128,-1,411
 1196 694 1196 694 1188 687 c 1,412,413
 1184 785 1184 785 1124 851 c 1,404,405
1151 624 m 1,414,415
 1156 616 1156 616 1156 608 c 0,416,417
 1156 590 1156 590 1131 558 c 1,418,419
 1105 561 1105 561 1092 561 c 1,420,421
 1106 578 1106 578 1120.5 594 c 128,-1,422
 1135 610 1135 610 1151 624 c 1,414,415
1187 659 m 1,423,-1
 1235 703 l 1,424,-1
 1235 691 l 2,425,426
 1235 617 1235 617 1191 546 c 1,427,428
 1182 549 1182 549 1171.5 551.5 c 128,-1,429
 1161 554 1161 554 1148 556 c 1,430,431
 1183 606 1183 606 1187 659 c 1,423,-1
1052 466 m 1,432,433
 1067 478 1067 478 1084 491 c 0,434,435
 1099.78571429 503.071428571 1099.78571429 503.071428571 1115.57142857 503.071428571 c 2,436,-1
 1118 503 l 2,437,438
 1128 501 1128 501 1148 491 c 1,439,440
 1086 429 1086 429 1005 429 c 2,441,-1
 1000 429 l 1,442,443
 1039 510 1039 510 1086 510 c 2,444,-1
 1089 510 l 1,445,446
 1062 486 1062 486 1041 471 c 1,447,-1
 1052 466 l 1,432,433
937 436 m 1,448,-1
 937 437 l 2,449,450
 937 459 937 459 972 480 c 1,451,452
 967 470 967 470 961.5 458.5 c 128,-1,453
 956 447 956 447 949 433 c 1,454,-1
 937 436 l 1,448,-1
985 736 m 0,455,456
 985 718 985 718 982 690 c 0,457,458
 979 657 979 657 979 644 c 0,459,460
 978.857142857 639.714285714 978.857142857 639.714285714 978.857142857 635.658163265 c 0,461,462
 978.857142857 582.928571429 978.857142857 582.928571429 1003 569 c 1,463,-1
 991 530 l 1,464,465
 957 507 957 507 932 470 c 1,466,467
 943 504 943 504 949.5 541.5 c 128,-1,468
 956 579 956 579 958 621 c 0,469,470
 958.972972973 638.016301437 958.972972973 638.016301437 958.972972973 654.033333333 c 0,471,472
 958.972972973 736.854139274 958.972972973 736.854139274 933 793 c 1,473,474
 983 780 983 780 985 736 c 0,455,456
900 637 m 0,475,476
 899 674 899 674 891 711 c 128,-1,477
 883 748 883 748 869 786 c 1,478,479
 891 795 891 795 916 795 c 1,480,481
 941 738 941 738 942 642 c 0,482,483
 942.105263158 636.421052632 942.105263158 636.421052632 942.105263158 630.880886427 c 0,484,485
 942.105263158 583.789473684 942.105263158 583.789473684 934.5 539.5 c 0,486,487
 926 490 926 490 907 442 c 1,488,489
 896 446 896 446 888.5 449 c 128,-1,490
 881 452 881 452 876 454 c 1,491,492
 900.038461538 532.846153846 900.038461538 532.846153846 900.038461538 629.25887574 c 0,493,494
 900 633.115384615 900 633.115384615 900 637 c 0,475,476
864 417 m 1,495,496
 875 412 875 412 882 409.5 c 128,-1,497
 889 407 889 407 892 406 c 1,498,499
 793 197 793 197 544 136 c 1,500,501
 784 219 784 219 862 416 c 1,502,-1
 864 417 l 1,495,496
534 1063 m 1,503,504
 565 1141 565 1141 625 1141 c 1,505,506
 624.181818182 1141 624.181818182 1141 624.181818182 1140.62809917 c 0,507,508
 624.181818182 1139.63636364 624.181818182 1139.63636364 630 1136 c 0,509,510
 640 1126 640 1126 651 1126 c 0,511,512
 658 1126 658 1126 658 1131 c 0,513,514
 658 1134 658 1134 657.5 1138 c 128,-1,515
 657 1142 657 1142 654 1146.5 c 128,-1,516
 651 1151 651 1151 643.5 1154 c 128,-1,517
 636 1157 636 1157 623 1157 c 128,-1,518
 610 1157 610 1157 592 1152 c 1,519,520
 642 1193 642 1193 717 1193 c 0,521,522
 763 1193 763 1193 805 1172 c 1,523,524
 802 1167 802 1167 802 1162 c 0,525,526
 802 1153 802 1153 805.5 1144 c 128,-1,527
 809 1135 809 1135 814.5 1127.5 c 128,-1,528
 820 1120 820 1120 826 1115 c 128,-1,529
 832 1110 832 1110 837 1110 c 0,530,531
 844 1110 844 1110 849 1119 c 1,532,533
 853 1102 853 1102 853 1098 c 0,534,535
 853 1082.57142857 853 1082.57142857 849.326530612 1082.57142857 c 0,536,537
 848.714285714 1082.57142857 848.714285714 1082.57142857 848 1083 c 1,538,-1
 858 1076 l 1,539,540
 863 1091 863 1091 863 1098 c 0,541,542
 863 1106 863 1106 859 1116 c 128,-1,543
 855 1126 855 1126 855 1132 c 2,544,-1
 855 1136 l 1,545,546
 884.121212121 1102.18181818 884.121212121 1102.18181818 884.121212121 1060.4214876 c 0,547,548
 884.121212121 1057.72727273 884.121212121 1057.72727273 884 1055 c 0,549,550
 870 1004 870 1004 860 980 c 1,551,552
 816 960 816 960 779 925 c 1,553,554
 721 983 721 983 648 1007 c 1,555,556
 657 1102 657 1102 717 1104 c 0,557,558
 736 1104 736 1104 752 1094 c 128,-1,559
 768 1084 768 1084 769 1067 c 0,560,561
 769.105263158 1065.94736842 769.105263158 1065.94736842 769.105263158 1064.90027701 c 0,562,563
 769.105263158 1056 769.105263158 1056 761.5 1047.5 c 0,564,565
 753 1038 753 1038 753 1028 c 0,566,567
 753 1025 753 1025 755 1017 c 0,568,569
 758 1007 758 1007 763 1007 c 128,-1,570
 768 1007 768 1007 769 1026 c 0,571,572
 770 1034 770 1034 777.5 1045 c 128,-1,573
 785 1056 785 1056 785 1065 c 0,574,575
 785 1091 785 1091 764 1106 c 0,576,577
 744.3125 1120.0625 744.3125 1120.0625 719.3515625 1120.0625 c 0,578,579
 717.6875 1120.0625 717.6875 1120.0625 716 1120 c 0,580,581
 642 1119 642 1119 634 1012 c 1,582,583
 581 1026 581 1026 528 1026 c 2,584,-1
 526 1026 l 1,585,586
 526 1027 526 1027 526 1029 c 128,-1,587
 526 1031 526 1031 527 1036 c 0,588,589
 530 1063 530 1063 533 1063 c 2,590,-1
 534 1063 l 1,503,504
848 269 m 1,591,592
 855 276 855 276 861.5 283 c 128,-1,593
 868 290 868 290 875 298 c 1,594,595
 875 288 875 288 848 269 c 1,591,592
958.972972973 390 m 1,596,597
 956.986486486 385 956.986486486 385 955 385 c 0,598,599
 953 386 953 386 951 388.5 c 0,600,601
 949.666666667 390.166666667 949.666666667 390.166666667 949.666666667 390.722222222 c 0,602,603
 949.666666667 391 949.666666667 391 950 391 c 0,604,605
 950.666666667 391.333333333 950.666666667 391.333333333 951.888888889 391.333333333 c 0,606,607
 954.31981982 391.333333333 954.31981982 391.333333333 958.972972973 390 c 1,596,597
952 14 m 1,608,609
 933 36 933 36 923 47 c 128,-1,610
 913 58 913 58 911 60 c 0,611,612
 890.954545455 79.0909090909 890.954545455 79.0909090909 890.954545455 86.3367768595 c 0,613,614
 890.954545455 86.6818181818 890.954545455 86.6818181818 891 87 c 0,615,616
 891 91 891 91 905 91 c 0,617,618
 918 91 918 91 929 73 c 0,619,620
 945 46 945 46 947 44 c 2,621,-1
 968 49 l 1,622,623
 959 60 959 60 952.5 69 c 128,-1,624
 946 78 946 78 942 85 c 0,625,626
 926 107 926 107 910 107 c 0,627,628
 889 107 889 107 877 90 c 1,629,630
 843 115 843 115 807 123 c 1,631,632
 865 138 865 138 899 138 c 0,633,634
 938 138 938 138 973 116 c 0,635,636
 1010 94 1010 94 1010 58 c 0,637,638
 1010 21 1010 21 952 14 c 1,608,609
972 208 m 0,639,640
 994 203 994 203 1009.5 201 c 128,-1,641
 1025 199 1025 199 1035 198 c 0,642,643
 1043 196 1043 196 1050 193.5 c 128,-1,644
 1057 191 1057 191 1064 187 c 0,645,646
 1096 170 1096 170 1099 150 c 0,647,648
 1099.09090909 149.272727273 1099.09090909 149.272727273 1099.09090909 148.553719008 c 0,649,650
 1099.09090909 141.363636364 1099.09090909 141.363636364 1090 135 c 0,651,652
 1075 124 1075 124 1073 122 c 1,653,654
 1077 121 1077 121 1085 121 c 0,655,656
 1119 121 1119 121 1148 159 c 128,-1,657
 1177 197 1177 197 1177 241 c 0,658,659
 1177 267 1177 267 1153 299 c 0,660,661
 1120 342 1120 342 1068 346 c 1,662,663
 1097 363 1097 363 1116 363 c 0,664,665
 1130 363 1130 363 1150 349 c 0,666,667
 1158 344 1158 344 1165.5 338 c 128,-1,668
 1173 332 1173 332 1181 327 c 1,669,-1
 1193 337 l 1,670,-1
 1184 343 l 2,671,672
 1175 349 1175 349 1156 361 c 0,673,674
 1133.6 374.066666667 1133.6 374.066666667 1117.29777778 374.066666667 c 0,675,676
 1116.13333333 374.066666667 1116.13333333 374.066666667 1115 374 c 0,677,678
 1076 373 1076 373 1032 348 c 1,679,680
 993 353 993 353 968 371 c 1,681,682
 979 388 979 388 989 388 c 0,683,684
 994 387 994 387 1001 387 c 0,685,686
 1009 387 1009 387 1017 387 c 0,687,688
 1132 387 1132 387 1212 434 c 1,689,690
 1273.00793651 348.380952381 1273.00793651 348.380952381 1273 305.376165281 c 0,691,692
 1273 304.682539683 1273 304.682539683 1273 304 c 0,693,694
 1271 211 1271 211 1166 126 c 0,695,696
 1155 116 1155 116 1131 98.5 c 128,-1,697
 1107 81 1107 81 1070 55 c 0,698,699
 1039 33 1039 33 1016 15 c 128,-1,700
 993 -3 993 -3 976 -17 c 1,701,-1
 970 -9 l 1,702,-1
 964 0 l 1,703,704
 1020 9 1020 9 1020 56 c 0,705,706
 1020 96 1020 96 980 124 c 0,707,708
 943 149 943 149 902 149 c 0,709,710
 878 149 878 149 841 137 c 0,711,712
 803 125 803 125 782 125 c 2,713,-1
 775 125 l 1,714,715
 834 153 834 153 925 229 c 1,716,717
 947 214 947 214 972 208 c 0,639,640
922 14 m 1,718,719
 879 24 879 24 879 63 c 0,720,721
 879 65 879 65 880 65 c 0,722,723
 885 65 885 65 900 46 c 0,724,725
 911 32 911 32 916 24 c 128,-1,726
 921 16 921 16 922 14 c 1,718,719
1102 -135 m 0,727,728
 1078 -135 1078 -135 1046 -106 c 1,729,730
 1067 -103 1067 -103 1083 -101 c 128,-1,731
 1099 -99 1099 -99 1110 -97 c 0,732,733
 1162 -90 1162 -90 1162 -86 c 1,734,-1
 1162 -89 l 2,735,736
 1162 -110 1162 -110 1143 -122.5 c 128,-1,737
 1124 -135 1124 -135 1102 -135 c 0,727,728
1023 -99 m 1,738,739
 1000 -104 1000 -104 983.5 -107.5 c 128,-1,740
 967 -111 967 -111 956 -113 c 1,741,-1
 980 -96 l 2,742,743
 986 -91 986 -91 992 -87 c 128,-1,744
 998 -83 998 -83 1005 -78 c 1,745,-1
 1023 -99 l 1,738,739
717 102 m 1,746,747
 722 104 722 104 725 105 c 128,-1,748
 728 106 728 106 730 107 c 0,749,750
 758 110 758 110 785 110 c 0,751,752
 790.99260355 110 790.99260355 110 797.485207101 109.5 c 128,-1,753
 803.99260355 109 803.99260355 109 811 108 c 0,754,755
 866 97 866 97 868 63 c 0,756,757
 869 39 869 39 887 20.5 c 128,-1,758
 905 2 905 2 929 -1 c 1,759,760
 939 -26 939 -26 941 -53 c 1,761,762
 927 -70 927 -70 917.5 -83 c 128,-1,763
 908 -96 908 -96 903 -106 c 1,764,765
 891 -21 891 -21 799 35 c 0,766,767
 721 82 721 82 626 94 c 0,768,769
 492 111 492 111 477 115 c 0,770,771
 389 137 389 137 382 188 c 0,772,773
 381.724137931 189.931034483 381.724137931 189.931034483 381.724137931 191.862068966 c 0,774,775
 381.724137931 203.931034483 381.724137931 203.931034483 392.5 216 c 0,776,777
 405 230 405 230 419 230 c 0,778,779
 435 230 435 230 460 219 c 0,780,781
 484.75 208.916666667 484.75 208.916666667 500.256944444 208.916666667 c 0,782,783
 501.666666667 208.916666667 501.666666667 208.916666667 503 209 c 0,784,785
 521 210 521 210 537.5 226.5 c 128,-1,786
 554 243 554 243 554 261 c 0,787,788
 554 277 554 277 544 277 c 0,789,790
 535 277 535 277 529 266.5 c 128,-1,791
 523 256 523 256 516 256 c 0,792,793
 505 256 505 256 500 260 c 2,794,-1
 488 267 l 2,795,796
 472 277 472 277 452 277 c 0,797,798
 450.581818182 277.036363636 450.581818182 277.036363636 449.180826446 277.036363636 c 0,799,800
 412.054545455 277.036363636 412.054545455 277.036363636 387 251.5 c 0,801,802
 361 225 361 225 361 186 c 0,803,804
 361 136 361 136 387 99 c 0,805,806
 451 6 451 6 623 -20 c 0,807,808
 629 -21 629 -21 633 -21 c 0,809,810
 638 -21 638 -21 641 -22 c 1,811,812
 618 -43 618 -43 607 -77 c 1,813,814
 588 -67 588 -67 569 -67 c 0,815,816
 552 -67 552 -67 534 -75 c 0,817,818
 513 -86 513 -86 513 -101 c 0,819,820
 513 -108 513 -108 517 -119 c 0,821,822
 525 -142 525 -142 528 -142 c 0,823,824
 534 -142 534 -142 534 -112 c 0,825,826
 534 -83 534 -83 570 -83 c 0,827,828
 602 -83 602 -83 602 -106 c 0,829,830
 602 -172 602 -172 654 -221 c 0,831,832
 700 -266 700 -266 761 -266 c 2,833,-1
 778 -266 l 1,834,835
 750 -273 750 -273 750 -310 c 0,836,837
 750 -328 750 -328 761.5 -342 c 128,-1,838
 773 -356 773 -356 791 -356 c 128,-1,839
 809 -356 809 -356 821 -342 c 128,-1,840
 833 -328 833 -328 833 -310 c 0,841,842
 833 -293 833 -293 823 -280 c 1,843,844
 828 -281 828 -281 833.5 -281.5 c 128,-1,845
 839 -282 839 -282 845 -282 c 0,846,847
 874 -282 874 -282 891 -258 c 0,848,849
 907 -238 907 -238 907 -207 c 1,850,851
 938 -172 938 -172 951 -123 c 1,852,853
 991 -114 991 -114 1032 -108 c 1,854,855
 1068 -146 1068 -146 1106 -146 c 0,856,857
 1134 -146 1134 -146 1155.5 -132.5 c 128,-1,858
 1177 -119 1177 -119 1177 -93 c 0,859,860
 1177 -84 1177 -84 1176 -83 c 1,861,862
 1251 -61 1251 -61 1251 -14 c 0,863,864
 1251 4 1251 4 1227 4 c 0,865,866
 1201 4 1201 4 1201 -5 c 0,867,868
 1201 -8 1201 -8 1204 -13 c 128,-1,869
 1207 -18 1207 -18 1210.5 -24 c 128,-1,870
 1214 -30 1214 -30 1217 -35 c 128,-1,871
 1220 -40 1220 -40 1220 -43 c 0,872,873
 1220 -54 1220 -54 1164 -68 c 0,874,875
 1132 -76 1132 -76 1100 -83 c 128,-1,876
 1068 -90 1068 -90 1036 -96 c 1,877,878
 1020.95833333 -81.75 1020.95833333 -81.75 1020.95833333 -73.7673611111 c 0,879,880
 1020.95833333 -71.6666666667 1020.95833333 -71.6666666667 1022 -70 c 0,881,882
 1030 -65 1030 -65 1036.5 -60.5 c 128,-1,883
 1043 -56 1043 -56 1050 -53 c 2,884,-1
 1066 -45 l 2,885,886
 1095 -31 1095 -31 1123 -18 c 128,-1,887
 1151 -5 1151 -5 1179 8 c 0,888,889
 1213 24 1213 24 1240 39.5 c 128,-1,890
 1267 55 1267 55 1289 70 c 0,891,892
 1400 148 1400 148 1403 258 c 0,893,894
 1403.12307692 262.430769231 1403.12307692 262.430769231 1403.12307692 266.829349112 c 0,895,896
 1403.12307692 333.907692308 1403.12307692 333.907692308 1374.5 393.5 c 0,897,898
 1344 457 1344 457 1286 499 c 1,899,900
 1350 581 1350 581 1350 706 c 0,901,902
 1350 717 1350 717 1349.5 726.5 c 128,-1,903
 1349 736 1349 736 1348 745 c 1,904,905
 1352 748 1352 748 1359 748 c 0,906,907
 1370 748 1370 748 1381 738 c 128,-1,908
 1392 728 1392 728 1392 718 c 0,909,910
 1392 711 1392 711 1384 707.5 c 128,-1,911
 1376 704 1376 704 1376 696 c 0,912,913
 1376 686 1376 686 1392 686 c 0,914,915
 1411 686 1411 686 1411 717 c 0,916,917
 1411 759 1411 759 1359 759 c 0,918,919
 1346 759 1346 759 1345 764.5 c 128,-1,920
 1344 770 1344 770 1342 778 c 1,921,922
 1381 797 1381 797 1383 799 c 0,923,924
 1403.16666667 811.833333333 1403.16666667 811.833333333 1403.16666667 832.229166667 c 0,925,926
 1403.16666667 834.083333333 1403.16666667 834.083333333 1403 836 c 0,927,928
 1401 869 1401 869 1370 872 c 0,929,930
 1368.71428571 872.047619048 1368.71428571 872.047619048 1367.48979592 872.047619048 c 0,931,932
 1343 872.047619048 1343 872.047619048 1343 853 c 0,933,934
 1343 849 1343 849 1345 843 c 1,935,936
 1367.4 847 1367.4 847 1367.4 847.8 c 0,937,938
 1367.4 848 1367.4 848 1366 848 c 1,939,940
 1382 848 1382 848 1382 828 c 0,941,942
 1382 809 1382 809 1341 786 c 1,943,944
 1316 895 1316 895 1213 955 c 1,945,946
 1282 1031 1282 1031 1282 1066 c 0,947,948
 1282 1146 1282 1146 1206 1146 c 0,949,950
 1194 1146 1194 1146 1182 1142 c 128,-1,951
 1170 1138 1170 1138 1161 1131 c 128,-1,952
 1152 1124 1152 1124 1146.5 1114.5 c 128,-1,953
 1141 1105 1141 1105 1141 1093 c 0,954,955
 1141 1088 1141 1088 1138 1083.5 c 128,-1,956
 1135 1079 1135 1079 1131 1075 c 128,-1,957
 1127 1071 1127 1071 1123.5 1066.5 c 128,-1,958
 1120 1062 1120 1062 1120 1057 c 0,959,960
 1120 1041 1120 1041 1129 1041 c 0,961,962
 1137 1041 1137 1041 1143.5 1052 c 128,-1,963
 1150 1063 1150 1063 1151 1072 c 0,964,965
 1153 1095 1153 1095 1167.5 1112.5 c 128,-1,966
 1182 1130 1182 1130 1205 1130 c 0,967,968
 1231 1130 1231 1130 1248.5 1113 c 128,-1,969
 1266 1096 1266 1096 1266 1070 c 128,-1,970
 1266 1044 1266 1044 1239 1013 c 0,971,972
 1236 1010 1236 1010 1191 968 c 1,973,974
 1105 1010 1105 1010 991 1010 c 0,975,976
 936 1010 936 1010 882 990 c 1,977,978
 900 1045 900 1045 900 1057 c 0,979,980
 900.050976801 1059.06349206 900.050976801 1059.06349206 900.038461538 1061.10783573 c 0,981,982
 900.050976801 1123.46031746 900.050976801 1123.46031746 841 1168 c 0,983,984
 788 1209 788 1209 725 1209 c 0,985,986
 638 1209 638 1209 572 1158 c 0,987,988
 507 1107 507 1107 507 1039 c 2,989,-1
 507 1025 l 1,990,991
 405 1022 405 1022 291 968 c 0,992,993
 183 916 183 916 118 916 c 0,994,995
 101 916 101 916 85 921 c 128,-1,996
 69 926 69 926 56 935 c 128,-1,997
 43 944 43 944 35 957 c 128,-1,998
 27 970 27 970 26 987 c 0,999,1000
 25.9473684211 988.105263158 25.9473684211 988.105263158 25.9473684211 989.174515235 c 0,1001,1002
 25.9473684211 1008.42105263 25.9473684211 1008.42105263 43 1016 c 0,1003,1004
 53.4 1019.2 53.4 1019.2 71.48 1019.2 c 0,1005,1006
 76 1019.2 76 1019.2 81 1019 c 0,1007,1008
 87 1018 87 1018 97.5 1016.5 c 128,-1,1009
 108 1015 108 1015 124 1011 c 0,1010,1011
 151 1005 151 1005 167 1005 c 0,1012,1013
 192 1005 192 1005 206 1011 c 0,1014,1015
 225 1019 225 1019 233.5 1033 c 128,-1,1016
 242 1047 242 1047 251 1062 c 1,1017,-1
 240 1073 l 1,1018,1019
 221 1049 221 1049 194 1047 c 0,1020,1021
 172 1047 172 1047 143 1054 c 0,1022,1023
 106 1062 106 1062 92 1062 c 0,1024,1025
 90.25 1062.05 90.25 1062.05 88.52875 1062.05 c 0,1026,1027
 55.825 1062.05 55.825 1062.05 33.5 1044 c 0,1028,1029
 10 1025 10 1025 10 990 c 0,1030,1031
 10 958 10 958 26 938 c 0,1032,1033
 70.8307692308 878.861538462 70.8307692308 878.861538462 167.521420118 878.861538462 c 0,1034,1035
 172.2 878.861538462 172.2 878.861538462 177 879 c 0,1036,1037
 202 880 202 880 224 881.5 c 128,-1,1038
 246 883 246 883 266 887 c 0,1039,1040
 296 892 296 892 326 898 c 128,-1,1041
 356 904 356 904 386 909 c 0,1042,1043
 456 921 456 921 507 921 c 2,1044,-1
 512 921 l 1,1045,1046
 531 868 531 868 569 804 c 0,1047,1048
 586 776 586 776 603.5 749 c 128,-1,1049
 621 722 621 722 638 694 c 0,1050,1051
 712.006578947 570.644736842 712.006578947 570.644736842 712 480.400623269 c 0,1052,1053
 712 479.197368421 712 479.197368421 712 478 c 0,1054,1055
 711 376 711 376 674 311 c 0,1056,1057
 642 253 642 253 554 183 c 1,1058,-1
 565 172 l 1,1059,-1
 620 220 l 2,1060,1061
 649 245 649 245 676 281 c 0,1062,1063
 732.25 358.8125 732.25 358.8125 732.25 461.234375 c 0,1064,1065
 732.25 468.0625 732.25 468.0625 732 475 c 0,1066,1067
 729 577 729 577 665 687 c 1,1068,1069
 673 700 673 700 681.5 714.5 c 128,-1,1070
 690 729 690 729 691 742 c 0,1071,1072
 691.071428571 742.714285714 691.071428571 742.714285714 691.071428571 743.433673469 c 0,1073,1074
 691.071428571 752.785714286 691.071428571 752.785714286 679 763 c 0,1075,1076
 674 767 674 767 669 771 c 128,-1,1077
 664 775 664 775 659 780 c 1,1078,1079
 658 758 658 758 644 746 c 1,1080,1081
 642 756 642 756 641 765 c 128,-1,1082
 640 774 640 774 639 784 c 0,1083,1084
 638.954545455 784.772727273 638.954545455 784.772727273 638.954545455 785.520661157 c 0,1085,1086
 638.954545455 801.227272727 638.954545455 801.227272727 659 806 c 1,1087,1088
 659 822 659 822 633 822 c 0,1089,1090
 621.470588235 822 621.470588235 822 621.470588235 806.401384083 c 0,1091,1092
 621.470588235 803.058823529 621.470588235 803.058823529 622 799 c 0,1093,1094
 624 787 624 787 625 775 c 128,-1,1095
 626 763 626 763 627 751 c 1,1096,1097
 593 806 593 806 572.5 847 c 128,-1,1098
 552 888 552 888 544 917 c 1,1099,1100
 610 904 610 904 673 850 c 0,1101,1102
 730 799 730 799 762 734 c 1,1103,1104
 732 681 732 681 732 628 c 0,1105,1106
 732 537 732 537 781 479 c 1,1107,1108
 764 369 764 369 712 293 c 0,1109,1110
 647 203 647 203 528 152 c 1,1111,-1
 544 136 l 1,1112,-1
 544 120 l 1,1113,1114
 773 178 773 178 878 350 c 1,1115,1116
 874 335 874 335 874 316 c 2,1117,-1
 874 314 l 1,1118,1119
 798 220 798 220 670 141 c 1,1120,-1
 680 136 l 1,1121,-1
 694 146 l 2,1122,1123
 699 150 699 150 705 153.5 c 128,-1,1124
 711 157 711 157 717 162 c 0,1125,1126
 746.538461538 184.153846154 746.538461538 184.153846154 750.514792899 184.153846154 c 0,1127,1128
 750.846153846 184.153846154 750.846153846 184.153846154 751 184 c 2,1129,-1
 753 183 l 1,1130,1131
 820 220 820 220 882 276 c 1,1132,1133
 889 259 889 259 904 245 c 1,1134,1135
 793 145 793 145 722 119 c 1,1136,1137
 698 117 698 117 686 116 c 128,-1,1138
 674 115 674 115 673 115 c 0,1139,1140
 665 115 665 115 654 115.5 c 128,-1,1141
 643 116 643 116 629 117 c 0,1142,1143
 594 120 594 120 586 120 c 1,1144,-1
 586 110 l 1,1145,1146
 652 104 652 104 678 104 c 2,1147,-1
 699 104 l 2,1148,1149
 708 104 708 104 712 105 c 2,1150,-1
 717 105 l 1,1151,-1
 717 102 l 1,746,747
565 214 m 1,1152,-1
 570 204 l 1,1153,1154
 688 282 688 282 691 450 c 0,1155,1156
 691 452.081081081 691 452.081081081 691 454.167275383 c 0,1157,1158
 691.013513514 529.27027027 691.013513514 529.27027027 656 611 c 2,1159,-1
 652 620 l 2,1160,1161
 624 683 624 683 552 737 c 0,1162,1163
 484 785 484 785 386 785 c 0,1164,1165
 345 785 345 785 345 832 c 128,-1,1166
 345 879 345 879 382 879 c 0,1167,1168
 389 879 389 879 403 872 c 0,1169,1170
 434 858 434 858 450 858 c 0,1171,1172
 474 858 474 858 476 885 c 0,1173,1174
 476.043478261 885.652173913 476.043478261 885.652173913 476.043478261 886.275992439 c 0,1175,1176
 476.043478261 900 476.043478261 900 455 900 c 0,1177,1178
 452 900 452 900 450.5 896.5 c 128,-1,1179
 449 893 449 893 446.5 889.5 c 128,-1,1180
 444 886 444 886 441 882.5 c 128,-1,1181
 438 879 438 879 434 879 c 0,1182,1183
 423 880 423 880 406 887.5 c 128,-1,1184
 389 895 389 895 377 895 c 0,1185,1186
 323.847457627 895 323.847457627 895 323.847457627 840.04567653 c 0,1187,1188
 323.847457627 837.101694915 323.847457627 837.101694915 324 834 c 0,1189,1190
 325 804 325 804 342 781 c 1,1191,1192
 282 772 282 772 235 741 c 1,1193,1194
 218 742 218 742 206 744 c 1,1195,1196
 209 763 209 763 225 772 c 1,1197,1198
 196 801 196 801 174 801 c 0,1199,1200
 157 801 157 801 157 789 c 0,1201,1202
 157 781 157 781 161.5 771 c 128,-1,1203
 166 761 166 761 166 759 c 0,1204,1205
 166 756.714285714 166 756.714285714 163.714285714 756.714285714 c 0,1206,1207
 162 756.714285714 162 756.714285714 159 758 c 0,1208,1209
 148 769 148 769 139 777 c 128,-1,1210
 130 785 130 785 123 790 c 0,1211,1212
 99 808 99 808 99 812 c 128,-1,1213
 99 816 99 816 102.5 819.5 c 128,-1,1214
 106 823 106 823 109.5 826 c 128,-1,1215
 113 829 113 829 116.5 832 c 128,-1,1216
 120 835 120 835 120 838 c 0,1217,1218
 120 848 120 848 106 848 c 0,1219,1220
 86 848 86 848 86 813 c 0,1221,1222
 86 776 86 776 145 749 c 1,1223,1224
 138 749 138 749 95 755 c 0,1225,1226
 52 762 52 762 52 765 c 2,1227,-1
 52 769 l 2,1228,1229
 52 821 52 821 8 850 c 0,1230,1231
 -30 874 -30 874 -86 874 c 0,1232,1233
 -114 874 -114 874 -146 857 c 1,1234,1235
 -214 919 -214 919 -214 998 c 0,1236,1237
 -214 1022 -214 1022 -207 1042 c 0,1238,1239
 -180 1115 -180 1115 -120 1115 c 0,1240,1241
 -63 1115 -63 1115 -52 1083 c 1,1242,-1
 -41 1099 l 1,1243,1244
 -46 1113 -46 1113 -75 1122 c 0,1245,1246
 -102 1130 -102 1130 -118 1130 c 0,1247,1248
 -170 1130 -170 1130 -197.5 1094.5 c 128,-1,1249
 -225 1059 -225 1059 -225 1005 c 0,1250,1251
 -225 909 -225 909 -162 846 c 1,1252,1253
 -204.022727273 807.886363636 -204.022727273 807.886363636 -204.022727273 751.626549587 c 0,1254,1255
 -204.022727273 750.318181818 -204.022727273 750.318181818 -204.022727273 749 c 0,1256,1257
 -203.011363636 654 -203.011363636 654 -123 601 c 0,1258,1259
 -56 555 -56 555 47 555 c 0,1260,1261
 88 555 88 555 142 564 c 1,1262,1263
 146 529 146 529 163 495 c 0,1264,1265
 189 438 189 438 240 405 c 128,-1,1266
 291 372 291 372 352 371 c 0,1267,1268
 379 371 379 371 408 381 c 0,1269,1270
 453 397 453 397 483 434.5 c 128,-1,1271
 513 472 513 472 516 520 c 1,1272,1273
 602 458 602 458 602 342 c 0,1274,1275
 602 276 602 276 552 223 c 1,1276,-1
 560 214 l 1,1277,-1
 565 219 l 1,1278,-1
 565 214 l 1,1152,-1
617.960561537 274.99917347 m 0,1279,1280
 621.178208951 281.07647957 621.178208951 281.07647957 623.982378569 287.474230999 c 1,1281,1282
 623.377798206 277.124064001 623.377798206 277.124064001 622.502655704 270.922519024 c 0,1283,1284
 620.595986521 268.347514422 620.595986521 268.347514422 618.620118158 265.815596096 c 1,1285,1286
 618.247486751 269.093223093 618.247486751 269.093223093 617.960561537 274.99917347 c 0,1279,1280
EndSplineSet
EndChar

StartChar: C
Encoding: 67 67 38
Width: 1287
Flags: W
LayerCount: 2
Fore
SplineSet
684 126 m 1,0,1
 684 126 684 126 694 131 c 1,2,3
 711 126 711 126 723 126 c 0,4,5
 773 126 773 126 773 164 c 0,6,7
 773 184 773 184 761 184 c 0,8,9
 759 184 759 184 757 181 c 128,-1,10
 755 178 755 178 753 178 c 0,11,12
 742 178 742 178 742 187 c 0,13,14
 742 197 742 197 764 197 c 0,15,16
 774 197 774 197 784 189 c 128,-1,17
 794 181 794 181 794 171 c 0,18,19
 794 148 794 148 770 129 c 1,20,21
 810 138 810 138 842 170 c 0,22,23
 873.03030303 202.96969697 873.03030303 202.96969697 873.03030303 240.640955005 c 0,24,25
 873.03030303 241.818181818 873.03030303 241.818181818 873 243 c 0,26,27
 872 301 872 301 810 376 c 0,28,29
 766 430 766 430 669 508 c 0,30,31
 600 564 600 564 557 642 c 0,32,33
 512 724 512 724 512 809 c 1,34,35
 496 792 496 792 484 775 c 128,-1,36
 472 758 472 758 463 741 c 1,37,38
 543.012195122 673.829268293 543.012195122 673.829268293 543.012195122 537.379684711 c 0,39,40
 543.012195122 535.695121951 543.012195122 535.695121951 543 534 c 0,41,42
 543 501 543 501 531 474 c 1,43,44
 621 448 621 448 641 353 c 1,45,46
 651 356 651 356 662 356 c 0,47,48
 707 356 707 356 748 322 c 128,-1,49
 789 288 789 288 797 288 c 0,50,51
 811 288 811 288 822 320 c 1,52,53
 829 317 829 317 832 314.5 c 128,-1,54
 835 312 835 312 836 306 c 0,55,56
 836 225 836 225 775 225 c 0,57,58
 720 225 720 225 692 262 c 0,59,60
 683 273 683 273 678 279 c 128,-1,61
 673 285 673 285 671 287 c 0,62,63
 659 299 659 299 642 299 c 1,64,65
 632 249 632 249 590 221 c 1,66,67
 596 176 596 176 641 137 c 0,68,69
 686 95 686 95 742 95 c 0,70,71
 828 95 828 95 873 147 c 0,72,73
 909 190 909 190 909 256 c 0,74,75
 909 359 909 359 786 476 c 0,76,77
 663 594 663 594 663 696 c 0,78,79
 663 746 663 746 701 798 c 1,80,81
 650 859 650 859 629 900 c 1,82,83
 615 906 615 906 601 911 c 128,-1,84
 587 916 587 916 573 920 c 0,85,86
 571 918 571 918 567 909 c 128,-1,87
 563 900 563 900 555 886 c 1,88,89
 557 888 557 888 560.5 890 c 128,-1,90
 564 892 564 892 569 895 c 0,91,92
 570.833333333 895.083333333 570.833333333 895.083333333 572.541666667 895.083333333 c 0,93,94
 591.333333333 895.083333333 591.333333333 895.083333333 595 885 c 1,95,96
 560 858 560 858 557 855 c 0,97,98
 538 836 538 836 538 812 c 0,99,100
 538 737 538 737 578 647 c 0,101,102
 623 546 623 546 682 517 c 1,103,104
 682 517 682 517 685 514 c 1,105,106
 580 619 580 619 580 712 c 0,107,108
 580 743 580 743 593 772 c 0,109,110
 608 806 608 806 629 806 c 0,111,112
 658 806 658 806 658 791 c 0,113,114
 658 789 658 789 643 780 c 0,115,116
 635 776 635 776 631.5 774 c 128,-1,117
 628 772 628 772 628 772 c 1,118,119
 596 748 596 748 595 706 c 0,120,121
 594.950617284 704.098765432 594.950617284 704.098765432 594.950617284 702.192043896 c 0,122,123
 594.950617284 626.87654321 594.950617284 626.87654321 672 543 c 0,124,125
 697 520 697 520 733 484 c 128,-1,126
 769 448 769 448 817 399 c 0,127,128
 888.116883117 319.233766234 888.116883117 319.233766234 888.116883117 246.856299545 c 0,129,130
 888.116883117 243.922077922 888.116883117 243.922077922 888 241 c 0,131,132
 886 190 886 190 844 152 c 0,133,134
 803 115 803 115 751 115 c 0,135,136
 730 115 730 115 684 126 c 1,0,1
737 841 m 1,137,138
 715 855 715 855 694 867.5 c 128,-1,139
 673 880 673 880 653 890 c 1,140,141
 677 849 677 849 710 809 c 1,142,143
 715 814 715 814 723.5 825 c 128,-1,144
 732 836 732 836 737 841 c 1,137,138
972 466 m 1,145,146
 972 466 972 466 962 466 c 1,147,148
 943 528 943 528 861 622 c 0,149,150
 836 648 836 648 800 687.5 c 128,-1,151
 764 727 764 727 715 781 c 1,152,153
 705 762 705 762 705 736 c 0,154,155
 707 696 707 696 776 638 c 0,156,157
 793 624 793 624 810 610 c 128,-1,158
 827 596 827 596 844 582 c 0,159,160
 881 550 881 550 907 522 c 0,161,162
 977 440 977 440 977 339 c 0,163,164
 977 228 977 228 916 155 c 0,165,166
 852 79 852 79 745 79 c 0,167,168
 685 79 685 79 634 115 c 0,169,170
 579 152 579 152 567 209 c 1,171,172
 549 204 549 204 537 204 c 0,173,174
 502 204 502 204 467 236 c 0,175,176
 433 267 433 267 433 309 c 0,177,178
 433 338 433 338 456 357.5 c 128,-1,179
 479 377 479 377 509 377 c 0,180,181
 519 377 519 377 529.5 373.5 c 128,-1,182
 540 370 540 370 549 363.5 c 128,-1,183
 558 357 558 357 563.5 348 c 128,-1,184
 569 339 569 339 569 329 c 0,185,186
 569 309 569 309 561 288 c 0,187,188
 550 262 550 262 533 262 c 0,189,190
 515 262 515 262 515 271 c 0,191,192
 515 283 515 283 539 315 c 0,193,194
 548 325 548 325 548 332 c 0,195,196
 548 346 548 346 535 356.5 c 128,-1,197
 522 367 522 367 507 367 c 0,198,199
 482 367 482 367 465.5 348 c 128,-1,200
 449 329 449 329 449 303 c 256,201,202
 449 277 449 277 474 249 c 0,203,204
 500 220 500 220 527 220 c 0,205,206
 543 220 543 220 564 228 c 1,207,208
 564 228 564 228 564 233 c 2,209,210
 564 315 564 315 624 347 c 1,211,212
 601 436 601 436 524 460 c 1,213,214
 489 387 489 387 409 344 c 1,215,216
 459 172 459 172 588 61 c 1,217,218
 621 74 621 74 663 74 c 0,219,220
 710 74 710 74 757 36 c 0,221,222
 805 -2 805 -2 817 -54 c 1,223,224
 869 -67 869 -67 924 -67 c 0,225,226
 1015 -67 1015 -67 1117 -13 c 0,227,228
 1223 44 1223 44 1223 100 c 0,229,230
 1223 132 1223 132 1178 186 c 0,231,232
 1134 241 1134 241 1134 257 c 0,233,234
 1134 332 1134 332 1197 341 c 1,235,236
 1199 335 1199 335 1199 334 c 0,237,238
 1199 327 1199 327 1192 320 c 1,239,240
 1172 315 1172 315 1172 306 c 0,241,242
 1172 295 1172 295 1199 264 c 0,243,244
 1255 196 1255 196 1255 166 c 0,245,246
 1255 40 1255 40 1121 -49 c 0,247,248
 1001 -130 1001 -130 864 -130 c 0,249,250
 832 -130 832 -130 802 -127 c 1,251,252
 785 -151 785 -151 749 -165 c 0,253,254
 707 -181 707 -181 699 -188 c 1,255,256
 729 -190 729 -190 744 -191 c 128,-1,257
 759 -192 759 -192 759 -192 c 1,258,259
 911 -192 911 -192 1090 -133 c 1,260,261
 1090 -133 1090 -133 1103 -145 c 1,262,263
 939 -208 939 -208 758 -208 c 0,264,265
 751 -208 751 -208 737 -207 c 128,-1,266
 723 -206 723 -206 717 -206 c 0,267,268
 698 -206 698 -206 698 -209 c 0,269,270
 701 -212 701 -212 705 -213 c 1,271,272
 705 -213 705 -213 700 -224 c 1,273,274
 679 -219 679 -219 675 -202 c 1,275,276
 581 -190 581 -190 500 -153 c 1,277,278
 526 -218 526 -218 606 -260 c 0,279,280
 679 -297 679 -297 755 -297 c 0,281,282
 803 -297 803 -297 851 -285 c 1,283,284
 818 -279 818 -279 789 -253 c 1,285,286
 789 -253 789 -253 799 -245 c 1,287,288
 820 -271 820 -271 862 -272 c 0,289,290
 865.777777778 -272.222222222 865.777777778 -272.222222222 869.580246914 -272.222222222 c 0,291,292
 882.888888889 -272.222222222 882.888888889 -272.222222222 896.5 -269.5 c 0,293,294
 914 -266 914 -266 933 -258 c 0,295,296
 1033 -216 1033 -216 1108 -150 c 1,297,298
 1108 -150 1108 -150 1119 -161 c 1,299,300
 1009 -260 1009 -260 867 -299 c 0,301,302
 814 -313 814 -313 762 -313 c 0,303,304
 750 -316 750 -316 738 -328 c 128,-1,305
 726 -340 726 -340 726 -351 c 0,306,307
 726 -361 726 -361 734 -368.5 c 128,-1,308
 742 -376 742 -376 752 -376 c 0,309,310
 763 -376 763 -376 768 -365 c 1,311,312
 768 -365 768 -365 779 -376 c 1,313,314
 762 -386 762 -386 744 -386 c 0,315,316
 716 -386 716 -386 716 -352 c 0,317,318
 716 -332 716 -332 742 -312 c 1,319,320
 659 -307 659 -307 584 -264 c 0,321,322
 502 -215 502 -215 481 -144 c 1,323,324
 307 -58 307 -58 250 94 c 0,325,326
 248 103 248 103 244 116.5 c 128,-1,327
 240 130 240 130 234 149 c 0,328,329
 219 179 219 179 182 189 c 1,330,331
 186 209 186 209 208 214 c 1,332,333
 200 225 200 225 189 225 c 0,334,335
 183 225 183 225 178 217.5 c 128,-1,336
 173 210 173 210 166 210 c 0,337,338
 151 210 151 210 151 220 c 0,339,340
 151 229 151 229 159.5 237.5 c 128,-1,341
 168 246 168 246 177 246 c 0,342,343
 209 246 209 246 234 197 c 1,344,345
 235 263 235 263 258 317 c 1,346,347
 150 334 150 334 80 433 c 0,348,349
 14 527 14 527 14 639 c 2,350,351
 14 639 14 639 14 653 c 2,352,353
 14 662 14 662 15 667 c 1,354,355
 -20 639 -20 639 -53 639 c 0,356,357
 -79 639 -79 639 -79 653 c 0,358,359
 -79 665 -79 665 -69 665 c 0,360,361
 -64 665 -64 665 -56 662.5 c 128,-1,362
 -48 660 -48 660 -43 660 c 0,363,364
 -22 660 -22 660 -20 662 c 0,365,366
 -19.8260869565 662.173913043 -19.8260869565 662.173913043 -19.8260869565 662.40831758 c 0,367,368
 -19.8260869565 664.869565217 -19.8260869565 664.869565217 -39 674 c 0,369,370
 -47 679 -47 679 -47 682 c 0,371,372
 -47 687 -47 687 -37.5 688 c 128,-1,373
 -28 689 -28 689 -27 691 c 0,374,375
 -26 692 -26 692 -21 704 c 0,376,377
 -16 712 -16 712 -13 712 c 0,378,379
 -12.6315789474 712.052631579 -12.6315789474 712.052631579 -12.2271468144 712.052631579 c 0,380,381
 -4.94736842105 712.052631579 -4.94736842105 712.052631579 14 695 c 1,382,383
 14 695 14 695 22 710 c 2,384,385
 24.25 717.5 24.25 717.5 24.25 725.5625 c 0,386,387
 24.25 728.25 24.25 728.25 24 731 c 0,388,389
 20 780 20 780 -15 780 c 0,390,391
 -21 780 -21 780 -27.5 775.5 c 128,-1,392
 -34 771 -34 771 -39 771 c 0,393,394
 -53 771 -53 771 -53 784 c 0,395,396
 -53 793 -53 793 -42.5 799.5 c 128,-1,397
 -32 806 -32 806 -23 806 c 0,398,399
 21 806 21 806 36 752 c 1,400,401
 78 852 78 852 196 907 c 0,402,403
 307 958 307 958 454 958 c 0,404,405
 462 958 462 958 473 956.5 c 128,-1,406
 484 955 484 955 499 953 c 0,407,408
 515 951 515 951 526.5 950 c 128,-1,409
 538 949 538 949 546 949 c 0,410,411
 601 949 601 949 601 996 c 0,412,413
 603 1092 603 1092 663 1145 c 0,414,415
 724 1199 724 1199 820 1199 c 0,416,417
 907 1199 907 1199 963 1146 c 1,418,419
 997 1105 997 1105 1071 1029 c 0,420,421
 1095 1005 1095 1005 1124 1005 c 0,422,423
 1180 1005 1180 1005 1180 1060 c 0,424,425
 1180 1087 1180 1087 1136 1105 c 0,426,427
 1093 1123 1093 1123 1093 1149 c 0,428,429
 1093 1177 1093 1177 1117 1177 c 0,430,431
 1122 1177 1122 1177 1129 1173 c 1,432,433
 1129 1173 1129 1173 1134 1157 c 1,434,435
 1124 1162 1124 1162 1118 1162 c 0,436,437
 1106 1162 1106 1162 1106 1152 c 0,438,439
 1106 1135 1106 1135 1151 1114 c 0,440,441
 1195 1095 1195 1095 1197 1063 c 0,442,443
 1197.15384615 1059.53846154 1197.15384615 1059.53846154 1197.15384615 1056.24852071 c 0,444,445
 1197.15384615 1016.76923077 1197.15384615 1016.76923077 1175 1002 c 0,446,447
 1158 990 1158 990 1126 990 c 0,448,449
 1078 990 1078 990 1024 1058 c 2,450,451
 1024 1058 1024 1058 994 1096 c 1,452,453
 1004 1076 1004 1076 1004 1042 c 1,454,455
 1004 1042.01851852 1004 1042.01851852 1003.99657064 1042.01851852 c 128,-1,456
 1003.81481481 1042.01851852 1003.81481481 1042.01851852 994 990 c 0,457,458
 993.428571429 986.428571429 993.428571429 986.428571429 993.428571429 983.12244898 c 0,459,460
 993.428571429 963.285714286 993.428571429 963.285714286 1014 953 c 0,461,462
 1182 873 1182 873 1182 773 c 0,463,464
 1182 689 1182 689 1118 656 c 0,465,466
 1094 644 1094 644 1058 644 c 0,467,468
 994 644 994 644 966 702 c 2,469,470
 966 702 966 702 951 735 c 2,471,472
 939 759 939 759 929 759 c 0,473,474
 907 759 907 759 906 763 c 0,475,476
 905.529411765 763.823529412 905.529411765 763.823529412 905.529411765 764.702422145 c 0,477,478
 905.529411765 771.294117647 905.529411765 771.294117647 932 781 c 0,479,480
 943 785 943 785 951 785 c 0,481,482
 1003 785 1003 785 1030 728 c 0,483,484
 1046 693 1046 693 1048 690 c 0,485,486
 1062 670 1062 670 1081 670 c 0,487,488
 1093 670 1093 670 1105.5 674.5 c 128,-1,489
 1118 679 1118 679 1127.5 687 c 128,-1,490
 1137 695 1137 695 1143.5 705.5 c 128,-1,491
 1150 716 1150 716 1150 728 c 0,492,493
 1150 772 1150 772 1068 814 c 0,494,495
 1049 823 1049 823 1030 832 c 128,-1,496
 1011 841 1011 841 992 851 c 0,497,498
 948 873 948 873 920 893 c 1,499,500
 886 874 886 874 842 874 c 0,501,502
 818 874 818 874 798 884 c 1,503,504
 797 881 797 881 769 850 c 1,505,506
 877 774 877 774 941 665 c 0,507,508
 1006 552 1006 552 1009 424 c 0,509,510
 1010 405 1010 405 1010 389.5 c 128,-1,511
 1010 374 1010 374 1009 362 c 0,512,513
 1007 329 1007 329 1003 298 c 1,514,515
 1022 350 1022 350 1045 424 c 0,516,517
 1047 429 1047 429 1049.5 437.5 c 128,-1,518
 1052 446 1052 446 1056 457 c 0,519,520
 1056.5 460.333333333 1056.5 460.333333333 1056.5 463.111111111 c 0,521,522
 1056.5 477 1056.5 477 1044 477 c 0,523,524
 1036 477 1036 477 1035 471 c 1,525,526
 1035 471 1035 471 1019 477 c 1,527,528
 1028 487 1028 487 1045 487 c 256,529,530
 1062 487 1062 487 1100 562 c 0,531,532
 1114 594 1114 594 1143 654 c 0,533,534
 1154 675 1154 675 1217 760 c 0,535,536
 1265 824 1265 824 1265 838 c 0,537,538
 1265 842 1265 842 1261.5 843.5 c 128,-1,539
 1258 845 1258 845 1254.5 846 c 128,-1,540
 1251 847 1251 847 1247.5 847.5 c 128,-1,541
 1244 848 1244 848 1244 851 c 0,542,543
 1244 864 1244 864 1262 864 c 0,544,545
 1275 864 1275 864 1276 839 c 0,546,547
 1276.11111111 837.833333333 1276.11111111 837.833333333 1276.11111111 836.608024691 c 0,548,549
 1276.11111111 815.777777778 1276.11111111 815.777777778 1244 778 c 0,550,551
 1233 765 1233 765 1218 746 c 128,-1,552
 1203 727 1203 727 1183 701 c 1,553,554
 1218 733 1218 733 1250 733 c 0,555,556
 1276 733 1276 733 1276 710 c 0,557,558
 1276 697 1276 697 1268 697 c 0,559,560
 1255 697 1255 697 1255 706 c 0,561,562
 1255 708 1255 708 1257.5 712.5 c 128,-1,563
 1260 717 1260 717 1260 719 c 0,564,565
 1260 723 1260 723 1247 723 c 0,566,567
 1204 723 1204 723 1155 650 c 0,568,569
 1109 583 1109 583 1072 471 c 1,570,571
 1093 442 1093 442 1093 411 c 0,572,573
 1093 403 1093 403 1090 381.5 c 128,-1,574
 1087 360 1087 360 1080 326 c 1,575,576
 1100 366 1100 366 1115 392 c 128,-1,577
 1130 418 1130 418 1141 430 c 0,578,579
 1182 477 1182 477 1246 477 c 0,580,581
 1271.03703704 477 1271.03703704 477 1271.03703704 457.526748971 c 0,582,583
 1271.03703704 456.777777778 1271.03703704 456.777777778 1271 456 c 0,584,585
 1271 450 1271 450 1254 450 c 0,586,587
 1246 450 1246 450 1235.5 455.5 c 128,-1,588
 1225 461 1225 461 1218 461 c 0,589,590
 1184.89189189 459.108108108 1184.89189189 459.108108108 1184.89189189 447.373265157 c 0,591,592
 1184.89189189 446.702702703 1184.89189189 446.702702703 1185 446 c 0,593,594
 1186 433 1186 433 1213 424 c 1,595,596
 1208 419 1208 419 1203.5 413 c 128,-1,597
 1199 407 1199 407 1194 402 c 0,598,599
 1182 390 1182 390 1169 390 c 0,600,601
 1159 390 1159 390 1140 399 c 1,602,603
 1124 370 1124 370 1108 340.5 c 128,-1,604
 1092 311 1092 311 1075 282 c 0,605,606
 1039 215 1039 215 998 173 c 0,607,608
 935 109 935 109 819 68 c 1,609,610
 819 68 819 68 805 79 c 1,611,612
 868 92 868 92 906 129 c 0,613,614
 940 161 940 161 968 222 c 0,615,616
 993.290322581 274.387096774 993.290322581 274.387096774 993.290322581 388.776274714 c 0,617,618
 993.290322581 401.032258065 993.290322581 401.032258065 993 414 c 0,619,620
 990 594 990 594 846 747 c 0,621,622
 804 792 804 792 751 831 c 1,623,624
 746 825 746 825 739 816 c 128,-1,625
 732 807 732 807 722 794 c 1,626,627
 748 766 748 766 785.5 725 c 128,-1,628
 823 684 823 684 874 627 c 0,629,630
 958 528 958 528 972 466 c 1,145,146
820 946 m 0,631,632
 820 944 820 944 810 908 c 0,633,634
 809.193548387 905.096774194 809.193548387 905.096774194 809.193548387 902.661810614 c 0,635,636
 809.193548387 890 809.193548387 890 831 890 c 0,637,638
 871 890 871 890 903 907 c 1,639,640
 841 963 841 963 841 1027 c 0,641,642
 841 1049 841 1049 869 1080 c 0,643,644
 879 1091 879 1091 890 1096 c 0,645,646
 891.666666667 1096.5 891.666666667 1096.5 893.166666667 1096.5 c 0,647,648
 900.666666667 1096.5 900.666666667 1096.5 904 1084 c 1,649,650
 878 1069 878 1069 878 1043 c 0,651,652
 878 1019 878 1019 912 1000 c 0,653,654
 917 997 917 997 930.5 990.5 c 128,-1,655
 944 984 944 984 967 974 c 1,656,657
 983 1006 983 1006 983 1039 c 0,658,659
 983 1099 983 1099 935 1141 c 0,660,661
 888 1183 888 1183 827 1183 c 1,662,663
 852 1173 852 1173 852 1153 c 0,664,665
 852 1126 852 1126 826 1126 c 0,666,667
 822 1126 822 1126 818 1132 c 0,668,669
 814.8 1136.8 814.8 1136.8 814.8 1140.32 c 0,670,671
 814.8 1141.2 814.8 1141.2 815 1142 c 0,672,673
 816 1148 816 1148 826 1149.5 c 128,-1,674
 836 1151 836 1151 836 1157 c 0,675,676
 836 1170 836 1170 795 1181 c 1,677,678
 673 1164 673 1164 630 1069 c 0,679,680
 616 1036 616 1036 616 1002 c 0,681,682
 616 995 616 995 619 979 c 1,683,684
 619 979 619 979 622 979 c 2,685,686
 672 979 672 979 682 945 c 1,687,688
 682 945 682 945 669 943 c 1,689,690
 664 969 664 969 640 969 c 0,691,692
 622 969 622 969 622 959 c 0,693,694
 622 954 622 954 636 921 c 1,695,696
 698 899 698 899 755 861 c 1,697,698
 760 866 760 866 766.5 874 c 128,-1,699
 773 882 773 882 781 893 c 1,700,701
 748 914 748 914 724 949.5 c 128,-1,702
 700 985 700 985 700 1021 c 0,703,704
 700 1067 700 1067 747 1105 c 1,705,706
 747 1105 747 1105 758 1100 c 1,707,708
 743 1087 743 1087 734 1079.5 c 128,-1,709
 725 1072 725 1072 723 1068 c 0,710,711
 710.75 1053.125 710.75 1053.125 710.75 1029.0625 c 0,712,713
 710.75 1025.625 710.75 1025.625 711 1022 c 0,714,715
 712 988 712 988 733 955.5 c 128,-1,716
 754 923 754 923 784 905 c 1,717,718
 784 905 784 905 784 911 c 2,719,720
 784 922 784 922 760 948 c 0,721,722
 737 976 737 976 737 1011 c 0,723,724
 737 1049 737 1049 789 1094 c 1,725,726
 791 1094.16666667 791 1094.16666667 792.666666667 1094.16666667 c 0,727,728
 801 1094.16666667 801 1094.16666667 801 1090 c 0,729,730
 801 1083 801 1083 785 1058 c 0,731,732
 779 1047 779 1047 779 1043 c 0,733,734
 779 1028 779 1028 799 996 c 0,735,736
 820 964 820 964 820 946 c 0,631,632
586 938 m 1,737,738
 602.727272727 932.181818182 602.727272727 932.181818182 607.818181818 932.181818182 c 0,739,740
 609.727272727 932.181818182 609.727272727 932.181818182 610 933 c 0,741,742
 610.5 934 610.5 934 610.5 935.9375 c 0,743,744
 610.5 941.75 610.5 941.75 606 956 c 1,745,746
 594 949 594 949 586 938 c 1,737,738
351 780 m 0,747,748
 380 780 380 780 416 768 c 1,749,750
 441 796 441 796 467 819.5 c 128,-1,751
 493 843 493 843 521 863 c 1,752,753
 531 899 531 899 551 926 c 1,754,755
 525 931 525 931 501.5 934 c 128,-1,756
 478 937 478 937 457 937 c 0,757,758
 442 937 442 937 427 930 c 0,759,760
 419 927 419 927 418 923 c 0,761,762
 417.733333333 922.2 417.733333333 922.2 417.733333333 921.435555556 c 0,763,764
 417.733333333 916.466666667 417.733333333 916.466666667 429 913 c 1,765,766
 424 908 424 908 420 903 c 128,-1,767
 416 898 416 898 412 893 c 0,768,769
 402 880 402 880 391 880 c 0,770,771
 367 880 367 880 353 909 c 1,772,773
 318 892 318 892 318 867 c 0,774,775
 318 861 318 861 325 857 c 128,-1,776
 332 853 332 853 332 850 c 0,777,778
 332 845 332 845 326 841.5 c 0,779,780
 321.333333333 838.777777778 321.333333333 838.777777778 317.271604938 838.777777778 c 0,781,782
 316.111111111 838.777777778 316.111111111 838.777777778 315 839 c 0,783,784
 302 840 302 840 302 869 c 0,785,786
 302 904 302 904 374 933 c 1,787,788
 226 918 226 918 138 850 c 0,789,790
 41 774 41 774 41 639 c 2,791,792
 41 639 41 639 41 635 c 1,793,794
 46 650 46 650 55 653 c 0,795,796
 58.52 653.64 58.52 653.64 61.8864 653.64 c 0,797,798
 79.56 653.64 79.56 653.64 93 636 c 0,799,800
 98.4444444444 629 98.4444444444 629 98.4444444444 620.790123457 c 0,801,802
 98.4444444444 618.444444444 98.4444444444 618.444444444 98 616 c 0,803,804
 96 602 96 602 80 592 c 2,805,806
 80 592 80 592 48 572 c 1,807,808
 68 477 68 477 119 415 c 0,809,810
 181 340 181 340 267 336 c 1,811,812
 283.055555556 361.5 283.055555556 361.5 283.055555556 380.75617284 c 0,813,814
 283.055555556 381.888888889 283.055555556 381.888888889 283 383 c 0,815,816
 282 393 282 393 281.5 405.5 c 128,-1,817
 281 418 281 418 281 432 c 0,818,819
 281 607 281 607 405 755 c 1,820,821
 382 765 382 765 344 765 c 0,822,823
 307 765 307 765 257 739 c 0,824,825
 208 714 208 714 208 689 c 0,826,827
 208 671 208 671 226 647 c 0,828,829
 240 628 240 628 254.5 608 c 128,-1,830
 269 588 269 588 272 566 c 0,831,832
 272.034482759 565.24137931 272.034482759 565.24137931 272.034482759 564.479191439 c 0,833,834
 272.034482759 543.137931034 272.034482759 543.137931034 245 519 c 0,835,836
 244.25 518.5 244.25 518.5 243.375 518.5 c 0,837,838
 240.75 518.5 240.75 518.5 237 523 c 0,839,840
 232 529 232 529 232 533 c 0,841,842
 232 534 232 534 235 534.5 c 128,-1,843
 238 535 238 535 239 539 c 0,844,845
 239.5 541 239.5 541 239.5 542.5 c 128,-1,846
 239.5 544 239.5 544 239 545 c 0,847,848
 229 557 229 557 219.5 569 c 128,-1,849
 210 581 210 581 200 592 c 0,850,851
 177 621 177 621 177 646 c 0,852,853
 179 733 179 733 282 767 c 1,854,855
 265 768 265 768 249 770.5 c 128,-1,856
 233 773 233 773 217 778 c 0,857,858
 172 791 172 791 171 815 c 0,859,860
 170.8 817.3 170.8 817.3 170.8 819.37 c 0,861,862
 170.8 838 170.8 838 187 838 c 0,863,864
 198 838 198 838 198 822 c 0,865,866
 198 819 198 819 195 814 c 128,-1,867
 192 809 192 809 192 806 c 0,868,869
 192 797 192 797 252 790 c 0,870,871
 269 789 269 789 293.5 786.5 c 128,-1,872
 318 784 318 784 351 780 c 0,747,748
392 438 m 1,873,874
 394 416 394 416 397 398.5 c 128,-1,875
 400 381 400 381 403 368 c 1,876,877
 473 405 473 405 507 463 c 1,878,879
 492 466 492 466 476 466 c 0,880,881
 435 466 435 466 392 438 c 1,873,874
471 482 m 0,882,883
 502 482 502 482 515 478 c 1,884,885
 524 497 524 497 527 519 c 0,886,887
 527 521.4 527 521.4 524.76 521.4 c 0,888,889
 521.4 521.4 521.4 521.4 513 516 c 0,890,891
 499.933333333 508.533333333 499.933333333 508.533333333 499.933333333 508.035555556 c 0,892,893
 499.933333333 508 499.933333333 508 500 508 c 1,894,895
 490 508 490 508 482.5 518 c 128,-1,896
 475 528 475 528 475 538 c 0,897,898
 475 557 475 557 496 581 c 1,899,900
 502 564 502 564 514 563 c 1,901,902
 493 630 493 630 463 630 c 0,903,904
 456 630 456 630 453.5 620.5 c 128,-1,905
 451 611 451 611 446 611 c 0,906,907
 439 611 439 611 432.5 619 c 128,-1,908
 426 627 426 627 426 634 c 256,909,910
 426 641 426 641 434.5 646.5 c 128,-1,911
 443 652 443 652 451 652 c 0,912,913
 498 652 498 652 525 577 c 1,914,915
 513 674 513 674 455 726 c 1,916,917
 391 611 391 611 391 466 c 2,918,919
 391 466 391 466 391 464 c 1,920,921
 391 471 391 471 428 478 c 0,922,923
 441 480 441 480 452 481 c 128,-1,924
 463 482 463 482 471 482 c 0,882,883
491 -104 m 0,925,926
 491 -118 491 -118 494 -130 c 1,927,928
 538 -152 538 -152 584 -165.5 c 128,-1,929
 630 -179 630 -179 679 -186 c 1,930,931
 687 -176 687 -176 726 -159 c 0,932,933
 766 -143 766 -143 783 -124 c 1,934,935
 631 -105 631 -105 516 -22 c 1,936,937
 491 -62 491 -62 491 -104 c 0,925,926
500 -10 m 1,938,939
 337 112 337 112 294 314 c 1,940,941
 294 314 294 314 291 314 c 2,942,943
 277 314 277 314 268 254 c 0,944,945
 264 228 264 228 262 212 c 128,-1,946
 260 196 260 196 260 188 c 0,947,948
 261 60 261 60 369 -43 c 1,949,950
 352 -6 352 -6 352 15 c 0,951,952
 352 58 352 58 377 58 c 0,953,954
 397 58 397 58 397 47 c 0,955,956
 397 37 397 37 387 37 c 0,957,958
 384 37 384 37 381 39.5 c 128,-1,959
 378 42 378 42 375 42 c 0,960,961
 365 41 365 41 365 11 c 0,962,963
 365 -13 365 -13 375 -14 c 0,964,965
 384 -14 384 -14 391 11 c 1,966,967
 397 0 397 0 412 -10 c 0,968,969
 423 -18 423 -18 423 -26 c 0,970,971
 423 -37 423 -37 414.5 -45 c 128,-1,972
 406 -53 406 -53 397 -61 c 1,973,974
 423 -92 423 -92 476 -121 c 1,975,976
 475 -118 475 -118 475 -104 c 0,977,978
 475 -53 475 -53 500 -10 c 1,938,939
602 49 m 1,979,980
 687 -21 687 -21 798 -50 c 1,981,982
 786 -6 786 -6 742 26 c 128,-1,983
 698 58 698 58 657 58 c 0,984,985
 627 58 627 58 602 49 c 1,979,980
625 296 m 1,986,987
 592 285 592 285 589 242 c 1,988,989
 613 261 613 261 625 296 c 1,986,987
1143 -95 m 0,990,991
 1154 -95 1154 -95 1163 -103 c 128,-1,992
 1172 -111 1172 -111 1172 -122 c 256,993,994
 1172 -133 1172 -133 1163 -141.5 c 128,-1,995
 1154 -150 1154 -150 1143 -150 c 256,996,997
 1132 -150 1132 -150 1123.5 -141.5 c 128,-1,998
 1115 -133 1115 -133 1115 -122 c 0,999,1000
 1115 -95 1115 -95 1143 -95 c 0,990,991
1148 -113 m 256,1001,1002
 1136 -113 1136 -113 1136 -123 c 0,1003,1004
 1136 -134 1136 -134 1148 -134 c 256,1005,1006
 1160 -134 1160 -134 1160 -123 c 0,1007,1008
 1160 -113 1160 -113 1148 -113 c 256,1001,1002
1171 -98 m 1,1009,1010
 1171 -98 1171 -98 1161 -93 c 1,1011,1012
 1181 -79 1181 -79 1194.5 -68 c 128,-1,1013
 1208 -57 1208 -57 1215 -50 c 0,1014,1015
 1248 -19 1248 -19 1250 4 c 0,1016,1017
 1250 10 1250 10 1242 15.5 c 128,-1,1018
 1234 21 1234 21 1234 26 c 0,1019,1020
 1234 39 1234 39 1246 42 c 0,1021,1022
 1246.93333333 42.1333333333 1246.93333333 42.1333333333 1247.80444444 42.1333333333 c 0,1023,1024
 1260 42.1333333333 1260 42.1333333333 1260 16 c 0,1025,1026
 1260 -35 1260 -35 1171 -98 c 1,1009,1010
1179 -114 m 1,1027,1028
 1179 -114 1179 -114 1176 -106 c 1,1029,1030
 1202 -98 1202 -98 1215 -98 c 0,1031,1032
 1232 -98 1232 -98 1250 -106 c 0,1033,1034
 1271 -117 1271 -117 1271 -132 c 0,1035,1036
 1271 -150 1271 -150 1255 -150 c 256,1037,1038
 1239 -150 1239 -150 1239 -139 c 0,1039,1040
 1239 -135 1239 -135 1247 -133 c 128,-1,1041
 1255 -131 1255 -131 1255 -127 c 0,1042,1043
 1255 -120 1255 -120 1240 -114.5 c 128,-1,1044
 1225 -109 1225 -109 1216 -109 c 0,1045,1046
 1208 -109 1208 -109 1199 -110.5 c 128,-1,1047
 1190 -112 1190 -112 1179 -114 c 1,1027,1028
975 32 m 1,1048,1049
 993 45 993 45 993 62 c 0,1050,1051
 993 65 993 65 988 69.5 c 128,-1,1052
 983 74 983 74 983 79 c 0,1053,1054
 983 95 983 95 997 95 c 0,1055,1056
 1009 95 1009 95 1009 75 c 0,1057,1058
 1009 30 1009 30 948 11 c 1,1059,1060
 948 11 948 11 963 11 c 2,1061,1062
 997 11 997 11 1034 25 c 0,1063,1064
 1075 42 1075 42 1095 66 c 0,1065,1066
 1108 80 1108 80 1108 97 c 0,1067,1068
 1108 126 1108 126 1090 126 c 0,1069,1070
 1084 126 1084 126 1078 118 c 128,-1,1071
 1072 110 1072 110 1066 110 c 0,1072,1073
 1049 110 1049 110 1048 126 c 0,1074,1075
 1047.96153846 126.730769231 1047.96153846 126.730769231 1047.96153846 127.433431953 c 0,1076,1077
 1047.96153846 145 1047.96153846 145 1072 145 c 0,1078,1079
 1094 145 1094 145 1109 130.5 c 128,-1,1080
 1124 116 1124 116 1124 95 c 0,1081,1082
 1124 55 1124 55 1065 26 c 0,1083,1084
 1011 0 1011 0 955 0 c 0,1085,1086
 860 0 860 0 763 58 c 1,1087,1088
 763 58 763 58 768 63 c 1,1089,1090
 852 22 852 22 925 14 c 1,1091,1092
 924.923076923 15 924.923076923 15 924.923076923 16.0147928994 c 0,1093,1094
 924.923076923 28.1923076923 924.923076923 28.1923076923 936 42.5 c 0,1095,1096
 948 58 948 58 961 58 c 0,1097,1098
 975.45 58 975.45 58 975.45 39.215 c 0,1099,1100
 975.45 35.9 975.45 35.9 975 32 c 1,1048,1049
1082 404 m 0,1101,1102
 1082 439 1082 439 1068 461 c 1,1103,1104
 1068 461 1068 461 1062 443 c 2,1105,1106
 1052 412 1052 412 1042 381.5 c 128,-1,1107
 1032 351 1032 351 1022 320 c 0,1108,1109
 998 250 998 250 969.5 201 c 128,-1,1110
 941 152 941 152 914 123 c 1,1111,1112
 1025 190 1025 190 1067 311 c 0,1113,1114
 1082 353 1082 353 1082 404 c 0,1101,1102
67 555 m 1,1115,1116
 67 555 67 555 77 566 c 2,1117,1118
 82 566 82 566 87 563 c 128,-1,1119
 92 560 92 560 97 560 c 0,1120,1121
 104 560 104 560 114 573 c 0,1122,1123
 129 591 129 591 130 592 c 1,1124,1125
 131 588 131 588 131.5 585 c 128,-1,1126
 132 582 132 582 132 578 c 0,1127,1128
 132 545 132 545 100 545 c 0,1129,1130
 92 545 92 545 83 549 c 0,1131,1132
 71 553 71 553 67 555 c 1,1115,1116
EndSplineSet
Validated: 1
EndChar

StartChar: D
Encoding: 68 68 39
Width: 1486
Flags: W
LayerCount: 2
Fore
SplineSet
938 578 m 128,-1,1
 920 578 920 578 920 557 c 128,-1,2
 920 536 920 536 938 536 c 128,-1,3
 956 536 956 536 956 557 c 128,-1,0
 956 578 956 578 938 578 c 128,-1,1
1030 500 m 1,4,5
 1023 516 1023 516 1014.5 534 c 128,-1,6
 1006 552 1006 552 993 552 c 0,7,8
 969.851851852 552 969.851851852 552 969.851851852 546.855967078 c 0,9,10
 969.851851852 546.444444444 969.851851852 546.444444444 970 546 c 0,11,12
 970 538 970 538 996 521 c 0,13,14
 1004 516 1004 516 1013 510.5 c 128,-1,15
 1022 505 1022 505 1030 500 c 1,4,5
1429 712 m 1,16,17
 1373 852 1373 852 1260 934 c 0,18,19
 1173 997 1173 997 1017 1053 c 0,20,21
 868 1107 868 1107 839 1131 c 1,22,23
 1067 1119 1067 1119 1230 998 c 0,24,25
 1377 889 1377 889 1429 712 c 1,16,17
904 -60 m 1,26,27
 1016 7 1016 7 1108 7 c 0,28,29
 1230 7 1230 7 1340 -30 c 0,30,31
 1459 -71 1459 -71 1459 -124 c 0,32,33
 1459 -144 1459 -144 1454 -154 c 1,34,-1
 1470 -154 l 1,35,36
 1475 -137 1475 -137 1475 -124 c 0,37,38
 1475 -78 1475 -78 1410 -40 c 0,39,40
 1381 -24 1381 -24 1345.5 -11.5 c 128,-1,41
 1310 1 1310 1 1265 9 c 1,42,43
 1339 15 1339 15 1379 31 c 0,44,45
 1475 68 1475 68 1475 162 c 0,46,47
 1475 238 1475 238 1412 238 c 0,48,49
 1404 238 1404 238 1397 231.5 c 0,50,51
 1390.875 225.8125 1390.875 225.8125 1390.875 218.9765625 c 0,52,53
 1390.875 218 1390.875 218 1391 217 c 0,54,55
 1391 213 1391 213 1407 209 c 0,56,57
 1412 207 1412 207 1417.5 206 c 128,-1,58
 1423 205 1423 205 1428 204 c 0,59,60
 1464 190 1464 190 1464 156 c 0,61,62
 1464 93 1464 93 1385 54 c 0,63,64
 1313.75 17.9 1313.75 17.9 1216.3275 17.9 c 0,65,66
 1211.2 17.9 1211.2 17.9 1206 18 c 0,67,68
 1200 18 1200 18 1190 19 c 128,-1,69
 1180 20 1180 20 1169 20.5 c 128,-1,70
 1158 21 1158 21 1147.5 22 c 128,-1,71
 1137 23 1137 23 1131 23 c 0,72,73
 1044 23 1044 23 1002 2 c 1,74,75
 1027 15 1027 15 1053 27 c 128,-1,76
 1079 39 1079 39 1107 51 c 0,77,78
 1319 143 1319 143 1402 269 c 0,79,80
 1475.30120482 379.891566265 1475.30120482 379.891566265 1475.30120482 548.187690521 c 0,81,82
 1475.30120482 558.975903614 1475.30120482 558.975903614 1475 570 c 0,83,84
 1467 800 1467 800 1299 964 c 0,85,86
 1116 1141 1116 1141 824 1148 c 1,87,88
 822 1153 822 1153 820 1159 c 128,-1,89
 818 1165 818 1165 817 1172 c 0,90,91
 816.333333333 1177 816.333333333 1177 816.333333333 1181.55555556 c 0,92,93
 816.333333333 1190.66666667 816.333333333 1190.66666667 819 1198 c 0,94,95
 827 1227 827 1227 862 1227 c 0,96,97
 892 1227 892 1227 900 1195 c 1,98,-1
 909 1201 l 1,99,100
 895 1243 895 1243 862 1243 c 0,101,102
 834 1243 834 1243 816.5 1223 c 128,-1,103
 799 1203 799 1203 799 1175 c 0,104,105
 799 1149 799 1149 806 1149 c 1,106,-1
 804 1149 l 2,107,108
 664 1149 664 1149 522 1089 c 0,109,110
 363 1021 363 1021 354 939 c 1,111,-1
 370 939 l 1,112,113
 385 1017 385 1017 537 1079 c 0,114,115
 672.172413793 1133.06896552 672.172413793 1133.06896552 797.090368609 1133.06896552 c 0,116,117
 801.551724138 1133.06896552 801.551724138 1133.06896552 806 1133 c 0,118,119
 809 1133 809 1133 812 1132 c 2,120,-1
 817 1132 l 1,121,122
 840 1104 840 1104 889 1085 c 0,123,124
 968 1054 968 1054 1026.5 1031 c 128,-1,125
 1085 1008 1085 1008 1125 994 c 0,126,127
 1312 917 1312 917 1391 763 c 0,128,129
 1446 658 1446 658 1449 566 c 0,130,131
 1449.43103448 554.706896552 1449.43103448 554.706896552 1449.43103448 543.5921522 c 0,132,133
 1449.43103448 425.775862069 1449.43103448 425.775862069 1401 328 c 0,134,135
 1355 232 1355 232 1250 154 c 0,136,137
 1231 140 1231 140 1211 128 c 128,-1,138
 1191 116 1191 116 1169 105 c 2,139,-1
 1073 57 l 2,140,141
 946 -7 946 -7 899 -49 c 1,142,-1
 904 -60 l 1,26,27
647 -178 m 0,143,144
 647 -139 647 -139 677 -107 c 0,145,146
 709 -75 709 -75 747 -75 c 0,147,148
 763 -75 763 -75 790 -82 c 1,149,-1
 791 -82 l 1,150,151
 774 -67 774 -67 742 -65 c 0,152,153
 739.151515152 -64.8787878788 739.151515152 -64.8787878788 736.361799816 -64.8787878788 c 0,154,155
 693.121212121 -64.8787878788 693.121212121 -64.8787878788 664 -94 c 0,156,157
 632 -126 632 -126 632 -173 c 0,158,159
 632 -208 632 -208 648 -237 c 0,160,161
 674 -283 674 -283 724 -308 c 0,162,163
 770 -332 770 -332 826 -332 c 0,164,165
 848 -332 848 -332 901 -318 c 0,166,167
 968 -300 968 -300 1014 -197 c 0,168,169
 1036 -143 1036 -143 1041 -137 c 0,170,171
 1064 -102 1064 -102 1091 -102 c 0,172,173
 1097 -102 1097 -102 1105 -108 c 128,-1,174
 1113 -114 1113 -114 1113 -119 c 0,175,176
 1113 -125 1113 -125 1118 -134.5 c 128,-1,177
 1123 -144 1123 -144 1129 -144 c 0,178,179
 1133 -144 1133 -144 1135 -136 c 0,180,181
 1135.07407407 -134.666666667 1135.07407407 -134.666666667 1135.07407407 -133.360768176 c 0,182,183
 1135.07407407 -117.037037037 1135.07407407 -117.037037037 1123.5 -105 c 0,184,185
 1111 -92 1111 -92 1093 -91 c 0,186,187
 1091.58064516 -90.935483871 1091.58064516 -90.935483871 1090.17793965 -90.935483871 c 0,188,189
 1048.09677419 -90.935483871 1048.09677419 -90.935483871 1021 -149 c 0,190,191
 999 -197 999 -197 985 -223.5 c 128,-1,192
 971 -250 971 -250 965 -258 c 1,193,194
 972 -241 972 -241 972 -221 c 0,195,196
 972 -117 972 -117 854 -117 c 0,197,198
 779 -117 779 -117 778 -193 c 0,199,200
 778 -206 778 -206 791 -225 c 0,201,202
 804.066666667 -245.533333333 804.066666667 -245.533333333 804.066666667 -257.355555556 c 0,203,204
 804.066666667 -258.2 804.066666667 -258.2 804 -259 c 0,205,206
 804 -262 804 -262 800.5 -265 c 128,-1,207
 797 -268 797 -268 793 -270.5 c 128,-1,208
 789 -273 789 -273 786.5 -276.5 c 128,-1,209
 784 -280 784 -280 784 -285 c 1,210,211
 803 -285 803 -285 819.5 -275.5 c 128,-1,212
 836 -266 836 -266 836 -249 c 0,213,214
 836 -237 836 -237 831 -229 c 0,215,216
 830 -228 830 -228 826 -223 c 128,-1,217
 822 -218 822 -218 814 -208 c 0,218,219
 804 -195 804 -195 804 -185 c 0,220,221
 804 -162 804 -162 824.5 -147.5 c 128,-1,222
 845 -133 845 -133 869 -133 c 0,223,224
 901 -133 901 -133 931 -160 c 0,225,226
 962 -187 962 -187 962 -218 c 0,227,228
 962 -266 962 -266 908 -294 c 0,229,230
 863.916666667 -316.041666667 863.916666667 -316.041666667 814.322916667 -316.041666667 c 0,231,232
 812.166666667 -316.041666667 812.166666667 -316.041666667 810 -316 c 0,233,234
 796 -315 796 -315 781 -312.5 c 128,-1,235
 766 -310 766 -310 752 -305 c 0,236,237
 708 -290 708 -290 679 -258 c 0,238,239
 647 -221 647 -221 647 -178 c 0,143,144
291 321 m 0,240,241
 291 346 291 346 307 368 c 1,242,243
 336 345 336 345 337 319 c 0,244,245
 337.037037037 317.962962963 337.037037037 317.962962963 337.037037037 316.932784636 c 0,246,247
 337.037037037 290.148148148 337.037037037 290.148148148 312 268 c 1,248,249
 291 292 291 292 291 321 c 0,240,241
757 -39 m 1,250,251
 788 -50 788 -50 804 -66 c 1,252,-1
 815 -54 l 1,253,254
 783 -16 783 -16 741 3 c 0,255,256
 681 32 681 32 601 43 c 0,257,258
 550 49 550 49 454 49 c 0,259,260
 399 49 399 49 367 56 c 0,261,262
 356 58 356 58 343.5 63 c 128,-1,263
 331 68 331 68 317 75 c 1,264,265
 317.631578947 80.1578947368 317.631578947 80.1578947368 317.631578947 84.9279778393 c 0,266,267
 317.631578947 125.473684211 317.631578947 125.473684211 272 138 c 1,268,269
 259.5 127.166666667 259.5 127.166666667 259.5 114.944444444 c 0,270,271
 259.5 112.5 259.5 112.5 260 110 c 1,272,273
 223 140 223 140 223 161 c 0,274,275
 223 167 223 167 228.5 173.5 c 128,-1,276
 234 180 234 180 234 186 c 0,277,278
 234 201 234 201 221 201 c 128,-1,279
 208 201 208 201 208 184 c 0,280,281
 208 145 208 145 233 113 c 0,282,283
 254.484961287 83.5576456434 254.484961287 83.5576456434 281.668731959 75.0109257054 c 1,284,285
 222.655542939 89.4513462728 222.655542939 89.4513462728 178 135 c 0,286,287
 129 187 129 187 129 249 c 0,288,289
 129 302 129 302 162 346 c 128,-1,290
 195 390 195 390 248 390 c 0,291,292
 260 390 260 390 281 382 c 1,293,294
 255 339 255 339 255 276 c 1,295,-1
 256 269 l 2,296,297
 257 262 257 262 259 248 c 1,298,299
 229 250 229 250 224 285 c 0,300,301
 223.515151515 289.121212121 223.515151515 289.121212121 223.515151515 293.007346189 c 0,302,303
 223.515151515 321.181818182 223.515151515 321.181818182 249 337 c 1,304,-1
 239 353 l 1,305,306
 201.644444444 321.111111111 201.644444444 321.111111111 201.644444444 293.372839506 c 0,307,308
 201.644444444 290.666666667 201.644444444 290.666666667 202 288 c 0,309,310
 208 235 208 235 266 228 c 1,311,312
 309 121 309 121 506 75 c 0,313,314
 519 72 519 72 541.5 67.5 c 128,-1,315
 564 63 564 63 598 58 c 0,316,317
 654 49 654 49 690 40 c 0,318,319
 791 12 791 12 841 -70 c 1,320,321
 912 -4 912 -4 1046 64 c 2,322,-1
 1145 115 l 2,323,324
 1168 126 1168 126 1189 140 c 128,-1,325
 1210 154 1210 154 1229 170 c 0,326,327
 1322 247 1322 247 1360 336 c 0,328,329
 1396 420 1396 420 1396 548 c 0,330,331
 1396 776 1396 776 1195 905 c 0,332,333
 1027 1013 1027 1013 810 1013 c 0,334,335
 741 1013 741 1013 659 991 c 0,336,337
 641 986 641 986 605 974.5 c 128,-1,338
 569 963 569 963 514 945 c 0,339,340
 308 876 308 876 202 876 c 0,341,342
 144 876 144 876 93 896 c 0,343,344
 29 921 29 921 29 971 c 0,345,346
 29 987 29 987 38 1005 c 128,-1,347
 47 1023 47 1023 62 1023 c 0,348,349
 71 1023 71 1023 82.5 1020.5 c 128,-1,350
 94 1018 94 1018 106 1015 c 128,-1,351
 118 1012 118 1012 129.5 1009.5 c 128,-1,352
 141 1006.98863636 141 1006.98863636 150 1006.97727273 c 0,353,354
 150.840909091 1006.97727273 150.840909091 1006.97727273 151.673553719 1006.97727273 c 0,355,356
 187.477272727 1006.97727273 187.477272727 1006.97727273 208 1049 c 0,357,358
 211 1053 211 1053 211 1068 c 0,359,360
 210.315789474 1076.89473684 210.315789474 1076.89473684 206.354570637 1076.89473684 c 0,361,362
 204.526315789 1076.89473684 204.526315789 1076.89473684 202 1075 c 0,363,364
 189 1065 189 1065 182.5 1060.5 c 2,365,-1
 176 1056 l 2,366,367
 163 1049 163 1049 145 1049 c 0,368,369
 135 1049 135 1049 131 1052 c 0,370,371
 102 1065 102 1065 75 1065 c 0,372,373
 43 1065 43 1065 25 1039 c 0,374,375
 9 1017 9 1017 9 983 c 0,376,377
 11 914 11 914 83 867 c 0,378,379
 163 814 163 814 283 814 c 0,380,381
 356 814 356 814 418 827 c 0,382,383
 467 838 467 838 516 849.5 c 128,-1,384
 565 861 565 861 615 872 c 0,385,386
 730 897 730 897 815 897 c 0,387,388
 983 897 983 897 1111 797 c 0,389,390
 1260 681 1260 681 1260 484 c 0,391,392
 1260 284 1260 284 1155 185 c 0,393,394
 1139 171 1139 171 1120 156 c 128,-1,395
 1101 141 1101 141 1078 126 c 0,396,397
 1069 121 1069 121 1048 108.5 c 128,-1,398
 1027 96 1027 96 995 77 c 0,399,400
 881 10 881 10 839 -32 c 1,401,402
 823 71 823 71 679 131 c 0,403,404
 637 147 637 147 560 167 c 0,405,406
 470 189 470 189 439 200 c 0,407,408
 361 226 361 226 325 256 c 1,409,410
 349 287 349 287 349 318 c 0,411,412
 349 355 349 355 317 381 c 1,413,414
 349 416 349 416 396 416 c 0,415,416
 414 416 414 416 432 407 c 0,417,418
 454 395 454 395 454 379 c 128,-1,419
 454 363 454 363 440 352 c 0,420,421
 438 350 438 350 431 346.5 c 128,-1,422
 424 343 424 343 412 338 c 0,423,424
 370 318 370 318 370 283 c 0,425,426
 370 264 370 264 386 251.5 c 128,-1,427
 402 239 402 239 422 238 c 1,428,429
 406 266 406 266 406 267 c 0,430,431
 406 279 406 279 420 287 c 0,432,433
 427 289 427 289 433 291.5 c 128,-1,434
 439 294 439 294 446 296 c 0,435,436
 485 309 485 309 485 361 c 0,437,438
 485 399 485 399 452 420 c 0,439,440
 423 437 423 437 382 437 c 0,441,442
 326 437 326 437 291 396 c 1,443,444
 267 405 267 405 244 405 c 0,445,446
 183 405 183 405 145 361 c 0,447,448
 108 318 108 318 108 255 c 0,449,450
 108 143 108 143 229 85 c 0,451,452
 322 39 322 39 440 39 c 0,453,454
 551 39 551 39 622 26 c 0,455,456
 722 8 722 8 780 -41 c 1,457,458
 739 -18 739 -18 677 -18 c 0,459,460
 622 -18 622 -18 520 -57 c 0,461,462
 419 -96 419 -96 363 -96 c 0,463,464
 349 -96 349 -96 329 -91 c 0,465,466
 260 -69 260 -69 260 -16 c 0,467,468
 260 -7 260 -7 267 0 c 0,469,470
 281.0625 18.75 281.0625 18.75 281.0625 23.4375 c 0,471,472
 281.0625 23.75 281.0625 23.75 281 24 c 0,473,474
 280 28 280 28 265 28 c 1,475,476
 243.666666667 4.88888888889 243.666666667 4.88888888889 243.666666667 -16.6419753086 c 0,477,478
 243.666666667 -19.3333333333 243.666666667 -19.3333333333 244 -22 c 0,479,480
 247 -62 247 -62 286 -87 c 0,481,482
 321 -110.011363636 321 -110.011363636 363 -112.022727273 c 0,483,484
 364.454545455 -112.022727273 364.454545455 -112.022727273 365.927169421 -112.022727273 c 0,485,486
 429.25 -112.022727273 429.25 -112.022727273 526 -70 c 0,487,488
 626 -28 626 -28 676 -28 c 0,489,490
 699 -28 699 -28 757 -39 c 1,250,251
933 142 m 0,491,492
 946 156 946 156 959 169 c 128,-1,493
 972 182 972 182 985 196 c 0,494,495
 1016 230 1016 230 1030 256 c 0,496,497
 1073 335 1073 335 1073 451 c 0,498,499
 1073 566 1073 566 993 663 c 0,500,501
 916 755 916 755 815 763 c 1,502,503
 825 779 825 779 825 795 c 0,504,505
 825 808 825 808 817 819 c 1,506,507
 981 798 981 798 1068 697 c 0,508,509
 1146 605 1146 605 1146 478 c 0,510,511
 1146 299 1146 299 978 155 c 2,512,-1
 888 78 l 1,513,514
 904 110 904 110 933 142 c 0,491,492
767 642 m 1,515,516
 804 633 804 633 830 601 c 0,517,518
 853 570 853 570 859 531 c 1,519,520
 838 548 838 548 824.5 560.5 c 128,-1,521
 811 573 811 573 804 580 c 0,522,523
 774 613 774 613 767 642 c 1,515,516
899 280 m 0,524,525
 899 242 899 242 869 211 c 0,526,527
 841 180 841 180 803 180 c 0,528,529
 773 180 773 180 752.5 198 c 128,-1,530
 732 216 732 216 731 246 c 0,531,532
 731 265 731 265 751 297 c 0,533,534
 772 330 772 330 773 346 c 1,535,536
 812 362 812 362 839 392 c 1,537,538
 899 324 899 324 899 280 c 0,524,525
778 770 m 2,539,-1
 778 766 l 2,540,541
 777 765 777 765 777 763 c 0,542,543
 679 752 679 752 642 679 c 1,544,-1
 653 672 l 1,545,546
 690 741 690 741 775 750 c 1,547,548
 757 721 757 721 745 711 c 0,549,550
 718 684 718 684 711 655 c 1,551,552
 672 645 672 645 639 615 c 0,553,554
 605 582 605 582 605 549 c 0,555,556
 605 488 605 488 663 463 c 1,557,-1
 679 473 l 1,558,559
 657 478 657 478 641.5 498 c 128,-1,560
 626 518 626 518 626 541 c 0,561,562
 626 557 626 557 633 572.5 c 128,-1,563
 640 588 640 588 651 601.5 c 128,-1,564
 662 615 662 615 677 625 c 128,-1,565
 692 635 692 635 708 640 c 1,566,567
 705 620 705 620 705 600 c 0,568,569
 707 573 707 573 717 548 c 0,570,571
 733 512 733 512 765 473 c 0,572,573
 781 453 781 453 825 407 c 1,574,575
 803 382 803 382 770 365 c 1,576,577
 762 382 762 382 740.5 393.5 c 128,-1,578
 719 405 719 405 699 405 c 0,579,580
 693 405 693 405 686 402 c 0,581,582
 665 394 665 394 664 384 c 0,583,584
 663.916666667 383.583333333 663.916666667 383.583333333 663.916666667 383.166666667 c 0,585,586
 663.916666667 378.583333333 663.916666667 378.583333333 674 374 c 1,587,588
 693 384 693 384 705 384 c 0,589,590
 710 384 710 384 710 374 c 0,591,592
 710 342 710 342 673 342 c 0,593,594
 598 342 598 342 535 413 c 0,595,596
 475 480 475 480 475 558 c 0,597,598
 475 565 475 565 480 590 c 0,599,600
 483.571428571 604.285714286 483.571428571 604.285714286 483.571428571 614.489795918 c 0,601,602
 483.571428571 618.571428571 483.571428571 618.571428571 483 622 c 1,603,604
 494 560 494 560 496 556 c 0,605,606
 506 525 506 525 543 520 c 0,607,608
 550 519 550 519 555.833333333 519 c 0,609,610
 585 519 585 519 585 544 c 0,611,612
 585 561 585 561 569 562 c 0,613,614
 564 562 564 562 560 558 c 128,-1,615
 556 554 556 554 552 549 c 128,-1,616
 548 544 548 544 544 540 c 128,-1,617
 540 536 540 536 536 536 c 0,618,619
 513 536 513 536 504 574 c 1,620,621
 521 567 521 567 532 562 c 1,622,623
 532 580 532 580 514 616 c 0,624,625
 501 638 501 638 501 654 c 0,626,627
 501 662 501 662 504 673 c 1,628,629
 525 667 525 667 537 636 c 1,630,631
 555 652 555 652 558 684 c 0,632,633
 558.052631579 684.315789474 558.052631579 684.315789474 558.052631579 684.711911357 c 0,634,635
 558.052631579 691.842105263 558.052631579 691.842105263 541 725 c 1,636,637
 597 781 597 781 664 798 c 0,638,639
 711.076923077 809.076923077 711.076923077 809.076923077 730.887573964 809.076923077 c 0,640,641
 732.538461538 809.076923077 732.538461538 809.076923077 734 809 c 0,642,643
 778 807 778 807 778 770 c 2,539,-1
500 756 m 1,644,645
 483 745 483 745 465 728.5 c 128,-1,646
 447 712 447 712 427 692 c 0,647,648
 410 675 410 675 393.5 657 c 128,-1,649
 377 639 377 639 360 622 c 0,650,651
 283 547 283 547 202 547 c 0,652,653
 113 547 113 547 90 603 c 1,654,655
 125 614 125 614 176 633 c 128,-1,656
 227 652 227 652 295 679 c 0,657,658
 363 707 363 707 414 726 c 128,-1,659
 465 745 465 745 500 756 c 1,644,645
-284 850 m 2,660,661
 -264 850 -264 850 -242 831 c 0,662,663
 -221 813 -221 813 -221 793 c 0,664,665
 -221 785 -221 785 -226 777 c 1,666,667
 -228 779 -228 779 -232.5 782.5 c 128,-1,668
 -237 786 -237 786 -242 792 c 2,669,-1
 -263 817 l 2,670,671
 -287.028571429 844.342857143 -287.028571429 844.342857143 -287.028571429 849.030204082 c 0,672,673
 -287.028571429 850 -287.028571429 850 -286 850 c 2,674,-1
 -284 850 l 2,660,661
730 828 m 1,675,-1
 718 824 l 1,676,677
 625 813 625 813 544 791 c 0,678,679
 457 765 457 765 313 710 c 0,680,681
 229 678 229 678 172.5 656.5 c 128,-1,682
 116 635 116 635 84 624 c 1,683,684
 81.75 639 81.75 639 81.75 650.0625 c 0,685,686
 81.75 653.75 81.75 653.75 82 657 c 1,687,688
 71 652 71 652 71 620 c 1,689,690
 -40 583 -40 583 -133 583 c 0,691,692
 -208 583 -208 583 -278 624 c 0,693,694
 -362 673 -362 673 -362 745 c 0,695,696
 -362 773 -362 773 -342 805 c 128,-1,697
 -322 837 -322 837 -300 846 c 1,698,699
 -287 799 -287 799 -234 764 c 1,700,701
 -240 757 -240 757 -246 751 c 128,-1,702
 -252 745 -252 745 -259 738 c 0,703,704
 -273 721 -273 721 -273 707 c 0,705,706
 -273 702 -273 702 -272 698 c 0,707,708
 -269 686 -269 686 -266 686 c 128,-1,709
 -263 686 -263 686 -263 706 c 0,710,711
 -263 723 -263 723 -250 736 c 0,712,713
 -244 741 -244 741 -238 747 c 128,-1,714
 -232 753 -232 753 -225 758 c 1,715,716
 -125 698 -125 698 11 698 c 0,717,718
 115 698 115 698 201 717 c 0,719,720
 267 734 267 734 332 750 c 128,-1,721
 397 766 397 766 463 783 c 0,722,723
 620 823 620 823 730 828 c 1,675,-1
1077 738 m 0,724,725
 1077 762.324324324 1077 762.324324324 1097.3798393 762.324324324 c 0,726,727
 1102.13513514 762.324324324 1102.13513514 762.324324324 1108 761 c 0,728,729
 1108.4 762.4 1108.4 762.4 1108.4 763.84 c 0,730,731
 1108.4 769.6 1108.4 769.6 1102 776 c 0,732,733
 1094 784 1094 784 1087 784 c 0,734,735
 1060 784 1060 784 1060 751 c 0,736,737
 1060 733 1060 733 1073 708 c 1,738,739
 969 827 969 827 799 846 c 1,740,741
 794 854 794 854 794 863 c 0,742,743
 794 867 794 867 796.5 873 c 128,-1,744
 799 879 799 879 799 882 c 1,745,746
 782 882 782 882 765.5 869 c 128,-1,747
 749 856 749 856 745 840 c 1,748,749
 616 836 616 836 389 777 c 0,750,751
 275 748 275 748 190 732.5 c 128,-1,752
 105 717 105 717 46 715 c 1,753,754
 37 755 37 755 -33 773 c 1,755,756
 -58 763 -58 763 -61 747 c 1,757,758
 -86 763 -86 763 -116 803 c 1,759,-1
 -127 793 l 1,760,761
 -89 740 -89 740 -40 717 c 1,762,763
 -68 721 -68 721 -93 725.5 c 128,-1,764
 -118 730 -118 730 -140 737 c 0,765,766
 -210 756 -210 756 -210 787 c 128,-1,767
 -210 818 -210 818 -231.5 839.5 c 128,-1,768
 -253 861 -253 861 -284 861 c 2,769,-1
 -288 861 l 2,770,771
 -289 863 -289 863 -289 873 c 0,772,773
 -289 891 -289 891 -282.5 907.5 c 128,-1,774
 -276 924 -276 924 -264.5 936.5 c 128,-1,775
 -253 949 -253 949 -238 957 c 128,-1,776
 -223 965 -223 965 -205 965 c 0,777,778
 -196 965 -196 965 -187 960.5 c 128,-1,779
 -178 956 -178 956 -170.5 949 c 128,-1,780
 -163 942 -163 942 -158 933.5 c 128,-1,781
 -153 925 -153 925 -153 916 c 0,782,783
 -153 903 -153 903 -171 882 c 128,-1,784
 -189 861 -189 861 -189 851 c 0,785,786
 -189 849 -189 849 -188.5 847 c 128,-1,787
 -188 845 -188 845 -187 841 c 0,788,789
 -182 827 -182 827 -179 827 c 0,790,791
 -174 827 -174 827 -174 850 c 0,792,793
 -174 864 -174 864 -155 877 c 0,794,795
 -137 892 -137 892 -137 915 c 0,796,797
 -137 927 -137 927 -143.5 938 c 128,-1,798
 -150 949 -150 949 -160.5 957.5 c 128,-1,799
 -171 966 -171 966 -183.5 971 c 128,-1,800
 -196 976 -196 976 -208 976 c 0,801,802
 -248 976 -248 976 -276 945 c 0,803,804
 -304 916 -304 916 -304 874 c 0,805,806
 -304 870 -304 870 -303.5 866 c 128,-1,807
 -303 862 -303 862 -302 857 c 1,808,809
 -332 846 -332 846 -352 811 c 0,810,811
 -373 776 -373 776 -373 745 c 0,812,813
 -373 646 -373 646 -263 599 c 0,814,815
 -192 568 -192 568 -106 568 c 0,816,817
 -84 568 -84 568 -64 572 c 0,818,819
 -18 580 -18 580 16 586.5 c 128,-1,820
 50 593 50 593 73 598 c 1,821,822
 92 531 92 531 208 531 c 0,823,824
 288 531 288 531 398 633 c 0,825,826
 418 653 418 653 439 672.5 c 128,-1,827
 460 692 460 692 481 712 c 0,828,829
 507 735 507 735 530 751 c 128,-1,830
 553 767 553 767 574 777 c 1,831,-1
 573 777 l 1,832,833
 581 779 581 779 587.5 780.5 c 128,-1,834
 594 782 594 782 598 784 c 1,835,836
 460.992307692 710 460.992307692 710 458.984615385 552 c 0,837,838
 458.984615385 550.784615385 458.984615385 550.784615385 458.984615385 549.570650888 c 0,839,840
 458.984615385 471.876923077 458.984615385 471.876923077 522 400 c 0,841,842
 589 324 589 324 671 324 c 0,843,844
 680 324 680 324 681 320 c 0,845,846
 681 317 681 317 679 312 c 128,-1,847
 677 307 677 307 674.5 301.5 c 128,-1,848
 672 296 672 296 670 290 c 128,-1,849
 668 284 668 284 668 280 c 0,850,851
 668 249 668 249 682 226 c 0,852,853
 721 164 721 164 810 164 c 0,854,855
 879 163.98828125 879 163.98828125 922 218.9765625 c 0,856,857
 962 268.98828125 962 268.98828125 962 341 c 0,858,859
 962 437 962 437 883 510 c 1,860,861
 883 557 883 557 846 600 c 0,862,863
 807 645 807 645 764 655 c 0,864,865
 763 657 763 657 763 671 c 0,866,867
 763 691 763 691 779 713 c 0,868,869
 786 722 786 722 793 731 c 128,-1,870
 800 740 800 740 807 750 c 1,871,872
 904 743 904 743 984 637 c 1,873,874
 979 641 979 641 959 649 c 0,875,876
 910.444444444 668.592592593 910.444444444 668.592592593 885.835390947 668.592592593 c 0,877,878
 881.555555556 668.592592593 881.555555556 668.592592593 878 668 c 0,879,880
 869 666 869 666 869 659 c 0,881,882
 869 653 869 653 873 646 c 1,883,884
 881 647 881 647 888 647.5 c 128,-1,885
 895 648 895 648 902 648 c 0,886,887
 981 648 981 648 1017 587 c 0,888,889
 1056 521 1056 521 1056 452 c 2,890,-1
 1056 443 l 1,891,892
 1030 450 1030 450 1004 489 c 1,893,894
 997 466 997 466 993.5 451.5 c 0,895,896
 990.777777778 440.222222222 990.777777778 440.222222222 990.777777778 433.481481481 c 0,897,898
 990.777777778 431.555555556 990.777777778 431.555555556 991 430 c 0,899,900
 992 418 992 418 1001 411 c 0,901,902
 1005 407 1005 407 1033 405 c 0,903,904
 1049.05555556 404.055555556 1049.05555556 404.055555556 1049.05555556 385.271604938 c 0,905,906
 1049.05555556 384.166666667 1049.05555556 384.166666667 1049 383 c 0,907,908
 1048 360 1048 360 1035 325 c 0,909,910
 1010 255 1010 255 977 212 c 0,911,912
 967 199 967 199 957 187 c 128,-1,913
 947 175 947 175 936 164 c 0,914,915
 852 75 852 75 852 2 c 1,916,-1
 867 -2 l 1,917,918
 886 24 886 24 921 56.5 c 128,-1,919
 956 89 956 89 1008 129 c 0,920,921
 1112 209 1112 209 1150 263 c 0,922,923
 1213.05970149 349.343283582 1213.05970149 349.343283582 1213.05970149 472.39296057 c 0,924,925
 1213.05970149 476.179104478 1213.05970149 476.179104478 1213 480 c 0,926,927
 1213 523 1213 523 1244 547 c 1,928,929
 1233 556 1233 556 1226 556 c 0,930,931
 1200 556 1200 556 1199 475 c 0,932,933
 1197 317 1197 317 1078 205 c 0,934,935
 1067 194 1067 194 1040 172 c 128,-1,936
 1013 150 1013 150 971 117 c 0,937,938
 937 91 937 91 911.5 67 c 128,-1,939
 886 43 886 43 869 23 c 1,940,941
 871 33 871 33 872.5 40 c 128,-1,942
 874 47 874 47 876 52 c 0,943,944
 901 72 901 72 926 93 c 128,-1,945
 951 114 951 114 977 134 c 0,946,947
 1006 159 1006 159 1030 181.5 c 128,-1,948
 1054 204 1054 204 1071 224 c 0,949,950
 1161.00543478 330.826086957 1161.00543478 330.826086957 1161 476.787334594 c 0,951,952
 1161 478.391304348 1161 478.391304348 1161 480 c 0,953,954
 1159 573 1159 573 1114 651 c 1,955,956
 1116 665 1116 665 1117.5 675 c 128,-1,957
 1119 685 1119 685 1119 692 c 0,958,959
 1119 700 1119 700 1113.5 708.5 c 128,-1,960
 1108 717 1108 717 1103 725 c 1,961,962
 1099 706 1099 706 1092 706 c 0,963,964
 1077 706 1077 706 1077 738 c 0,724,725
EndSplineSet
EndChar

StartChar: E
Encoding: 69 69 40
Width: 1289
Flags: W
LayerCount: 2
Fore
SplineSet
69 572 m 1,0,-1
 79 583 l 2,1,2
 84 583 84 583 89 580 c 128,-1,3
 94 577 94 577 99 577 c 0,4,5
 106 577 106 577 116 590 c 0,6,7
 131 608 131 608 132 609 c 1,8,9
 133 605 133 605 133.5 602 c 128,-1,10
 134 599 134 599 134 595 c 0,11,12
 134 562 134 562 102 562 c 0,13,14
 94 562 94 562 85 566 c 0,15,16
 73 570 73 570 69 572 c 1,0,-1
977 49 m 1,17,18
 995 62 995 62 995 79 c 0,19,20
 995 82 995 82 990 86.5 c 128,-1,21
 985 91 985 91 985 96 c 0,22,23
 985 112 985 112 999 112 c 0,24,25
 1011 112 1011 112 1011 92 c 0,26,27
 1011 47 1011 47 950 28 c 1,28,-1
 965 28 l 2,29,30
 999 28 999 28 1036 42 c 0,31,32
 1077 59 1077 59 1097 83 c 0,33,34
 1110 97 1110 97 1110 114 c 0,35,36
 1110 143 1110 143 1092 143 c 0,37,38
 1086 143 1086 143 1080 135 c 128,-1,39
 1074 127 1074 127 1068 127 c 0,40,41
 1051 127 1051 127 1050 143 c 0,42,43
 1049.85714286 144.428571429 1049.85714286 144.428571429 1049.85714286 145.755102041 c 0,44,45
 1049.85714286 163 1049.85714286 163 1074 163 c 0,46,47
 1094 163 1094 163 1114 145 c 0,48,49
 1126 133 1126 133 1126 112 c 0,50,51
 1126 72 1126 72 1067 43 c 0,52,53
 1013 17 1013 17 957 17 c 0,54,55
 862 17 862 17 765 75 c 1,56,-1
 770 80 l 1,57,58
 850 40 850 40 927 31 c 1,59,60
 926.923076923 31.9926035503 926.923076923 31.9926035503 926.923076923 33 c 0,61,62
 926.923076923 45.1849112426 926.923076923 45.1849112426 938 59.5 c 0,63,64
 950 75 950 75 963 75 c 0,65,66
 977.45 75 977.45 75 977.45 56.215 c 0,67,68
 977.45 52.9 977.45 52.9 977 49 c 1,17,18
1181 -97 m 1,69,-1
 1178 -89 l 1,70,71
 1204 -81 1204 -81 1217 -81 c 0,72,73
 1234 -81 1234 -81 1252 -89 c 0,74,75
 1273 -100 1273 -100 1273 -115 c 0,76,77
 1273 -133 1273 -133 1257 -133 c 128,-1,78
 1241 -133 1241 -133 1241 -122 c 0,79,80
 1241 -118 1241 -118 1249 -116 c 128,-1,81
 1257 -114 1257 -114 1257 -110 c 0,82,83
 1257 -103 1257 -103 1242 -97.5 c 128,-1,84
 1227 -92 1227 -92 1218 -92 c 0,85,86
 1210 -92 1210 -92 1201 -93.5 c 128,-1,87
 1192 -95 1192 -95 1181 -97 c 1,69,-1
1173 -81 m 1,88,-1
 1163 -76 l 1,89,90
 1183 -62 1183 -62 1196.5 -51 c 128,-1,91
 1210 -40 1210 -40 1217 -33 c 0,92,93
 1250 -2 1250 -2 1252 21 c 0,94,95
 1252 27 1252 27 1244 32.5 c 128,-1,96
 1236 38 1236 38 1236 43 c 0,97,98
 1236 56 1236 56 1248 59 c 0,99,100
 1248.93333333 59.1333333333 1248.93333333 59.1333333333 1249.80444444 59.1333333333 c 0,101,102
 1262 59.1333333333 1262 59.1333333333 1262 33 c 0,103,104
 1262 -18 1262 -18 1173 -81 c 1,88,-1
1150 -96 m 128,-1,106
 1138 -96 1138 -96 1138 -106 c 0,107,108
 1138 -117 1138 -117 1150 -117 c 128,-1,109
 1162 -117 1162 -117 1162 -106 c 0,110,105
 1162 -96 1162 -96 1150 -96 c 128,-1,106
1145 -78 m 0,111,112
 1156 -78 1156 -78 1165 -86 c 128,-1,113
 1174 -94 1174 -94 1174 -105 c 128,-1,114
 1174 -116 1174 -116 1165 -124.5 c 128,-1,115
 1156 -133 1156 -133 1145 -133 c 128,-1,116
 1134 -133 1134 -133 1125.5 -124.5 c 128,-1,117
 1117 -116 1117 -116 1117 -105 c 0,118,119
 1117 -78 1117 -78 1145 -78 c 0,111,112
627 313 m 1,120,121
 594 302 594 302 591 259 c 1,122,123
 616 281 616 281 627 313 c 1,120,121
604 66 m 1,124,125
 696 -8 696 -8 800 -33 c 1,126,127
 788 10 788 10 744 42 c 0,128,129
 700 75 700 75 659 75 c 0,130,131
 629 75 629 75 604 66 c 1,124,125
502 6 m 1,132,133
 339 130 339 130 296 331 c 1,134,-1
 293 331 l 2,135,136
 279 331 279 331 270 271 c 0,137,138
 266 245 266 245 264 229 c 128,-1,139
 262 213 262 213 262 205 c 0,140,141
 263 77 263 77 371 -26 c 1,142,143
 354 10 354 10 354 32 c 0,144,145
 354 75 354 75 379 75 c 0,146,147
 399 75 399 75 399 64 c 0,148,149
 399 54 399 54 389 54 c 0,150,151
 386 54 386 54 383 56.5 c 128,-1,152
 380 59 380 59 377 59 c 0,153,154
 367 58 367 58 367 28 c 0,155,156
 367 2 367 2 377 2 c 0,157,158
 385 2 385 2 393 28 c 1,159,160
 399 17 399 17 414 6 c 0,161,162
 425 -2 425 -2 425 -9 c 0,163,164
 425 -21 425 -21 399 -44 c 1,165,166
 425 -75 425 -75 478 -104 c 1,167,168
 477 -101 477 -101 477 -87 c 0,169,170
 477 -35 477 -35 502 6 c 1,132,133
493 -87 m 0,171,172
 493 -101 493 -101 496 -113 c 1,173,174
 540 -135 540 -135 586 -148.5 c 128,-1,175
 632 -162 632 -162 681 -169 c 1,176,177
 689 -159 689 -159 728 -142 c 0,178,179
 768 -126 768 -126 785 -107 c 1,180,181
 633 -88 633 -88 518 -5 c 1,182,183
 493 -45 493 -45 493 -87 c 0,171,172
473 499 m 0,184,185
 504 499 504 499 517 495 c 1,186,187
 526 514 526 514 529 536 c 1,188,189
 501.727272727 526 501.727272727 526 501.727272727 525.090909091 c 0,190,191
 501.727272727 525 501.727272727 525 502 525 c 1,192,193
 492 525 492 525 484.5 534.5 c 128,-1,194
 477 544 477 544 477 555 c 0,195,196
 477 574 477 574 498 598 c 1,197,198
 504 581 504 581 516 580 c 1,199,200
 495 647 495 647 465 647 c 0,201,202
 458 647 458 647 455.5 637.5 c 128,-1,203
 453 628 453 628 448 628 c 0,204,205
 441 628 441 628 434.5 636 c 128,-1,206
 428 644 428 644 428 651 c 128,-1,207
 428 658 428 658 436.5 663.5 c 128,-1,208
 445 669 445 669 453 669 c 0,209,210
 500 669 500 669 527 594 c 1,211,212
 515 691 515 691 457 743 c 1,213,214
 393 628 393 628 393 483 c 2,215,-1
 393 481 l 1,216,217
 393 488 393 488 430 495 c 0,218,219
 443 497 443 497 454 498 c 128,-1,220
 465 499 465 499 473 499 c 0,184,185
394 455 m 1,221,222
 396 433 396 433 399 415.5 c 128,-1,223
 402 398 402 398 405 385 c 1,224,225
 475 422 475 422 509 480 c 1,226,227
 494 483 494 483 478 483 c 0,228,229
 437 483 437 483 394 455 c 1,221,222
353 797 m 0,230,231
 382 797 382 797 418 785 c 1,232,233
 443 813 443 813 469 836.5 c 128,-1,234
 495 860 495 860 523 880 c 1,235,236
 533 916 533 916 553 943 c 1,237,238
 527 948 527 948 503.5 951 c 128,-1,239
 480 954 480 954 459 954 c 0,240,241
 443 954 443 954 428 948 c 0,242,243
 420 945 420 945 419 941 c 0,244,245
 418.75 940.375 418.75 940.375 418.75 939.734375 c 0,246,247
 418.75 935.25 418.75 935.25 431 930 c 1,248,249
 426 925 426 925 422 920 c 128,-1,250
 418 915 418 915 414 910 c 0,251,252
 404 897 404 897 393 897 c 0,253,254
 367 897 367 897 355 926 c 1,255,256
 320 909 320 909 320 884 c 0,257,258
 320 877 320 877 327 874 c 128,-1,259
 334 871 334 871 334 867 c 0,260,261
 334 862 334 862 328 858.5 c 0,262,263
 323.333333333 855.777777778 323.333333333 855.777777778 319.271604938 855.777777778 c 0,264,265
 318.111111111 855.777777778 318.111111111 855.777777778 317 856 c 0,266,267
 304 857 304 857 304 886 c 0,268,269
 304 921 304 921 376 950 c 1,270,271
 228 935 228 935 140 867 c 0,272,273
 43 791 43 791 43 656 c 2,274,-1
 43 652 l 1,275,-1
 55 662 l 2,276,277
 66 670 66 670 68 676 c 1,278,279
 73 671 73 671 78.5 666.5 c 128,-1,280
 84 662 84 662 89 657 c 0,281,282
 100.266666667 645.733333333 100.266666667 645.733333333 100.266666667 635.968888889 c 0,283,284
 100.266666667 634.466666667 100.266666667 634.466666667 100 633 c 0,285,286
 98 619 98 619 82 609 c 2,287,-1
 50 589 l 1,288,289
 68 497 68 497 121 432 c 0,290,291
 183 357 183 357 269 353 c 1,292,293
 285.055555556 379.444444444 285.055555556 379.444444444 285.055555556 396.969135802 c 0,294,295
 285.055555556 398 285.055555556 398 285 399 c 0,296,297
 284 409 284 409 283.5 421 c 128,-1,298
 283 433 283 433 283 449 c 0,299,300
 283 626 283 626 407 772 c 1,301,302
 376 782 376 782 346 782 c 0,303,304
 309 782 309 782 259 756 c 0,305,306
 210 731 210 731 210 706 c 0,307,308
 210 688 210 688 228 664 c 0,309,310
 242 645 242 645 256.5 625 c 128,-1,311
 271 605 271 605 274 583 c 0,312,313
 274.034482759 582.24137931 274.034482759 582.24137931 274.034482759 581.479191439 c 0,314,315
 274.034482759 560.137931034 274.034482759 560.137931034 247 536 c 0,316,317
 246.25 535.5 246.25 535.5 245.375 535.5 c 0,318,319
 242.75 535.5 242.75 535.5 239 540 c 0,320,321
 234 546 234 546 234 550 c 0,322,323
 234 551 234 551 237 551.5 c 128,-1,324
 240 552 240 552 241 556 c 0,325,326
 241.5 558 241.5 558 241.5 559.5 c 128,-1,327
 241.5 561 241.5 561 241 562 c 0,328,329
 231 574 231 574 221.5 586 c 128,-1,330
 212 598 212 598 202 609 c 0,331,332
 179 638 179 638 179 663 c 0,333,334
 181 750 181 750 284 784 c 1,335,336
 267 785 267 785 251 787.5 c 128,-1,337
 235 790 235 790 219 795 c 0,338,339
 174 808 174 808 173 832 c 0,340,341
 172.8 834.3 172.8 834.3 172.8 836.37 c 0,342,343
 172.8 855 172.8 855 189 855 c 0,344,345
 200 855 200 855 200 839 c 0,346,347
 200 836 200 836 197 831 c 128,-1,348
 194 826 194 826 194 823 c 0,349,350
 194 814 194 814 254 807 c 0,351,352
 271 806 271 806 295.5 803.5 c 128,-1,353
 320 801 320 801 353 797 c 0,230,231
588 955 m 1,354,355
 603.4 950.1 603.4 950.1 609 950.1 c 0,356,357
 611.4 950.1 611.4 950.1 612 951 c 128,-1,358
 612.5 951.75 612.5 951.75 612.5 953.5 c 0,359,360
 612.5 958.75 612.5 958.75 608 973 c 1,361,362
 596 966 596 966 588 955 c 1,354,355
822 963 m 1,363,364
 821.753125 963 821.753125 963 812 925 c 0,365,366
 811.193548387 922.096774194 811.193548387 922.096774194 811.193548387 919.661810614 c 0,367,368
 811.193548387 907 811.193548387 907 833 907 c 0,369,370
 873 907 873 907 905 924 c 1,371,372
 843 980 843 980 843 1044 c 0,373,374
 843 1081 843 1081 885 1111 c 0,375,376
 888 1111.2 888 1111.2 890.44 1111.2 c 0,377,378
 900.2 1111.2 900.2 1111.2 901 1108 c 0,379,380
 901.0625 1107.5625 901.0625 1107.5625 901.0625 1107.0625 c 0,381,382
 901.0625 1099.5625 901.0625 1099.5625 887 1078 c 0,383,384
 880 1068 880 1068 880 1060 c 0,385,386
 880 1038 880 1038 915 1017 c 0,387,388
 920 1013 920 1013 933.5 1007 c 128,-1,389
 947 1001 947 1001 969 991 c 1,390,391
 985 1023 985 1023 985 1056 c 0,392,393
 985 1116 985 1116 937 1158 c 0,394,395
 890 1200 890 1200 829 1200 c 1,396,397
 854 1190 854 1190 854 1170 c 0,398,399
 854 1160 854 1160 846 1151.5 c 128,-1,400
 838 1143 838 1143 828 1143 c 0,401,402
 816 1143 816 1143 816 1148 c 0,403,404
 816 1157 816 1157 832 1170 c 2,405,-1
 838 1174 l 1,406,407
 838 1187 838 1187 797 1198 c 1,408,409
 722 1191 722 1191 672 1142 c 0,410,411
 618 1091 618 1091 618 1019 c 0,412,413
 618 1012 618 1012 621 996 c 1,414,-1
 624 996 l 2,415,416
 674 996 674 996 684 962 c 1,417,-1
 671 960 l 1,418,419
 666 986 666 986 642 986 c 0,420,421
 624 986 624 986 624 976 c 0,422,423
 624 971 624 971 638 938 c 1,424,425
 700 916 700 916 757 878 c 1,426,427
 768 889 768 889 783 910 c 1,428,429
 750 931 750 931 726 966.5 c 128,-1,430
 702 1002 702 1002 702 1038 c 0,431,432
 702 1084 702 1084 749 1122 c 1,433,-1
 760 1117 l 1,434,435
 728 1088 728 1088 725 1085 c 0,436,437
 712.75 1070.125 712.75 1070.125 712.75 1046.0625 c 0,438,439
 712.75 1042.625 712.75 1042.625 713 1039 c 0,440,441
 714 1005 714 1005 735 972.5 c 128,-1,442
 756 940 756 940 786 922 c 1,443,-1
 786 928 l 2,444,445
 786 939 786 939 762 965 c 0,446,447
 739 993 739 993 739 1028 c 0,448,449
 739 1066 739 1066 791 1111 c 0,450,451
 793 1111.16666667 793 1111.16666667 794.666666667 1111.16666667 c 0,452,453
 803 1111.16666667 803 1111.16666667 803 1107 c 0,454,455
 803 1100 803 1100 787 1075 c 0,456,457
 781 1064 781 1064 781 1060 c 0,458,459
 781 1045 781 1045 801 1013 c 0,460,461
 822 981 822 981 822 963 c 1,363,364
707 753 m 0,462,463
 707 714 707 714 777 657 c 0,464,465
 794 643 794 643 810 629.5 c 128,-1,466
 826 616 826 616 843 602 c 0,467,468
 882 569 882 569 905 542 c 1,469,470
 909 544 909 544 915.5 546.5 c 128,-1,471
 922 549 922 549 930 552 c 1,472,473
 896 606 896 606 828 679 c 0,474,475
 800 708 800 708 772.5 738 c 128,-1,476
 745 768 745 768 717 798 c 1,477,478
 707 779 707 779 707 753 c 0,462,463
1005 315 m 1,479,480
 1017 345 1017 345 1047 441 c 2,481,-1
 1053 460 l 1,482,483
 1033 483 1033 483 1008 488 c 1,484,485
 1010 468 1010 468 1011.5 447 c 128,-1,486
 1013 426 1013 426 1013 403 c 0,487,488
 1012 380 1012 380 1010.5 358 c 128,-1,489
 1009 336 1009 336 1005 315 c 1,479,480
724 811 m 1,490,491
 753 779 753 779 796 731.5 c 128,-1,492
 839 684 839 684 897 619 c 0,493,494
 922 587 922 587 942 556 c 0,495,496
 943 556 943 556 950.5 557 c 128,-1,497
 958 558 958 558 972 560 c 1,498,499
 916 729 916 729 753 848 c 1,500,501
 748 842 748 842 741 833 c 128,-1,502
 734 824 734 824 724 811 c 1,490,491
974 483 m 1,503,-1
 964 483 l 1,504,-1
 964 485 l 2,505,506
 963 486 963 486 963 487 c 1,507,508
 960 487 960 487 955.5 486.5 c 128,-1,509
 951 486 951 486 946 485 c 1,510,511
 979 426 979 426 979 356 c 0,512,513
 979 245 979 245 918 172 c 0,514,515
 854 96 854 96 747 96 c 0,516,517
 687 96 687 96 636 132 c 0,518,519
 581 169 581 169 569 226 c 1,520,521
 551 221 551 221 539 221 c 0,522,523
 504 221 504 221 469 253 c 0,524,525
 435 284 435 284 435 326 c 0,526,527
 435 355 435 355 458 374.5 c 128,-1,528
 481 394 481 394 511 394 c 0,529,530
 521 394 521 394 531.5 390.5 c 128,-1,531
 542 387 542 387 551 380.5 c 128,-1,532
 560 374 560 374 565.5 365 c 128,-1,533
 571 356 571 356 571 346 c 0,534,535
 571 326 571 326 563 305 c 0,536,537
 552 279 552 279 535 279 c 0,538,539
 517 279 517 279 517 288 c 0,540,541
 517 300 517 300 541 332 c 0,542,543
 550 342 550 342 550 349 c 0,544,545
 550 363 550 363 537 373.5 c 128,-1,546
 524 384 524 384 509 384 c 0,547,548
 484 384 484 384 467.5 365 c 128,-1,549
 451 346 451 346 451 320 c 128,-1,550
 451 294 451 294 476 266 c 0,551,552
 502 237 502 237 529 237 c 0,553,554
 545 237 545 237 566 245 c 1,555,-1
 566 250 l 2,556,557
 566 332 566 332 626 364 c 1,558,559
 604 454 604 454 526 477 c 1,560,561
 492 402 492 402 411 361 c 1,562,563
 461 189 461 189 590 78 c 1,564,565
 623 91 623 91 665 91 c 0,566,567
 712 91 712 91 759 52 c 0,568,569
 807 15 807 15 819 -37 c 1,570,571
 871 -50 871 -50 926 -50 c 0,572,573
 1017 -50 1017 -50 1119 4 c 0,574,575
 1225 61 1225 61 1225 117 c 0,576,577
 1225 149 1225 149 1180 203 c 0,578,579
 1136 258 1136 258 1136 274 c 0,580,581
 1136 349 1136 349 1199 358 c 1,582,583
 1201 354 1201 354 1201 352 c 0,584,585
 1201 346 1201 346 1192 337 c 0,586,587
 1178 323 1178 323 1178 316 c 0,588,589
 1178 305 1178 305 1191 292 c 2,590,-1
 1218 260 l 2,591,592
 1257 213 1257 213 1257 183 c 0,593,594
 1257 57 1257 57 1123 -32 c 0,595,596
 1003 -113 1003 -113 866 -113 c 0,597,598
 834 -113 834 -113 804 -110 c 1,599,600
 785 -134 785 -134 751 -147 c 0,601,602
 712 -161 712 -161 701 -171 c 1,603,604
 716 -173 716 -173 731 -174 c 128,-1,605
 746 -175 746 -175 761 -175 c 0,606,607
 906 -175 906 -175 1092 -116 c 1,608,-1
 1105 -128 l 1,609,610
 935 -191 935 -191 760 -191 c 0,611,612
 753 -191 753 -191 739 -190 c 128,-1,613
 725 -189 725 -189 718 -189 c 0,614,615
 700 -189 700 -189 700 -192 c 0,616,617
 703 -195 703 -195 707 -196 c 1,618,-1
 702 -207 l 1,619,620
 681 -202 681 -202 677 -185 c 1,621,622
 583 -173 583 -173 502 -136 c 1,623,624
 528 -201 528 -201 608 -243 c 0,625,626
 681 -280 681 -280 757 -280 c 0,627,628
 805 -280 805 -280 853 -268 c 1,629,630
 820 -262 820 -262 791 -236 c 1,631,-1
 801 -228 l 1,632,633
 825 -256 825 -256 865 -256 c 0,634,635
 902 -255 902 -255 935 -241 c 0,636,637
 1038 -198 1038 -198 1110 -133 c 1,638,-1
 1121 -144 l 1,639,640
 1011 -243 1011 -243 869 -282 c 0,641,642
 816 -296 816 -296 764 -296 c 0,643,644
 752 -299 752 -299 740 -311 c 128,-1,645
 728 -323 728 -323 728 -334 c 0,646,647
 728 -344 728 -344 736 -351.5 c 128,-1,648
 744 -359 744 -359 754 -359 c 0,649,650
 765 -359 765 -359 770 -348 c 1,651,-1
 781 -359 l 1,652,653
 764 -369 764 -369 746 -369 c 0,654,655
 718 -369 718 -369 718 -335 c 0,656,657
 718 -315 718 -315 744 -295 c 1,658,659
 661 -290 661 -290 586 -247 c 0,660,661
 504 -198 504 -198 483 -127 c 1,662,663
 310 -44 310 -44 252 111 c 0,664,665
 249 122 249 122 244 140 c 128,-1,666
 239 158 239 158 232 181 c 1,667,668
 214 199 214 199 184 206 c 1,669,670
 188 226 188 226 210 231 c 1,671,672
 202 242 202 242 191 242 c 0,673,674
 185 242 185 242 180 234.5 c 128,-1,675
 175 227 175 227 168 227 c 0,676,677
 153 227 153 227 153 237 c 0,678,679
 153 246 153 246 161.5 254.5 c 128,-1,680
 170 263 170 263 179 263 c 0,681,682
 211 263 211 263 236 214 c 1,683,684
 237 280 237 280 260 334 c 1,685,686
 152 351 152 351 82 450 c 0,687,688
 16 544 16 544 16 656 c 2,689,-1
 16 671 l 2,690,691
 16 679 16 679 17 684 c 1,692,693
 -18 656 -18 656 -51 656 c 0,694,695
 -77 656 -77 656 -77 670 c 0,696,697
 -77 682 -77 682 -67 682 c 0,698,699
 -62 682 -62 682 -54 679.5 c 128,-1,700
 -46 677 -46 677 -41 677 c 0,701,702
 -20 677 -20 677 -18 680 c 0,703,704
 -17.8260869565 680.173913043 -17.8260869565 680.173913043 -17.8260869565 680.40831758 c 0,705,706
 -17.8260869565 682.869565217 -17.8260869565 682.869565217 -37 692 c 0,707,708
 -45 697 -45 697 -45 699 c 0,709,710
 -45 702 -45 702 -42 703 c 128,-1,711
 -39 704 -39 704 -35.5 704.5 c 128,-1,712
 -32 705 -32 705 -28.5 706 c 128,-1,713
 -25 707 -25 707 -24 709 c 0,714,715
 -12.0740740741 728.592592593 -12.0740740741 728.592592593 -5.95336076818 728.592592593 c 0,716,717
 -4.88888888889 728.592592593 -4.88888888889 728.592592593 -4 728 c 0,718,719
 -1 726 -1 726 4 722 c 128,-1,720
 9 718 9 718 16 712 c 1,721,-1
 24 727 l 2,722,723
 29.4444444444 732.444444444 29.4444444444 732.444444444 29.4444444444 740.913580247 c 0,724,725
 29.4444444444 743.333333333 29.4444444444 743.333333333 29 746 c 0,726,727
 27 753 27 753 23 762 c 128,-1,728
 19 771 19 771 13 779 c 128,-1,729
 7 787 7 787 0 792 c 128,-1,730
 -7 797 -7 797 -13 797 c 128,-1,731
 -19 797 -19 797 -25.5 792.5 c 128,-1,732
 -32 788 -32 788 -37 788 c 0,733,734
 -51 788 -51 788 -51 801 c 0,735,736
 -51 810 -51 810 -40.5 816.5 c 128,-1,737
 -30 823 -30 823 -21 823 c 0,738,739
 24 823 24 823 38 769 c 1,740,741
 80 869 80 869 198 924 c 0,742,743
 309 975 309 975 456 975 c 0,744,745
 464 975 464 975 475 973.5 c 128,-1,746
 486 972 486 972 501 970 c 128,-1,747
 516 968 516 968 527.5 967 c 128,-1,748
 539 966 539 966 547 966 c 0,749,750
 603 966 603 966 603 1013 c 0,751,752
 605 1109 605 1109 665 1162 c 0,753,754
 726 1216 726 1216 822 1216 c 0,755,756
 909 1216 909 1216 965 1163 c 1,757,758
 999 1122 999 1122 1073 1046 c 0,759,760
 1097 1022 1097 1022 1126 1022 c 0,761,762
 1182 1022 1182 1022 1182 1077 c 0,763,764
 1182 1101 1182 1101 1138 1121 c 0,765,766
 1095 1140 1095 1140 1095 1166 c 0,767,768
 1095 1194 1095 1194 1119 1194 c 0,769,770
 1124 1194 1124 1194 1131 1190 c 1,771,-1
 1136 1174 l 1,772,773
 1133 1179 1133 1179 1120 1179 c 0,774,775
 1108 1179 1108 1179 1108 1169 c 0,776,777
 1108 1152 1108 1152 1153 1131 c 0,778,779
 1197 1112 1197 1112 1199 1080 c 0,780,781
 1199.15384615 1076.53846154 1199.15384615 1076.53846154 1199.15384615 1073.24852071 c 0,782,783
 1199.15384615 1033.76923077 1199.15384615 1033.76923077 1177 1019 c 0,784,785
 1160 1007 1160 1007 1128 1007 c 0,786,787
 1080 1007 1080 1007 1026 1075 c 2,788,-1
 996 1113 l 1,789,790
 1005.99828532 1093 1005.99828532 1093 1005.99657064 1059 c 1,791,792
 1005.81481481 1059.00925926 1005.81481481 1059.00925926 996 1007 c 0,793,794
 995.428571429 1003.42857143 995.428571429 1003.42857143 995.428571429 1000.12244898 c 0,795,796
 995.428571429 980.285714286 995.428571429 980.285714286 1016 970 c 0,797,798
 1184 890 1184 890 1184 790 c 0,799,800
 1184 706 1184 706 1120 673 c 0,801,802
 1096 661 1096 661 1060 661 c 0,803,804
 996 661 996 661 968 719 c 2,805,-1
 953 752 l 2,806,807
 941 776 941 776 931 776 c 0,808,809
 919 776 919 776 911 771 c 1,810,811
 904.25 773.25 904.25 773.25 904.25 776.625 c 0,812,813
 904.25 777.75 904.25 777.75 905 779 c 0,814,815
 913 792 913 792 936 799 c 0,816,817
 946 802 946 802 953 802 c 0,818,819
 1005 802 1005 802 1032 745 c 0,820,821
 1048 710 1048 710 1050 707 c 0,822,823
 1064 687 1064 687 1083 687 c 0,824,825
 1095 687 1095 687 1107.5 691.5 c 128,-1,826
 1120 696 1120 696 1130 704 c 128,-1,827
 1140 712 1140 712 1146 722.5 c 128,-1,828
 1152 733 1152 733 1152 745 c 0,829,830
 1152 788 1152 788 1070 830 c 0,831,832
 1051 840 1051 840 1032 849 c 128,-1,833
 1013 858 1013 858 994 867 c 0,834,835
 972 878 972 878 954 888.5 c 128,-1,836
 936 899 936 899 922 910 c 1,837,838
 888 891 888 891 844 891 c 0,839,840
 820 891 820 891 800 901 c 1,841,842
 795 893 795 893 788 885 c 128,-1,843
 781 877 781 877 771 867 c 1,844,845
 945 745 945 745 994 561 c 1,846,847
 1044 561 1044 561 1083 548 c 1,848,849
 1091 565 1091 565 1106.5 595.5 c 128,-1,850
 1122 626 1122 626 1145 671 c 0,851,852
 1156 692 1156 692 1219 777 c 0,853,854
 1267 841 1267 841 1267 855 c 0,855,856
 1267 859 1267 859 1263.5 860.5 c 128,-1,857
 1260 862 1260 862 1256.5 863 c 128,-1,858
 1253 864 1253 864 1249.5 864.5 c 128,-1,859
 1246 865 1246 865 1246 868 c 0,860,861
 1246 881 1246 881 1264 881 c 0,862,863
 1277 881 1277 881 1278 856 c 0,864,865
 1278.11111111 854.833333333 1278.11111111 854.833333333 1278.11111111 853.608024691 c 0,866,867
 1278.11111111 832.777777778 1278.11111111 832.777777778 1246 795 c 0,868,869
 1235 782 1235 782 1220 763 c 128,-1,870
 1205 744 1205 744 1185 718 c 1,871,872
 1220 750 1220 750 1252 750 c 0,873,874
 1278 750 1278 750 1278 727 c 0,875,876
 1278 714 1278 714 1270 714 c 0,877,878
 1257 714 1257 714 1257 723 c 0,879,880
 1257 725 1257 725 1259.5 729.5 c 128,-1,881
 1262 734 1262 734 1262 736 c 0,882,883
 1262 740 1262 740 1249 740 c 0,884,885
 1176 740 1176 740 1095 544 c 1,886,887
 1107 540 1107 540 1118.5 535 c 128,-1,888
 1130 530 1130 530 1141 524 c 1,889,890
 1147 535 1147 535 1163 545 c 0,891,892
 1164.2 545.2 1164.2 545.2 1165.31 545.2 c 0,893,894
 1175.3 545.2 1175.3 545.2 1178 529 c 1,895,896
 1109 470 1109 470 1094 393 c 1,897,-1
 1078 393 l 1,898,899
 1078 402 1078 402 1070 428 c 0,900,901
 1068 433 1068 433 1066.5 436.5 c 128,-1,902
 1065 440 1065 440 1063 442 c 0,903,904
 1061.63636364 444.272727273 1061.63636364 444.272727273 1060.47933884 444.272727273 c 0,905,906
 1059.09090909 444.272727273 1059.09090909 444.272727273 1058 441 c 0,907,908
 1046 403 1046 403 1037.5 377 c 128,-1,909
 1029 351 1029 351 1024 336 c 0,910,911
 1003 278 1003 278 981 235 c 0,912,913
 980 234 980 234 978 231.5 c 128,-1,914
 976 229 976 229 972 224 c 2,915,-1
 950 191 l 2,916,917
 916 144 916 144 916 140 c 1,918,919
 918 140 918 140 926 147 c 2,920,-1
 947 164 l 2,921,922
 958 172 958 172 984 194 c 0,923,924
 1050 260 1050 260 1054 322 c 0,925,926
 1054.22222222 324.666666667 1054.22222222 324.666666667 1054.22222222 327.234567901 c 0,927,928
 1054.22222222 347.777777778 1054.22222222 347.777777778 1040 362 c 1,929,-1
 1052 362 l 1,930,931
 1062.5625 353.875 1062.5625 353.875 1062.5625 335.84765625 c 0,932,933
 1062.5625 331.6875 1062.5625 331.6875 1062 327 c 2,934,-1
 1060 304 l 2,935,936
 1059 297 1059 297 1058 291.5 c 128,-1,937
 1057 286 1057 286 1056 281 c 1,938,939
 1060 292 1060 292 1068 305.5 c 128,-1,940
 1076 319 1076 319 1087 336 c 0,941,942
 1114 377 1114 377 1130 377 c 0,943,944
 1159 377 1159 377 1159 363 c 0,945,946
 1159 360 1159 360 1158 357 c 0,947,948
 1141 359 1141 359 1134 360.5 c 0,949,950
 1129.54545455 361.454545455 1129.54545455 361.454545455 1129.54545455 361.801652893 c 0,951,952
 1129.54545455 361.847895321 1129.54545455 361.847895321 1129.62451457 361.883356681 c 1,953,954
 1119.79436438 360.258526528 1119.79436438 360.258526528 1103 336 c 1,955,956
 1108 338 1108 338 1113 339 c 128,-1,957
 1118 340 1118 340 1123 341 c 0,958,959
 1132 341 1132 341 1134 336 c 1,960,961
 1116 325 1116 325 1100 298 c 0,962,963
 1088 277 1088 277 1065 277 c 1,964,965
 1055 261 1055 261 1039 239.5 c 128,-1,966
 1023 218 1023 218 1000 190 c 0,967,968
 935 125 935 125 821 85 c 1,969,-1
 807 96 l 1,970,971
 870 109 870 109 908 146 c 0,972,973
 938 174 938 174 970 239 c 0,974,975
 995.137931034 289.275862069 995.137931034 289.275862069 995.137931034 412.365041617 c 0,976,977
 995.137931034 421.482758621 995.137931034 421.482758621 995 431 c 0,978,979
 995 444 995 444 993.5 458.5 c 128,-1,980
 992 473 992 473 990 489 c 1,981,982
 974 489 974 489 974 483 c 1,503,-1
739 858 m 1,983,984
 706 882 706 882 655 907 c 1,985,986
 679 866 679 866 712 826 c 1,987,988
 717 831 717 831 725.5 842 c 128,-1,989
 734 853 734 853 739 858 c 1,983,984
597 723 m 0,990,991
 597 721.077922078 597 721.077922078 596.948051948 719.148423006 c 0,992,993
 596.948051948 646.792207792 596.948051948 646.792207792 670 564 c 0,994,995
 682 550 682 550 699.5 532.5 c 128,-1,996
 717 515 717 515 740 493 c 0,997,998
 766 468 766 468 783.5 450.5 c 128,-1,999
 801 433 801 433 811 423 c 1,1000,1001
 815 443 815 443 823 457 c 1,1002,1003
 719 566 719 566 718 571 c 0,1004,1005
 665 641 665 641 665 713 c 0,1006,1007
 665 763 665 763 703 815 c 1,1008,1009
 656 867 656 867 631 917 c 1,1010,1011
 617 923 617 923 603 928 c 128,-1,1012
 589 933 589 933 575 937 c 0,1013,1014
 573 935 573 935 569 926 c 128,-1,1015
 565 917 565 917 557 903 c 1,1016,1017
 559 905 559 905 562.5 907 c 128,-1,1018
 566 909 566 909 571 912 c 0,1019,1020
 572.833333333 912.083333333 572.833333333 912.083333333 574.541666667 912.083333333 c 0,1021,1022
 593.333333333 912.083333333 593.333333333 912.083333333 597 902 c 1,1023,1024
 540 864 540 864 540 829 c 0,1025,1026
 540 735 540 735 579 665 c 0,1027,1028
 610 608 610 608 684 534 c 2,1029,-1
 687 531 l 1,1030,1031
 582 636 582 636 582 729 c 0,1032,1033
 582 756 582 756 594 785 c 0,1034,1035
 608 823 608 823 631 823 c 0,1036,1037
 660 823 660 823 660 808 c 0,1038,1039
 660 806 660 806 645 797 c 0,1040,1041
 637 793 637 793 633.5 791 c 2,1042,-1
 630 789 l 1,1043,1044
 598 765 598 765 597 723 c 0,990,991
816 336 m 1,1045,-1
 801 351 l 1,1046,1047
 801 362 801 362 802.5 374 c 128,-1,1048
 804 386 804 386 806 400 c 1,1049,1050
 781 429 781 429 747.5 460 c 128,-1,1051
 714 491 714 491 671 525 c 0,1052,1053
 602 579 602 579 559 658 c 0,1054,1055
 514 742 514 742 514 826 c 1,1056,1057
 498 809 498 809 486 792 c 128,-1,1058
 474 775 474 775 465 758 c 1,1059,1060
 545.006097561 690.829268293 545.006097561 690.829268293 545 554.379684711 c 0,1061,1062
 545 552.695121951 545 552.695121951 545 551 c 0,1063,1064
 545 519 545 519 533 491 c 1,1065,1066
 623 465 623 465 643 370 c 1,1067,1068
 653 373 653 373 664 373 c 0,1069,1070
 709 373 709 373 750 339 c 128,-1,1071
 791 305 791 305 799 305 c 0,1072,1073
 802 305 802 305 822 328 c 0,1074,1075
 826 333 826 333 832 335 c 0,1076,1077
 832.285714286 335.071428571 832.285714286 335.071428571 832.56122449 335.071428571 c 0,1078,1079
 836.142857143 335.071428571 836.142857143 335.071428571 838 323 c 0,1080,1081
 838 242 838 242 777 242 c 0,1082,1083
 722 242 722 242 694 279 c 0,1084,1085
 685 290 685 290 680 296 c 128,-1,1086
 675 302 675 302 673 304 c 0,1087,1088
 661 316 661 316 644 316 c 1,1089,1090
 634 267 634 267 592 238 c 1,1091,1092
 598 193 598 193 643 154 c 0,1093,1094
 688 112 688 112 744 112 c 0,1095,1096
 830 112 830 112 875 164 c 0,1097,1098
 911 207 911 207 911 273 c 0,1099,1100
 911 353 911 353 850 427 c 1,1101,1102
 846 420 846 420 842 412.5 c 128,-1,1103
 838 405 838 405 834 397 c 1,1104,1105
 890 326 890 326 890 258 c 0,1106,1107
 890 212 890 212 848 172 c 0,1108,1109
 807 132 807 132 753 132 c 0,1110,1111
 721 132 721 132 686 143 c 1,1112,-1
 696 148 l 1,1113,1114
 713 143 713 143 725 143 c 0,1115,1116
 775 143 775 143 775 181 c 0,1117,1118
 775 201 775 201 763 201 c 0,1119,1120
 761 201 761 201 759 198 c 128,-1,1121
 757 195 757 195 755 195 c 0,1122,1123
 744 195 744 195 744 204 c 0,1124,1125
 744 214 744 214 766 214 c 0,1126,1127
 776 214 776 214 786 206 c 128,-1,1128
 796 198 796 198 796 188 c 0,1129,1130
 796 165 796 165 772 146 c 1,1131,1132
 815 155 815 155 843 186 c 0,1133,1134
 875.014705882 218.029411765 875.014705882 218.029411765 875 257.595155709 c 0,1135,1136
 875 258.794117647 875 258.794117647 875 260 c 0,1137,1138
 874 312 874 312 826 376 c 1,1139,1140
 824 368 824 368 821 358.5 c 128,-1,1141
 818 349 818 349 816 336 c 1,1045,-1
EndSplineSet
EndChar

